<svg width="76" height="76" viewBox="0 0 76 76" fill="none" xmlns="http://www.w3.org/2000/svg">
<path d="M74.2508 0H10.0498C9.70901 0 9.37384 0.13493 9.15504 0.396031C8.67677 0.966773 8.88963 1.78125 9.47745 2.09772L24.4518 10.1608C24.4533 10.1616 24.4543 10.1631 24.4546 10.1649L27.9411 33.4073C28.066 34.2126 29.0222 34.6254 29.6903 34.1512L44.3145 23.7602C44.3162 23.7591 44.3184 23.7589 44.3203 23.7599L54.6838 29.4598C55.1781 29.7314 55.8152 29.5821 56.137 29.1193L67.0338 13.4553C67.3856 12.9495 67.2607 12.2543 66.755 11.9025C66.2491 11.5505 65.5543 11.6755 65.2022 12.1812L54.8818 27.0171C54.8802 27.0193 54.8772 27.0201 54.8748 27.0187L34.2073 15.6517C34.2031 15.6495 34.2037 15.6434 34.2082 15.6418L71.4096 3.24128C71.4145 3.23965 71.4186 3.24529 71.4156 3.24945L68.3314 7.68283C67.9807 8.18692 68.0623 8.89853 68.5575 9.26161C69.0653 9.63389 69.776 9.51276 70.1334 8.99947L75.175 1.75245C75.2064 1.70688 75.2349 1.65745 75.2594 1.60743C75.6216 0.872367 75.0634 0 74.2508 0ZM42.1386 22.56C42.142 22.5619 42.1423 22.567 42.139 22.5692L30.4989 30.8397C30.495 30.8423 30.4898 30.8392 30.4904 30.8345L32.3131 17.1644C32.3135 17.1607 32.3177 17.1586 32.3211 17.1604L42.1386 22.56ZM60.0005 4.69255L31.0711 14.3356C30.6722 14.4692 30.3737 14.8291 30.3181 15.2465L28.9841 25.251C28.9832 25.2572 28.9743 25.2572 28.9734 25.2512L26.7406 10.3654C26.7401 10.3624 26.7421 10.3597 26.745 10.3593L59.9978 4.68202C60.0044 4.68083 60.0067 4.69033 60.0005 4.69255ZM61.0341 2.2417L25.6671 8.27999C25.6659 8.28014 25.6647 8.27999 25.6637 8.2794L14.4497 2.24126C14.4448 2.23859 14.4465 2.23102 14.4522 2.23102H61.0332C61.0399 2.23102 61.0406 2.24066 61.0341 2.2417Z" fill="#70C783"/>
<path d="M20.6518 44.6441C20.3389 44.6487 20.0202 44.6614 19.7048 44.6819C19.0899 44.7217 18.6239 45.2522 18.6635 45.867C18.7015 46.4574 19.1924 46.9107 19.7756 46.9107C19.7998 46.9107 19.8241 46.91 19.8486 46.9083C20.1275 46.8904 20.409 46.8791 20.6852 46.8749C21.3012 46.8657 21.7931 46.3588 21.7839 45.7429C21.7747 45.1271 21.2649 44.6314 20.6518 44.6441Z" fill="#70C783"/>
<path d="M26.1338 45.4305C25.5553 45.2427 24.9477 45.0859 24.3282 44.9645C23.724 44.8456 23.1376 45.2399 23.0189 45.8446C22.9003 46.449 23.2944 47.0354 23.899 47.154C24.4312 47.2583 24.9515 47.3925 25.4452 47.5527C26.0238 47.7402 26.6628 47.4142 26.8506 46.836C27.0406 46.2498 26.7195 45.6206 26.1338 45.4305Z" fill="#70C783"/>
<path d="M14.5194 55.7546C14.4323 55.2459 14.3818 54.7213 14.3696 54.1954C14.3554 53.5794 13.843 53.0925 13.2286 53.106C12.6127 53.1203 12.125 53.6312 12.1392 54.2471C12.1539 54.8818 12.2149 55.5158 12.3204 56.1315C12.423 56.7303 13.009 57.1455 13.6083 57.0423C14.2157 56.9384 14.6235 56.3617 14.5194 55.7546Z" fill="#70C783"/>
<path d="M19.9614 62.6437C19.49 62.4766 19.0313 62.2603 18.5983 62.001C18.0696 61.6847 17.3847 61.8566 17.0681 62.3852C16.7518 62.9137 16.9237 63.5988 17.4522 63.9154C18.012 64.2503 18.605 64.5299 19.2157 64.7465C19.8195 64.9605 20.4961 64.6055 20.6647 63.9886C20.8167 63.4327 20.5041 62.8363 19.9614 62.6437Z" fill="#70C783"/>
<path d="M21.4096 40.3333C21.0266 39.8507 20.3248 39.7701 19.8424 40.153C19.369 40.5285 18.9048 40.9276 18.4631 41.3396C18.0123 41.7595 17.9874 42.4653 18.4071 42.9161C18.8211 43.3607 19.5388 43.3862 19.9835 42.9719C20.3825 42.6002 20.8017 42.2397 21.2292 41.9007C21.7118 41.5175 21.7926 40.816 21.4096 40.3333Z" fill="#70C783"/>
<path d="M16.3404 59.9821C16.0305 59.5813 15.7506 59.1461 15.5085 58.6885C15.2203 58.144 14.5451 57.9363 14.0008 58.2243C13.4563 58.5125 13.2485 59.1875 13.5366 59.732C13.8382 60.3021 14.1879 60.8454 14.5757 61.3468C14.9767 61.8656 15.7629 61.9217 16.2346 61.4656C16.6376 61.0756 16.6833 60.4253 16.3404 59.9821Z" fill="#70C783"/>
<path d="M14.6673 48.1325C14.1005 47.891 13.4453 48.1548 13.2038 48.7215C12.9375 49.3461 12.7199 49.9609 12.574 50.499C12.4128 51.0937 12.7641 51.7063 13.3586 51.8676C13.4562 51.894 13.5544 51.9067 13.6511 51.9067C14.1424 51.9067 14.5924 51.5796 14.7269 51.0828C14.8104 50.7754 14.9698 50.2679 15.2561 49.5958C15.4978 49.0291 15.2341 48.3739 14.6673 48.1325Z" fill="#70C783"/>
<path d="M17.5719 43.8275C17.0857 43.4486 16.385 43.5354 16.0063 44.0214C15.6331 44.5 15.2759 44.9981 14.9448 45.5019C14.6062 46.0167 14.7492 46.7084 15.264 47.0469C15.7722 47.3811 16.4749 47.2354 16.8089 46.7277C17.1073 46.2739 17.4292 45.8249 17.7657 45.3934C18.1446 44.9074 18.0577 44.2064 17.5719 43.8275Z" fill="#70C783"/>
<path d="M31.0095 48.3565C30.5714 47.9018 30.074 47.4779 29.531 47.0964C29.0271 46.7421 28.3314 46.8636 27.9771 47.3679C27.6229 47.872 27.7445 48.5677 28.2485 48.9219C28.6752 49.2216 29.0635 49.5521 29.4026 49.9044C29.8245 50.3421 30.5421 50.3555 30.9799 49.9338C31.4236 49.5063 31.4368 48.8001 31.0095 48.3565Z" fill="#70C783"/>
<path d="M25.7987 63.7262C25.6696 63.1236 25.077 62.7404 24.4742 62.8692C24.0093 62.9688 23.5223 63.0347 23.0252 63.0653L22.9385 63.0702C22.3232 63.1008 21.8491 63.6243 21.8797 64.2398C21.9092 64.8363 22.4022 65.2999 22.9928 65.2999C23.0114 65.2999 23.0304 65.2995 23.0491 65.2986L23.1628 65.2922C23.7696 65.2552 24.3681 65.1739 24.942 65.051C25.5443 64.9215 25.9279 64.3287 25.7987 63.7262Z" fill="#70C783"/>
<path d="M33.4057 53.6833C33.3527 53.0072 33.2291 52.3534 33.038 51.7403C32.8547 51.152 32.229 50.8237 31.6411 51.0071C31.0528 51.1903 30.7248 51.8158 30.9079 52.4041C31.0496 52.8581 31.1414 53.3471 31.1814 53.8571C31.2287 54.4632 31.7744 54.9297 32.3804 54.8824C32.9864 54.8349 33.4531 54.2894 33.4057 53.6833Z" fill="#70C783"/>
<path d="M32.2314 56.1245C31.6404 55.9502 31.0202 56.2875 30.8455 56.8782C30.7001 57.3705 30.5116 57.8532 30.2854 58.3132C30.0133 58.8658 30.241 59.5345 30.794 59.8065C31.3396 60.0751 32.019 59.8431 32.2872 59.2979C32.5693 58.7247 32.8041 58.1232 32.9852 57.5101C33.1598 56.9194 32.8222 56.2989 32.2314 56.1245Z" fill="#70C783"/>
<path d="M25.9527 37.8266C25.6907 37.2688 25.0263 37.0292 24.4687 37.2912C23.9211 37.5483 23.3785 37.8285 22.8561 38.1241C22.439 38.3599 22.2156 38.8517 22.3128 39.3211C22.4188 39.8335 22.8833 40.2108 23.4064 40.2108C23.5925 40.2108 23.781 40.1642 23.9545 40.0661C24.4282 39.7981 24.9204 39.5439 25.4172 39.3105C25.9749 39.0485 26.2147 38.3841 25.9527 37.8266Z" fill="#70C783"/>
<path d="M30.0605 60.8175C29.6362 60.3709 28.9303 60.3525 28.4835 60.7767C28.1148 61.1269 27.7127 61.4432 27.2882 61.7174C26.7706 62.0516 26.622 62.742 26.9561 63.2596C27.2855 63.7701 27.9875 63.9217 28.4984 63.5917C29.039 63.2426 29.5509 62.8398 30.0199 62.3945C30.4665 61.9703 30.4848 61.2643 30.0605 60.8175Z" fill="#70C783"/>
<path d="M30.1218 36.5233C29.9629 35.9284 29.3513 35.5751 28.7562 35.7336C28.4553 35.8141 28.154 35.9002 27.8607 35.9894C27.3018 36.1598 26.964 36.7538 27.1025 37.3213C27.2524 37.9354 27.9064 38.3075 28.5113 38.1235C28.78 38.0415 29.0559 37.9627 29.332 37.8889C29.9269 37.73 30.2807 37.1186 30.1218 36.5233Z" fill="#70C783"/>
<path d="M5.04822 74.3757C4.91878 74.1251 4.7932 73.8691 4.6746 73.6148C4.41439 73.0565 3.75058 72.8149 3.19231 73.0751C2.63403 73.3353 2.39223 73.9989 2.65259 74.5574C2.78381 74.8388 2.92274 75.1219 3.06569 75.3987C3.34445 75.9387 4.02771 76.1574 4.56847 75.8784C5.11591 75.5961 5.3307 74.9233 5.04822 74.3757Z" fill="#70C783"/>
<path d="M3.56799 70.6543C3.4243 70.1481 3.30065 69.6323 3.2009 69.121C3.0829 68.5164 2.49746 68.1221 1.89228 68.24C1.28769 68.358 0.893295 68.9439 1.0113 69.5486C1.12293 70.121 1.26112 70.698 1.42188 71.264C1.58783 71.8485 2.21483 72.1987 2.79968 72.0321C3.39254 71.8638 3.73647 71.2469 3.56799 70.6543Z" fill="#70C783"/>
<path d="M1.85428 63.2335C1.24064 63.1955 0.709382 63.661 0.670046 64.2757C0.642139 64.713 0.627889 65.1564 0.627889 65.5937C0.627889 65.9949 0.613343 66.3851 0.877858 66.7145C1.09265 66.9818 1.42797 67.1407 1.7719 67.1316C2.11301 67.1243 2.43719 66.9571 2.64144 66.6839C2.88889 66.3531 2.85891 65.9852 2.85891 65.5935C2.85891 65.2036 2.87152 64.808 2.89646 64.4177C2.9358 63.803 2.46911 63.2728 1.85428 63.2335Z" fill="#70C783"/>
<path d="M3.06582 58.3756C2.4789 58.186 1.85086 58.5083 1.6616 59.0945C1.48155 59.6525 1.32242 60.2232 1.18912 60.7908C1.04796 61.3904 1.41994 61.9908 2.01963 62.1318C2.61145 62.2711 3.22168 61.8928 3.36076 61.3013C3.48055 60.7925 3.6232 60.2805 3.7847 59.78C3.97381 59.1935 3.65215 58.5647 3.06582 58.3756Z" fill="#70C783"/>
<path d="M8.75469 50.2294C8.32912 49.7837 7.62345 49.7671 7.17739 50.1923C7.06324 50.3011 6.95014 50.4119 6.83747 50.5242C6.53614 50.8257 6.23838 51.1444 5.95234 51.4717C5.54696 51.9354 5.59416 52.6402 6.05788 53.0458C6.51536 53.4458 7.23202 53.3977 7.63191 52.9402C7.88529 52.6503 8.14892 52.3683 8.41507 52.102C8.51496 52.0021 8.6159 51.9035 8.71743 51.8067C9.16334 51.3812 9.17982 50.6752 8.75469 50.2294Z" fill="#70C783"/>
<path d="M5.4006 53.9456C4.87587 53.623 4.1889 53.7869 3.86605 54.3115C3.56057 54.8083 3.27097 55.3246 3.00497 55.8457C2.72501 56.3945 2.94307 57.0664 3.49199 57.3462C4.03408 57.6227 4.71645 57.4005 4.9924 56.8591C5.23138 56.3907 5.49174 55.9265 5.76635 55.4801C6.0892 54.9553 5.92533 54.2683 5.4006 53.9456Z" fill="#70C783"/>
<path d="M12.2688 47.8674C11.9529 47.3386 11.268 47.166 10.7392 47.4819C10.4702 47.6425 10.2014 47.8118 9.93982 47.9854C9.42652 48.3262 9.2864 49.0183 9.62706 49.5316C9.96298 50.038 10.6664 50.1806 11.1733 49.8444C11.4056 49.6903 11.6443 49.5398 11.8833 49.3972C12.4122 49.0811 12.5848 48.3962 12.2688 47.8674Z" fill="#70C783"/>
</svg>
