<svg width="245" height="45" viewBox="0 0 245 45" fill="none" xmlns="http://www.w3.org/2000/svg">
<rect x="3.5" y="0.5" width="238" height="44" fill="#70C783" stroke="#70C783"/>
<path d="M36.7602 36.504C36.2322 36.504 35.6682 36.42 35.0682 36.252C34.4922 36.108 34.0482 35.94 33.7362 35.748C32.1282 34.716 31.3242 31.896 31.3242 27.288V26.316V25.2V24.336C31.3242 23.376 31.3362 22.524 31.3602 21.78C31.3842 21.012 31.4322 20.184 31.5042 19.296C31.5762 18.36 31.6842 17.604 31.8282 17.028C31.9722 16.428 32.2122 15.756 32.5482 15.012C32.8362 14.316 33.1842 13.776 33.5922 13.392C34.0242 13.008 34.5762 12.684 35.2482 12.42C35.8482 12.156 36.5922 12.024 37.4802 12.024C37.8402 12.024 38.1162 12.108 38.3082 12.276C38.5002 12.444 38.5962 12.66 38.5962 12.924C38.5962 13.164 38.5122 13.38 38.3442 13.572C38.2002 13.764 38.0202 13.872 37.8042 13.896H36.1122C35.6322 13.896 35.2122 14.196 34.8522 14.796C34.4922 15.396 34.2402 16.176 34.0962 17.136C33.7842 18.912 33.6282 20.352 33.6282 21.456V21.636L33.5562 25.092C33.5082 26.124 33.4842 27.288 33.4842 28.584C33.4842 29.496 33.5202 30.24 33.5922 30.816C33.7122 31.68 33.9162 32.4 34.2042 32.976C34.4922 33.624 34.9842 34.092 35.6802 34.38C36.0402 34.524 36.4362 34.596 36.8682 34.596C37.1322 34.596 37.3962 34.5 37.6602 34.308C37.9722 34.308 38.2242 34.38 38.4162 34.524C38.6322 34.644 38.7402 34.836 38.7402 35.1C38.7402 36.036 38.0802 36.504 36.7602 36.504ZM48.2909 36.612C47.7629 36.612 47.2829 36.036 46.8509 34.884C46.3469 33.636 45.9749 32.352 45.7349 31.032L45.4829 29.808C44.7869 26.376 44.3429 24.42 44.1509 23.94H43.7189C43.7189 24.636 43.7069 25.272 43.6829 25.848V27.828C43.6829 31.044 43.9109 33.552 44.3669 35.352L43.9709 36.324H42.9629L42.4949 35.784L42.5309 33.372C42.5309 31.212 42.4229 27.936 42.2069 23.544C42.0149 18.864 41.9189 15.588 41.9189 13.716C41.9189 12.564 42.3149 11.988 43.1069 11.988C44.4029 11.988 45.4589 12.324 46.2749 12.996C47.1149 13.668 47.5349 14.604 47.5349 15.804V18.324C47.5349 18.684 47.4749 19.104 47.3549 19.584C47.2349 20.04 47.1029 20.412 46.9589 20.7L46.2749 21.996L45.6989 23.076L45.8789 23.94L46.3829 26.496C46.7189 28.344 47.0429 29.844 47.3549 30.996C47.6669 32.148 48.0509 33.192 48.5069 34.128L48.7229 34.56C48.9629 35.04 49.0829 35.424 49.0829 35.712C49.0829 35.952 49.0109 36.156 48.8669 36.324C48.7229 36.516 48.5309 36.612 48.2909 36.612ZM43.8629 22.176C44.3909 21.912 44.8349 21.192 45.1949 20.016C45.5789 18.816 45.7709 17.712 45.7709 16.704C45.7709 15.936 45.6749 15.216 45.4829 14.544C45.3629 14.16 45.1589 13.872 44.8709 13.68C44.6069 13.464 44.2709 13.356 43.8629 13.356L43.7909 13.536L43.7189 13.86L43.7909 18.108C43.8389 19.356 43.8629 20.712 43.8629 22.176ZM54.2641 36.468C53.9521 36.468 53.6641 36.36 53.4001 36.144C53.1601 35.928 53.0281 35.664 53.0041 35.352V34.416V33.696C52.9801 33.48 52.9681 33.228 52.9681 32.94C52.9681 32.436 52.9321 31.668 52.8601 30.636L52.7881 28.332C52.7881 27.156 52.8241 25.404 52.8961 23.076C52.9921 20.988 53.0401 19.236 53.0401 17.82C53.0401 17.484 53.0041 16.98 52.9321 16.308C52.8601 15.612 52.8241 15.108 52.8241 14.796C52.8241 13.092 53.3281 12.24 54.3361 12.24C55.1281 12.24 56.0401 12.396 57.0721 12.708C58.1281 13.02 58.6561 13.392 58.6561 13.824C58.6561 14.064 58.5481 14.292 58.3321 14.508C58.1401 14.7 57.9001 14.856 57.6121 14.976C56.6041 14.616 55.6921 14.376 54.8761 14.256C54.9001 14.616 54.9121 15.132 54.9121 15.804C54.9121 16.764 54.9001 17.628 54.8761 18.396C54.8041 19.548 54.7681 20.412 54.7681 20.988L54.8761 21.564L55.4521 21.528C55.6441 21.504 55.8841 21.492 56.1721 21.492C57.3241 21.492 57.9001 21.828 57.9001 22.5C57.9001 22.764 57.7921 22.992 57.5761 23.184C57.3601 23.352 57.0841 23.436 56.7481 23.436C56.3161 23.436 55.9801 23.412 55.7401 23.364H54.8401C54.8881 23.988 54.9121 24.9 54.9121 26.1C54.9121 27.3 54.9001 28.38 54.8761 29.34C54.8041 30.804 54.7681 31.896 54.7681 32.616C54.7681 33.96 54.7921 34.632 54.8401 34.632L56.0281 34.596C56.4361 34.572 56.9281 34.56 57.5041 34.56C58.4161 34.56 58.8721 34.848 58.8721 35.424C58.8721 35.76 58.7161 36.012 58.4041 36.18C58.1161 36.372 57.7561 36.468 57.3241 36.468H54.2641ZM69.9306 36.324C69.3786 36.324 68.9706 36.24 68.7066 36.072C68.4426 35.904 68.3106 35.592 68.3106 35.136C68.3106 34.416 68.1906 33.192 67.9506 31.464L67.8066 30.708L64.2426 30.168C64.0986 30.72 63.8946 31.836 63.6306 33.516C63.4866 34.692 63.2586 35.472 62.9466 35.856C62.7786 36.072 62.5386 36.18 62.2266 36.18C61.9386 36.18 61.6746 36.096 61.4346 35.928C61.1946 35.736 61.0746 35.508 61.0746 35.244L61.1466 35.064L61.1826 34.92C62.7666 28.752 63.9666 22.668 64.7826 16.668C64.7826 16.572 64.7946 16.416 64.8186 16.2C64.8426 15.96 64.8666 15.624 64.8906 15.192C64.9626 14.304 65.0346 13.596 65.1066 13.068C65.2026 12.54 65.3466 12.144 65.5386 11.88H66.7626C67.0986 11.88 67.3866 11.964 67.6266 12.132C67.8666 12.276 67.9866 12.492 67.9866 12.78C67.9866 14.604 68.2386 17.316 68.7426 20.916C69.2226 24.612 69.4626 27.204 69.4626 28.692C69.4626 28.836 69.5226 29.208 69.6426 29.808C69.7626 30.36 69.8226 30.72 69.8226 30.888C69.8226 31.056 69.9426 31.776 70.1826 33.048C70.3986 34.2 70.5066 34.944 70.5066 35.28V35.316C70.5066 35.844 70.3146 36.18 69.9306 36.324ZM67.5546 29.412C67.4826 29.052 67.4466 28.608 67.4466 28.08C67.4466 25.92 67.2546 23.16 66.8706 19.8L66.5106 16.056C65.4786 21.696 64.7706 25.956 64.3866 28.836C64.7466 29.076 65.8026 29.268 67.5546 29.412ZM75.6124 35.424L75.5764 34.02C75.5524 33.612 75.5404 33.156 75.5404 32.652L75.5764 31.428C75.5044 31.164 75.3244 28.536 75.0364 23.544C74.7484 18.552 74.5804 15.348 74.5324 13.932C73.1404 13.884 72.2524 13.74 71.8684 13.5C71.6044 13.308 71.4724 13.092 71.4724 12.852C71.4724 12.66 71.5924 12.492 71.8324 12.348C72.0964 12.18 72.3604 12.096 72.6244 12.096C73.2964 12.096 74.1124 12.144 75.0724 12.24C75.9844 12.36 76.8004 12.42 77.5204 12.42H77.8084H78.0964C78.8404 12.42 79.2124 12.708 79.2124 13.284C79.2124 13.572 79.0924 13.812 78.8524 14.004C78.6124 14.172 78.3364 14.256 78.0244 14.256C77.8084 14.256 77.4964 14.22 77.0884 14.148L76.3684 14.004L76.3324 14.184L76.2964 14.364C76.2964 16.5 76.5004 19.908 76.9084 24.588C77.2924 28.98 77.4844 32.388 77.4844 34.812C77.4844 35.1 77.3524 35.352 77.0884 35.568C76.8484 35.784 76.5724 35.892 76.2604 35.892L75.6124 35.424ZM84.4633 36.468C84.1513 36.468 83.8633 36.36 83.5993 36.144C83.3593 35.928 83.2273 35.664 83.2033 35.352V34.416V33.696C83.1793 33.48 83.1673 33.228 83.1673 32.94C83.1673 32.436 83.1313 31.668 83.0593 30.636L82.9873 28.332C82.9873 27.156 83.0233 25.404 83.0953 23.076C83.1913 20.988 83.2393 19.236 83.2393 17.82C83.2393 17.484 83.2033 16.98 83.1313 16.308C83.0593 15.612 83.0233 15.108 83.0233 14.796C83.0233 13.092 83.5273 12.24 84.5353 12.24C85.3273 12.24 86.2393 12.396 87.2713 12.708C88.3273 13.02 88.8553 13.392 88.8553 13.824C88.8553 14.064 88.7473 14.292 88.5313 14.508C88.3393 14.7 88.0993 14.856 87.8113 14.976C86.8033 14.616 85.8913 14.376 85.0753 14.256C85.0993 14.616 85.1113 15.132 85.1113 15.804C85.1113 16.764 85.0993 17.628 85.0753 18.396C85.0033 19.548 84.9673 20.412 84.9673 20.988L85.0753 21.564L85.6513 21.528C85.8433 21.504 86.0833 21.492 86.3713 21.492C87.5233 21.492 88.0993 21.828 88.0993 22.5C88.0993 22.764 87.9913 22.992 87.7753 23.184C87.5593 23.352 87.2833 23.436 86.9473 23.436C86.5153 23.436 86.1793 23.412 85.9393 23.364H85.0393C85.0873 23.988 85.1113 24.9 85.1113 26.1C85.1113 27.3 85.0993 28.38 85.0753 29.34C85.0033 30.804 84.9673 31.896 84.9673 32.616C84.9673 33.96 84.9913 34.632 85.0393 34.632L86.2273 34.596C86.6353 34.572 87.1273 34.56 87.7033 34.56C88.6153 34.56 89.0713 34.848 89.0713 35.424C89.0713 35.76 88.9153 36.012 88.6033 36.18C88.3153 36.372 87.9553 36.468 87.5233 36.468H84.4633ZM106.704 36.324C106.152 36.324 105.744 36.24 105.48 36.072C105.216 35.904 105.084 35.592 105.084 35.136C105.084 34.416 104.964 33.192 104.724 31.464L104.58 30.708L101.016 30.168C100.872 30.72 100.668 31.836 100.404 33.516C100.26 34.692 100.032 35.472 99.72 35.856C99.552 36.072 99.312 36.18 99 36.18C98.712 36.18 98.448 36.096 98.208 35.928C97.968 35.736 97.848 35.508 97.848 35.244L97.92 35.064L97.956 34.92C99.54 28.752 100.74 22.668 101.556 16.668C101.556 16.572 101.568 16.416 101.592 16.2C101.616 15.96 101.64 15.624 101.664 15.192C101.736 14.304 101.808 13.596 101.88 13.068C101.976 12.54 102.12 12.144 102.312 11.88H103.536C103.872 11.88 104.16 11.964 104.4 12.132C104.64 12.276 104.76 12.492 104.76 12.78C104.76 14.604 105.012 17.316 105.516 20.916C105.996 24.612 106.236 27.204 106.236 28.692C106.236 28.836 106.296 29.208 106.416 29.808C106.536 30.36 106.596 30.72 106.596 30.888C106.596 31.056 106.716 31.776 106.956 33.048C107.172 34.2 107.28 34.944 107.28 35.28V35.316C107.28 35.844 107.088 36.18 106.704 36.324ZM104.328 29.412C104.256 29.052 104.22 28.608 104.22 28.08C104.22 25.92 104.028 23.16 103.644 19.8L103.284 16.056C102.252 21.696 101.544 25.956 101.16 28.836C101.52 29.076 102.576 29.268 104.328 29.412ZM120.198 36.108C119.91 36.108 119.694 36.036 119.55 35.892C119.406 35.724 119.298 35.448 119.226 35.064L119.01 34.38V34.308V34.2C119.01 33.408 118.182 30.708 116.526 26.1C114.894 21.492 113.61 18.084 112.674 15.876V33.984L112.818 34.236C112.842 34.284 112.89 34.368 112.962 34.488C113.034 34.608 113.07 34.728 113.07 34.848C113.07 35.16 112.962 35.424 112.746 35.64C112.53 35.856 112.266 35.964 111.954 35.964C111.186 35.964 110.802 35.232 110.802 33.768L110.766 27.612C110.742 25.764 110.73 23.7 110.73 21.42C110.73 20.652 110.766 19.536 110.838 18.072C110.91 16.56 110.946 15.444 110.946 14.724C110.946 13.596 111.378 12.708 112.242 12.06V12.276C112.386 12.228 112.482 12.204 112.53 12.204C113.082 12.204 113.778 13.164 114.618 15.084C115.29 16.62 115.89 18.24 116.418 19.944C116.97 21.648 117.69 24.072 118.578 27.216L118.938 28.512C119.49 30.456 119.91 31.848 120.198 32.688C120.678 27.528 120.918 21.432 120.918 14.4V13.932C120.894 13.788 120.882 13.632 120.882 13.464C120.882 12.744 121.17 12.384 121.746 12.384C122.082 12.384 122.334 12.516 122.502 12.78C122.694 13.044 122.79 13.38 122.79 13.788V16.488C122.742 20.184 122.598 24.192 122.358 28.512C122.118 32.832 121.83 35.268 121.494 35.82C120.798 36.012 120.366 36.108 120.198 36.108ZM141.263 36.324C140.711 36.324 140.303 36.24 140.039 36.072C139.775 35.904 139.643 35.592 139.643 35.136C139.643 34.416 139.523 33.192 139.283 31.464L139.139 30.708L135.575 30.168C135.431 30.72 135.227 31.836 134.963 33.516C134.819 34.692 134.591 35.472 134.279 35.856C134.111 36.072 133.871 36.18 133.559 36.18C133.271 36.18 133.007 36.096 132.767 35.928C132.527 35.736 132.407 35.508 132.407 35.244L132.479 35.064L132.515 34.92C134.099 28.752 135.299 22.668 136.115 16.668C136.115 16.572 136.127 16.416 136.151 16.2C136.175 15.96 136.199 15.624 136.223 15.192C136.295 14.304 136.367 13.596 136.439 13.068C136.535 12.54 136.679 12.144 136.871 11.88H138.095C138.431 11.88 138.719 11.964 138.959 12.132C139.199 12.276 139.319 12.492 139.319 12.78C139.319 14.604 139.571 17.316 140.075 20.916C140.555 24.612 140.795 27.204 140.795 28.692C140.795 28.836 140.855 29.208 140.975 29.808C141.095 30.36 141.155 30.72 141.155 30.888C141.155 31.056 141.275 31.776 141.515 33.048C141.731 34.2 141.839 34.944 141.839 35.28V35.316C141.839 35.844 141.647 36.18 141.263 36.324ZM138.887 29.412C138.815 29.052 138.779 28.608 138.779 28.08C138.779 25.92 138.587 23.16 138.203 19.8L137.843 16.056C136.811 21.696 136.103 25.956 135.719 28.836C136.079 29.076 137.135 29.268 138.887 29.412ZM149.752 36.504C149.224 36.504 148.66 36.42 148.06 36.252C147.484 36.108 147.04 35.94 146.728 35.748C145.12 34.716 144.316 31.896 144.316 27.288V26.316V25.2V24.336C144.316 23.376 144.328 22.524 144.352 21.78C144.376 21.012 144.424 20.184 144.496 19.296C144.568 18.36 144.676 17.604 144.82 17.028C144.964 16.428 145.204 15.756 145.54 15.012C145.828 14.316 146.176 13.776 146.584 13.392C147.016 13.008 147.568 12.684 148.24 12.42C148.84 12.156 149.584 12.024 150.472 12.024C150.832 12.024 151.108 12.108 151.3 12.276C151.492 12.444 151.588 12.66 151.588 12.924C151.588 13.164 151.504 13.38 151.336 13.572C151.192 13.764 151.012 13.872 150.796 13.896H149.104C148.624 13.896 148.204 14.196 147.844 14.796C147.484 15.396 147.232 16.176 147.088 17.136C146.776 18.912 146.62 20.352 146.62 21.456V21.636L146.548 25.092C146.5 26.124 146.476 27.288 146.476 28.584C146.476 29.496 146.512 30.24 146.584 30.816C146.704 31.68 146.908 32.4 147.196 32.976C147.484 33.624 147.976 34.092 148.672 34.38C149.032 34.524 149.428 34.596 149.86 34.596C150.124 34.596 150.388 34.5 150.652 34.308C150.964 34.308 151.216 34.38 151.408 34.524C151.624 34.644 151.732 34.836 151.732 35.1C151.732 36.036 151.072 36.504 149.752 36.504ZM159.807 36.504C159.279 36.504 158.715 36.42 158.115 36.252C157.539 36.108 157.095 35.94 156.783 35.748C155.175 34.716 154.371 31.896 154.371 27.288V26.316V25.2V24.336C154.371 23.376 154.383 22.524 154.407 21.78C154.431 21.012 154.479 20.184 154.551 19.296C154.623 18.36 154.731 17.604 154.875 17.028C155.019 16.428 155.259 15.756 155.595 15.012C155.883 14.316 156.231 13.776 156.639 13.392C157.071 13.008 157.623 12.684 158.295 12.42C158.895 12.156 159.639 12.024 160.527 12.024C160.887 12.024 161.163 12.108 161.355 12.276C161.547 12.444 161.643 12.66 161.643 12.924C161.643 13.164 161.559 13.38 161.391 13.572C161.247 13.764 161.067 13.872 160.851 13.896H159.159C158.679 13.896 158.259 14.196 157.899 14.796C157.539 15.396 157.287 16.176 157.143 17.136C156.831 18.912 156.675 20.352 156.675 21.456V21.636L156.603 25.092C156.555 26.124 156.531 27.288 156.531 28.584C156.531 29.496 156.567 30.24 156.639 30.816C156.759 31.68 156.963 32.4 157.251 32.976C157.539 33.624 158.031 34.092 158.727 34.38C159.087 34.524 159.483 34.596 159.915 34.596C160.179 34.596 160.443 34.5 160.707 34.308C161.019 34.308 161.271 34.38 161.463 34.524C161.679 34.644 161.787 34.836 161.787 35.1C161.787 36.036 161.127 36.504 159.807 36.504ZM169.25 36.684C168.626 36.684 168.05 36.48 167.522 36.072C166.994 35.688 166.562 35.16 166.226 34.488C165.53 33.024 165.098 31.428 164.93 29.7C164.714 28.068 164.606 26.496 164.606 24.984C164.606 24.696 164.618 24.456 164.642 24.264V23.616C164.642 23.496 164.63 23.436 164.606 23.436V22.788L164.642 20.268C164.666 19.5 164.762 18.276 164.93 16.596C165.05 15.444 165.326 14.328 165.758 13.248C165.926 12.768 166.142 12.408 166.406 12.168C166.67 11.904 166.97 11.772 167.306 11.772C168.266 11.772 169.13 11.952 169.898 12.312C170.666 12.648 171.314 13.128 171.842 13.752C172.322 14.352 172.73 15.096 173.066 15.984C173.402 16.848 173.642 17.772 173.786 18.756C173.93 19.764 174.002 20.832 174.002 21.96V22.248C174.002 22.992 174.014 23.664 174.038 24.264L174.074 26.316C174.074 33.228 172.466 36.684 169.25 36.684ZM169.106 35.172C169.538 35.172 169.934 35.004 170.294 34.668C170.654 34.308 170.93 33.828 171.122 33.228C171.578 32.004 171.854 30.684 171.95 29.268C172.07 28.044 172.13 26.988 172.13 26.1C172.13 25.02 172.046 23.604 171.878 21.852C171.734 20.004 171.662 18.624 171.662 17.712V17.064C171.614 16.152 171.302 15.36 170.726 14.688C170.174 14.016 169.49 13.68 168.674 13.68C167.858 13.68 167.318 14.148 167.054 15.084C166.814 15.828 166.694 16.788 166.694 17.964C166.694 18.42 166.706 18.804 166.73 19.116V20.088L166.658 21.744C166.61 22.248 166.586 22.8 166.586 23.4C166.586 24.696 166.622 25.98 166.694 27.252C166.79 29.052 167.03 30.804 167.414 32.508C167.798 34.284 168.362 35.172 169.106 35.172ZM181.862 36.54C181.286 36.54 180.77 36.408 180.314 36.144C179.858 35.904 179.486 35.544 179.198 35.064C178.622 34.056 178.25 32.916 178.082 31.644C177.914 30.54 177.83 29.22 177.83 27.684C177.758 25.092 177.722 21.924 177.722 18.18L177.686 15.408C177.662 15.264 177.65 15.024 177.65 14.688C177.602 13.776 177.578 13.224 177.578 13.032C177.794 12.528 178.046 12.276 178.334 12.276C178.622 12.276 178.874 12.492 179.09 12.924C179.33 13.356 179.45 13.824 179.45 14.328V24.12C179.45 25.08 179.534 26.352 179.702 27.936C179.87 29.904 179.954 31.176 179.954 31.752C179.954 33.528 180.71 34.416 182.222 34.416C183.95 34.416 184.814 27.96 184.814 15.048V13.032V12.708C184.79 12.636 184.778 12.54 184.778 12.42C184.778 12.132 184.838 11.928 184.958 11.808C185.102 11.664 185.366 11.592 185.75 11.592C186.062 11.592 186.302 11.688 186.47 11.88C186.662 12.048 186.782 12.252 186.83 12.492C186.854 12.636 186.866 12.912 186.866 13.32C186.866 13.704 186.83 14.316 186.758 15.156C186.662 15.852 186.614 16.452 186.614 16.956C186.614 17.508 186.59 18 186.542 18.432L186.47 19.944V20.232C186.494 20.328 186.506 20.436 186.506 20.556C186.506 31.212 184.958 36.54 181.862 36.54ZM200.846 36.108C200.558 36.108 200.342 36.036 200.198 35.892C200.054 35.724 199.946 35.448 199.874 35.064L199.658 34.38V34.308V34.2C199.658 33.408 198.83 30.708 197.174 26.1C195.542 21.492 194.258 18.084 193.322 15.876V33.984L193.466 34.236C193.49 34.284 193.538 34.368 193.61 34.488C193.682 34.608 193.718 34.728 193.718 34.848C193.718 35.16 193.61 35.424 193.394 35.64C193.178 35.856 192.914 35.964 192.602 35.964C191.834 35.964 191.45 35.232 191.45 33.768L191.414 27.612C191.39 25.764 191.378 23.7 191.378 21.42C191.378 20.652 191.414 19.536 191.486 18.072C191.558 16.56 191.594 15.444 191.594 14.724C191.594 13.596 192.026 12.708 192.89 12.06V12.276C193.034 12.228 193.13 12.204 193.178 12.204C193.73 12.204 194.426 13.164 195.266 15.084C195.938 16.62 196.538 18.24 197.066 19.944C197.618 21.648 198.338 24.072 199.226 27.216L199.586 28.512C200.138 30.456 200.558 31.848 200.846 32.688C201.326 27.528 201.566 21.432 201.566 14.4V13.932C201.542 13.788 201.53 13.632 201.53 13.464C201.53 12.744 201.818 12.384 202.394 12.384C202.73 12.384 202.982 12.516 203.15 12.78C203.342 13.044 203.438 13.38 203.438 13.788V16.488C203.39 20.184 203.246 24.192 203.006 28.512C202.766 32.832 202.478 35.268 202.142 35.82C201.446 36.012 201.014 36.108 200.846 36.108ZM210.261 35.424L210.225 34.02C210.201 33.612 210.189 33.156 210.189 32.652L210.225 31.428C210.153 31.164 209.973 28.536 209.685 23.544C209.397 18.552 209.229 15.348 209.181 13.932C207.789 13.884 206.901 13.74 206.517 13.5C206.253 13.308 206.121 13.092 206.121 12.852C206.121 12.66 206.241 12.492 206.481 12.348C206.745 12.18 207.009 12.096 207.273 12.096C207.945 12.096 208.761 12.144 209.721 12.24C210.633 12.36 211.449 12.42 212.169 12.42H212.457H212.745C213.489 12.42 213.861 12.708 213.861 13.284C213.861 13.572 213.741 13.812 213.501 14.004C213.261 14.172 212.985 14.256 212.673 14.256C212.457 14.256 212.145 14.22 211.737 14.148L211.017 14.004L210.981 14.184L210.945 14.364C210.945 16.5 211.149 19.908 211.557 24.588C211.941 28.98 212.133 32.388 212.133 34.812C212.133 35.1 212.001 35.352 211.737 35.568C211.497 35.784 211.221 35.892 210.909 35.892L210.261 35.424Z" fill="#F9F8F4"/>
</svg>
