<svg width="375" height="161" viewBox="0 0 375 161" fill="none" xmlns="http://www.w3.org/2000/svg">
<path d="M0 37.0221C0 39.0564 0.252185 42.9343 0.756554 48.6557C1.26092 54.4195 1.51311 58.7 1.51311 61.4971C1.51311 66.0319 1.45006 72.8552 1.32397 81.9671C1.19788 91.0367 1.13483 97.8812 1.13483 102.501C1.13483 113.859 2.22763 119.538 4.41323 119.538H13.7441C15.9297 118.394 17.9261 117.08 19.7335 115.596C21.4988 114.071 22.9488 112.566 24.0836 111.083C25.2605 109.557 26.2692 107.841 27.1099 105.934C27.9505 103.984 28.602 102.14 29.0643 100.403C29.5266 98.6229 29.8839 96.5674 30.1361 94.2364C30.3883 92.0326 30.5354 90.0407 30.5774 88.2607C30.6615 86.4383 30.7035 84.065 30.7035 81.1407V73.9571L30.8296 70.5243L30.9557 67.4093C30.9557 64.1883 30.5564 60.9886 29.7578 57.81C28.9592 54.589 27.7824 51.4952 26.2272 48.5286C24.6721 45.5195 22.8227 42.8283 20.6792 40.455C18.5356 38.0817 16.0558 36.2169 13.2397 34.8607C10.4236 33.4621 7.52351 32.7629 4.53933 32.7629C3.40449 32.7629 2.35372 33.2079 1.38702 34.0979C0.462339 34.9455 0 35.9202 0 37.0221ZM10.1504 109.811C10.1504 103.412 9.83521 93.8338 9.20474 81.0771C8.53225 68.7019 8.196 59.1238 8.196 52.3429C8.196 46.7486 8.51124 42.235 9.1417 38.8021C19.145 39.9888 24.1467 53.6779 24.1467 79.8693C24.1467 81.8612 24.1257 83.3657 24.0836 84.3829C23.9996 86.0357 23.8315 87.9852 23.5793 90.2314C23.3691 92.4776 23.0749 94.5331 22.6966 96.3979C22.2763 98.5169 21.7089 100.615 20.9944 102.691C20.2799 104.726 19.4813 106.442 18.5986 107.841C17.5899 109.366 16.35 110.595 14.8789 111.528C13.4078 112.46 11.8317 112.926 10.1504 112.926V109.811Z" fill="#656665"/>
<path d="M75.9707 121C76.8113 121 77.5048 120.682 78.0512 120.046C78.5976 119.411 78.8708 118.627 78.8708 117.694C78.8708 117.101 78.7657 116.508 78.5556 115.914C78.3454 115.279 78.0092 114.516 77.5468 113.626L76.7272 111.973C75.13 108.498 73.764 104.662 72.6292 100.466C71.4944 96.2283 70.3385 90.8671 69.1617 84.3829L66.7029 71.9864L68.7203 68.1721L71.1791 63.4679C71.6835 62.2812 72.1669 60.8614 72.6292 59.2086C73.0916 57.5557 73.3227 56.1148 73.3227 54.8857V45.7314C73.3227 42.8495 72.6292 40.3914 71.2422 38.3571C69.8552 36.2805 67.9428 34.7124 65.505 33.6529C63.1092 32.551 60.3983 32 57.372 32C54.5139 32 53.0849 34.0555 53.0849 38.1664C53.0849 46.0069 53.4632 57.8736 54.2197 73.7664C54.9342 90.1255 55.2915 101.971 55.2915 109.303L55.1654 118.012L56.8677 119.919H60.4613L61.9114 116.423C60.2722 109.811 59.4526 100.763 59.4526 89.2779C59.4526 86.5655 59.4736 84.171 59.5156 82.0943C59.5576 80.0176 59.5786 77.7079 59.5786 75.165H61.1548C61.9114 77.0298 63.4875 84.1286 65.8833 96.4614L66.7659 100.848C67.8167 106.061 69.1617 110.68 70.8009 114.706C72.4401 118.902 74.1633 121 75.9707 121ZM66.892 48.9736C66.892 51.1774 66.5978 53.7202 66.0094 56.6021C65.4209 59.4417 64.6013 62.0057 63.5506 64.2943C62.5418 66.5829 61.407 68.0662 60.1461 68.7443C60.1461 64.93 60.062 60.035 59.8939 54.0593C59.7258 48.126 59.6417 42.9979 59.6417 38.675C59.6417 38.4207 59.7258 38.0605 59.8939 37.5943L60.083 36.8314C61.5961 36.8738 62.836 37.2764 63.8027 38.0393C64.8115 38.7598 65.526 39.7981 65.9463 41.1543C66.3246 42.5105 66.5768 43.7607 66.7029 44.905C66.829 46.0069 66.892 47.3631 66.892 48.9736Z" fill="#656665"/>
<path d="M112.79 103.136C112.79 100.805 112.685 96.2071 112.474 89.3414C112.264 82.4757 112.159 77.8562 112.159 75.4829C112.159 72.6857 112.285 68.5324 112.537 63.0229C112.748 56.8776 112.853 52.7455 112.853 50.6264C112.853 46.3883 112.685 42.3621 112.348 38.5479H118.968C119.935 38.5479 120.797 38.2088 121.553 37.5307C122.31 36.8526 122.688 36.111 122.688 35.3057C122.688 34.5852 122.268 33.9283 121.427 33.335C120.628 32.8264 119.304 32.5721 117.455 32.5721H102.072C97.8267 32.5721 95.7041 33.5681 95.7041 35.56C95.7041 36.8738 96.0404 37.785 96.7129 38.2936C97.3853 38.8021 98.3941 39.0564 99.7391 39.0564C100.285 39.0564 100.79 39.0352 101.252 38.9929C101.715 38.9505 102.198 38.9293 102.702 38.9293H105.161C105.581 43.125 105.792 47.7869 105.792 52.915C105.792 55.4579 105.686 60.2893 105.476 67.4093C105.224 73.8088 105.098 78.6402 105.098 81.9036C105.098 85.3364 105.245 89.9348 105.539 95.6986C105.834 101.462 105.981 106.082 105.981 109.557L105.855 110.447L105.728 111.274H102.072C101.567 111.316 101.063 111.719 100.559 112.481C100.054 113.202 99.8021 113.944 99.8021 114.706C99.8021 116.656 101.336 117.631 104.404 117.631L105.981 117.504C106.947 117.673 109.448 117.758 113.483 117.758H119.157C120.292 117.758 121.28 117.376 122.12 116.614C123.003 115.808 123.444 114.855 123.444 113.753C123.444 111.591 121.679 110.511 118.149 110.511C117.35 110.511 116.677 110.532 116.131 110.574C115.585 110.617 115.017 110.638 114.429 110.638H112.727C112.727 110.002 112.748 109.409 112.79 108.858V107.014V103.136Z" fill="#656665"/>
<path d="M153.202 67.4093C153.202 64.146 153.412 59.7383 153.833 54.1864C154.211 48.3802 154.4 44.0786 154.4 41.2814V39.7557H155.913C158.645 39.7557 160.894 40.1795 162.659 41.0271C167.03 41.0271 169.216 39.7981 169.216 37.34C169.216 36.2381 168.543 35.3057 167.198 34.5429C165.896 33.7376 164.13 33.1655 161.903 32.8264C158.456 32.3179 155.241 32.0636 152.257 32.0636C150.912 32.0636 149.735 32.4238 148.726 33.1443C147.759 33.8224 147.276 34.7548 147.276 35.9414C147.276 41.0271 147.108 46.9181 146.772 53.6143V56.7929C146.477 61.7514 146.183 71.0964 145.889 84.8279C145.511 98.8136 144.964 109.854 144.25 117.949C145.931 119.262 147.465 119.919 148.852 119.919C151.08 119.919 152.194 118.012 152.194 114.198V77.3264C153.749 77.835 155.451 78.0893 157.3 78.0893C158.519 78.0893 159.57 77.729 160.453 77.0086C161.377 76.2881 161.84 75.3769 161.84 74.275C161.84 71.9864 159.759 70.8421 155.598 70.8421H154.274L153.202 70.9057V67.4093Z" fill="#656665"/>
<path d="M201.18 111.655L201.306 116.677L203.702 118.394C204.837 118.394 205.846 118.012 206.728 117.249C207.653 116.444 208.115 115.533 208.115 114.516C208.115 105.997 207.401 93.6643 205.972 77.5171C204.543 61.37 203.828 49.0583 203.828 40.5821L203.954 39.8193L204.081 39.2471L206.665 39.6921C208.01 39.9888 209.124 40.1371 210.007 40.1371C211.142 40.1371 212.129 39.7981 212.97 39.12C213.853 38.4419 214.294 37.5943 214.294 36.5771C214.294 34.5005 212.949 33.4621 210.259 33.4621H209.187C208.893 33.5045 208.557 33.5257 208.179 33.5257C206.077 33.5257 203.156 33.3138 199.415 32.89C195.506 32.5086 192.585 32.3179 190.652 32.3179C189.685 32.3179 188.76 32.5933 187.878 33.1443C186.995 33.6952 186.554 34.3521 186.554 35.115C186.554 36.005 186.995 36.7467 187.878 37.34C189.349 38.3148 192.564 38.8657 197.524 38.9929C197.65 43.8243 198.217 55.3307 199.226 73.5121C200.235 91.6512 200.907 101.229 201.243 102.246L201.054 106.696L201.18 111.655Z" fill="#656665"/>
<path d="M242.034 82.5393C242.034 80.0812 242.287 78.2588 242.791 77.0721C242.791 73.5545 242.728 68.3417 242.602 61.4336C242.476 54.4831 242.413 49.2702 242.413 45.795C242.413 44.566 242.56 42.9131 242.854 40.8364C243.148 38.7598 243.295 37.1069 243.295 35.8779C243.295 34.9879 242.959 34.225 242.287 33.5893C241.656 32.9536 240.899 32.6357 240.017 32.6357C237.033 32.6357 235.541 36.7467 235.541 44.9686C235.541 47.681 235.793 51.7495 236.297 57.1743V58.1279C236.297 65.0783 236.024 74.7624 235.478 87.18C234.931 99.6824 234.658 109.388 234.658 116.296C234.658 117.355 235.015 118.33 235.73 119.22C236.486 120.11 237.348 120.555 238.315 120.555C239.912 120.555 241.383 120.152 242.728 119.347C247.267 119.347 251.113 119.856 254.265 120.873C255.316 120.746 256.22 120.364 256.976 119.729C257.775 119.093 258.174 118.33 258.174 117.44C258.174 114.897 255.862 113.626 251.239 113.626C250.062 113.626 249.074 113.647 248.276 113.689L245.88 113.816C242.98 113.816 241.53 110.829 241.53 104.853C241.53 101.929 241.614 98.4533 241.782 94.4271C241.95 90.401 242.034 86.9681 242.034 84.1286V82.5393Z" fill="#656665"/>
<path d="M295.497 72.6221C295.54 68.4688 296.821 62.1752 299.343 53.7414C301.781 45.6043 303 39.3319 303 34.9243C303 34.1614 302.664 33.5257 301.991 33.0171C301.361 32.4662 300.646 32.1907 299.848 32.1907C298.166 32.1907 296.653 34.331 295.308 38.6114C293.921 43.019 292.744 47.914 291.778 53.2964C290.811 58.6788 290.139 61.921 289.76 63.0229C289.55 62.2176 289.067 60.4376 288.31 57.6829C287.596 54.8857 286.692 51.7707 285.599 48.3379C284.548 44.8626 283.54 42.0019 282.573 39.7557C280.934 36.0262 279.379 34.119 277.908 34.0343L275.007 36.1957V36.895C275.007 38.4207 275.806 41.5357 277.403 46.24C278.748 50.139 280.556 55.0764 282.825 61.0521C285.137 66.9855 286.734 71.0329 287.617 73.1943V76.5636C287.659 77.7926 287.932 80.844 288.436 85.7179C288.899 90.1679 289.13 93.4736 289.13 95.635C289.13 108.392 288.646 115.745 287.68 117.694C288.52 119.601 289.718 120.555 291.273 120.555C294.089 120.555 295.497 117.652 295.497 111.846V72.6221Z" fill="#656665"/>
<path d="M33.5508 159.716C33.2484 159.716 33.0648 159.463 33 158.959C33.0432 158.827 33.0648 158.465 33.0648 157.872C33.0648 155.852 33.0972 152.856 33.162 148.883C33.2268 144.932 33.2592 142.078 33.2592 140.322L33.324 139.137L33.4212 138.149C33.4212 137.995 33.4968 137.918 33.648 137.918C33.756 137.918 33.9072 137.951 34.1016 138.017L34.1988 138.05C34.1988 138.533 34.188 138.972 34.1664 139.367V140.651V144.24C34.188 145.294 34.1988 146.49 34.1988 147.829C34.1772 147.939 34.1664 148.18 34.1664 148.554L34.134 149.245C34.1124 149.684 34.1016 150.134 34.1016 150.595C34.1016 151.1 34.1124 151.561 34.134 151.978L34.1664 153.394L34.0692 153.657L34.1016 153.624C34.1016 153.69 34.0908 153.734 34.0692 153.756V153.888C34.0692 154.063 34.1016 154.217 34.1664 154.349L34.0692 157.51V157.707C34.0692 158.08 34.08 158.3 34.1016 158.366C34.1016 158.476 34.1556 158.53 34.2636 158.53L35.9483 158.596C36.4451 158.596 36.7799 158.607 36.9527 158.629C37.1471 158.629 37.2659 158.629 37.3091 158.629H37.4063C37.5143 158.629 37.6222 158.695 37.7302 158.827C37.8382 158.937 37.8922 159.057 37.8922 159.189C37.8922 159.452 37.7194 159.595 37.3739 159.617C37.0067 159.595 36.1103 159.584 34.6847 159.584L34.7495 159.617C34.5335 159.617 34.3284 159.628 34.134 159.65C33.9612 159.694 33.7668 159.716 33.5508 159.716Z" fill="#A6ACA8"/>
<path d="M41.6513 159.716C41.2625 159.716 41.0465 159.485 41.0033 159.024V158.596C41.0249 158.487 41.0357 158.355 41.0357 158.201L40.9061 158.07C41.0789 157.609 41.1653 157.159 41.1653 156.72C41.1653 156.215 41.1329 155.49 41.0681 154.546L41.0033 152.373C41.0033 151.276 41.0357 149.629 41.1005 147.434C41.1869 145.48 41.2301 143.823 41.2301 142.462L41.1653 140.487C41.1221 139.894 41.1005 139.235 41.1005 138.511C41.1005 138.182 41.1761 137.951 41.3273 137.82C41.4785 137.666 41.7161 137.589 42.0401 137.589C42.256 137.589 42.4288 137.655 42.5584 137.787C42.6016 137.809 42.9148 137.852 43.498 137.918C44.038 137.984 44.5024 138.083 44.8912 138.215C45.3015 138.346 45.5067 138.511 45.5067 138.709C45.5067 138.928 45.3015 139.148 44.8912 139.367C43.66 138.95 42.7852 138.741 42.2668 138.741L42.1049 138.939C42.1265 139.137 42.1373 139.609 42.1373 140.355C42.1373 141.299 42.1157 142.144 42.0725 142.89C42.0509 143.659 42.0401 144.515 42.0401 145.459C42.0401 146.073 42.1913 146.38 42.4936 146.38L43.012 146.348C43.1848 146.326 43.3684 146.315 43.5628 146.315C44.4052 146.315 44.8264 146.512 44.8264 146.907C44.8264 147.149 44.7724 147.357 44.6644 147.533C44.5564 147.687 44.3944 147.763 44.1784 147.763C43.8544 147.763 43.606 147.676 43.4332 147.5L42.3964 147.335H42.2344L42.0725 147.5V147.599C42.1157 147.972 42.1373 148.839 42.1373 150.2C42.1373 151.056 42.1265 151.835 42.1049 152.538L42.0725 154.876C42.0725 155.732 42.1049 156.61 42.1697 157.51C42.1913 158.015 42.2992 158.355 42.4936 158.53C42.688 158.684 43.0444 158.761 43.5628 158.761L44.146 158.728C44.3404 158.706 44.5564 158.695 44.794 158.695C45.4203 158.695 45.7335 158.838 45.7335 159.123C45.7335 159.518 45.2583 159.716 44.308 159.716H41.6513Z" fill="#A6ACA8"/>
<path d="M51.4636 158.827L51.4312 157.609C51.4096 157.257 51.3988 156.862 51.3988 156.423C51.3988 156.204 51.4096 156.017 51.4312 155.863L51.4636 155.271C51.4636 155.051 51.4204 154.788 51.334 154.48C51.334 153.01 51.226 150.277 51.01 146.282C50.794 142.418 50.6752 139.795 50.6536 138.412C49.3145 138.412 48.4181 138.379 47.9645 138.313C47.5325 138.204 47.3165 138.028 47.3165 137.787C47.4245 137.545 47.6297 137.424 47.9321 137.424C48.5801 137.424 49.5196 137.468 50.7508 137.556C51.874 137.666 52.8135 137.721 53.5695 137.721H54.2499L54.9303 137.688C55.319 137.688 55.5134 137.83 55.5134 138.116C55.5134 138.248 55.4378 138.357 55.2867 138.445C55.1571 138.511 54.9951 138.544 54.8007 138.544C54.3687 138.544 53.9151 138.522 53.4399 138.478L52.0468 138.412C51.9604 138.412 51.9172 138.445 51.9172 138.511C51.8956 138.577 51.8848 138.785 51.8848 139.137C51.8848 141.266 52.0144 144.493 52.2736 148.817C52.5111 153.295 52.6299 156.511 52.6299 158.465C52.6299 158.618 52.5327 158.761 52.3384 158.893C52.1656 159.024 51.9928 159.09 51.82 159.09L51.4636 158.827Z" fill="#A6ACA8"/>
<path d="M59.2353 139.532C59.1705 139.444 59.1381 139.279 59.1381 139.038C59.1381 138.423 59.3973 137.26 59.9156 135.548C60.2396 134.538 60.5312 134.022 60.7904 134H60.8552C60.9848 134 61.0928 134.055 61.1792 134.165C61.2656 134.252 61.3196 134.362 61.3412 134.494C61.3628 134.823 61.352 135.13 61.3088 135.416C61.2656 135.679 61.2008 135.943 61.1144 136.206C61.0496 136.47 61.0064 136.656 60.9848 136.766C60.7904 137.402 60.4772 138.182 60.0452 139.104C59.8508 139.477 59.6565 139.663 59.4621 139.663C59.3973 139.663 59.3217 139.62 59.2353 139.532Z" fill="#A6ACA8"/>
<path d="M65.3432 159.683C65.1056 159.639 64.8788 159.54 64.6628 159.387C64.4469 159.255 64.3281 159.09 64.3065 158.893L64.4684 158.629C64.5548 158.629 64.7492 158.662 65.0516 158.728C65.2892 158.816 65.4836 158.86 65.6348 158.86C66.11 158.86 66.5312 158.673 66.8984 158.3C67.2656 157.905 67.5463 157.4 67.7407 156.785C68.0431 155.644 68.1943 154.568 68.1943 153.559C68.1943 152.044 67.7407 150.42 66.8336 148.685C66.272 147.676 65.84 146.874 65.5376 146.282C65.2352 145.689 64.9652 145.009 64.7276 144.24C64.4468 143.34 64.3065 142.473 64.3065 141.639C64.3065 140.849 64.5008 139.916 64.8896 138.84C65.084 138.335 65.354 137.929 65.6996 137.622C66.0668 137.293 66.4556 137.128 66.866 137.128C67.1468 137.128 67.4168 137.227 67.6759 137.424C67.9567 137.622 68.0971 137.83 68.0971 138.05C68.0971 138.226 67.9567 138.313 67.6759 138.313C67.5895 138.313 67.4815 138.28 67.352 138.215C67.2224 138.149 67.1036 138.116 66.9956 138.116C66.6716 138.116 66.38 138.248 66.1208 138.511C65.8616 138.774 65.6672 139.115 65.5376 139.532C65.2784 140.344 65.1488 141.09 65.1488 141.771C65.1488 142.188 65.2028 142.616 65.3108 143.055C65.3324 143.187 65.354 143.296 65.3756 143.384C65.3972 143.472 65.408 143.538 65.408 143.582L65.6024 144.24L65.7644 144.833L66.0236 145.426C66.0884 145.579 66.1532 145.722 66.218 145.854C66.3044 145.963 66.38 146.073 66.4448 146.183L66.8336 146.874C66.92 147.006 67.1036 147.324 67.3843 147.829C67.6651 148.312 67.9243 148.828 68.1619 149.377C68.3779 149.838 68.5399 150.277 68.6479 150.694C68.7559 151.089 68.8531 151.572 68.9395 152.143C69.0043 152.691 69.0367 153.295 69.0367 153.954C69.0367 155.007 68.8963 155.995 68.6155 156.917C68.2267 158.015 67.6651 158.783 66.9308 159.222C66.5204 159.485 66.0452 159.617 65.5052 159.617L65.3432 159.683ZM67.9351 138.215C67.9351 138.193 67.9243 138.182 67.9027 138.182V138.215H67.9351Z" fill="#A6ACA8"/>
<path d="M78.5293 159.255C78.7453 157.257 78.8533 154.59 78.8533 151.254C78.8533 149.783 78.9181 147.566 79.0477 144.602C79.1989 141.859 79.2745 139.652 79.2745 137.984C79.2745 137.787 79.3609 137.633 79.5337 137.523C79.7281 137.413 79.9441 137.359 80.1817 137.359C80.9376 137.359 81.7692 137.446 82.6764 137.622C83.5835 137.798 84.0371 138.028 84.0371 138.313C84.0371 138.687 83.6591 138.873 82.9032 138.873C82.428 138.654 81.8232 138.544 81.0888 138.544L80.7 138.577C80.6352 138.599 80.5812 138.632 80.5381 138.676C80.5165 138.72 80.4949 138.785 80.4733 138.873C80.4301 139.049 80.3869 139.17 80.3437 139.235C80.3437 140.223 80.3005 141.387 80.2141 142.726C80.1061 144.021 80.0521 145.173 80.0521 146.183V147.335C80.0521 147.423 80.2249 147.456 80.5705 147.434C81.672 147.434 82.2228 147.61 82.2228 147.961C82.2228 148.137 82.1364 148.29 81.9636 148.422C81.8124 148.532 81.6396 148.587 81.4452 148.587C81.3156 148.587 81.132 148.554 80.8944 148.488C80.6784 148.422 80.4948 148.389 80.3437 148.389C79.9549 148.389 79.7605 148.927 79.7605 150.002V153.723C79.7605 154.25 79.7929 155.029 79.8577 156.061C79.9225 157.115 79.9549 157.905 79.9549 158.432C79.9549 159.31 79.6957 159.749 79.1773 159.749L78.5293 159.255ZM89.059 159.288C88.5622 159.288 88.2706 159.178 88.1842 158.959C88.0762 158.959 87.9898 158.97 87.925 158.991H87.6658C87.1906 158.991 86.8882 158.882 86.7586 158.662C86.7586 158.509 86.845 158.377 87.0178 158.267L87.1798 158.102H88.1194L88.249 157.971L88.3138 157.674L88.3462 157.279C88.3462 155.94 88.3138 154.744 88.249 153.69L88.1842 152.472L88.1194 150.068C88.1194 149.212 88.1518 147.928 88.2166 146.216L88.2814 142.396C88.2814 140.728 88.2274 139.455 88.1194 138.577C87.925 138.511 87.601 138.478 87.1474 138.478L86.791 138.511C86.6614 138.533 86.5211 138.544 86.3699 138.544C85.9595 138.544 85.7543 138.357 85.7543 137.984C85.7543 137.896 85.8515 137.809 86.0459 137.721C86.2403 137.633 86.4023 137.589 86.5319 137.589C87.3526 137.589 88.1734 137.633 88.9942 137.721C89.491 137.743 89.9877 137.841 90.4845 138.017C90.8733 138.149 91.0677 138.335 91.0677 138.577C91.0677 138.621 91.0353 138.709 90.9705 138.84L90.2253 138.906C90.0741 138.774 89.7609 138.709 89.2858 138.709L89.1238 138.807C89.1886 139.005 89.221 139.587 89.221 140.552C89.221 142.001 89.2102 143.307 89.1886 144.471L89.1238 148.389C89.1238 149.377 89.167 150.573 89.2534 151.978C89.3182 153.58 89.3506 154.788 89.3506 155.6V156.028C89.329 156.182 89.3182 156.379 89.3182 156.621C89.3182 157.126 89.3506 157.433 89.4153 157.543L89.383 157.609C89.383 157.828 89.6205 157.938 90.0957 157.938C90.2901 157.938 90.4521 157.927 90.5817 157.905H91.0677C91.6941 157.905 92.0073 158.059 92.0073 158.366C92.0073 158.563 91.9425 158.728 91.8129 158.86C91.6833 158.97 91.5105 159.024 91.2945 159.024C91.1001 159.024 90.9273 159.002 90.7761 158.959C90.6033 158.937 90.4197 158.926 90.2253 158.926C90.0957 158.926 89.9013 158.98 89.6421 159.09C89.3829 159.222 89.1886 159.288 89.059 159.288Z" fill="#A6ACA8"/>
<path d="M103.243 159.42C103.07 159.42 102.94 159.354 102.854 159.222C102.789 159.09 102.724 158.893 102.66 158.629C102.638 158.454 102.595 158.3 102.53 158.168L102.562 158.07C102.39 157.038 102.022 155.776 101.461 154.283L100.878 152.571C100.835 152.527 100.629 151.967 100.262 150.891L100.003 150.101C98.059 143.999 96.8387 140.695 96.3419 140.19C96.1691 140.783 96.0827 141.551 96.0827 142.495C96.0827 143 96.0935 143.439 96.1151 143.812L96.1475 145.096L96.1151 145.887C96.0935 146.128 96.0827 146.391 96.0827 146.677C96.0827 147.16 96.1043 147.577 96.1475 147.928C96.1907 148.63 96.2123 148.982 96.2123 148.982H96.1151C96.1151 152.648 96.1907 154.667 96.3419 155.04V158.004C96.4283 158.179 96.4715 158.41 96.4715 158.695C96.4715 158.871 96.4067 159.024 96.2771 159.156C96.1691 159.288 96.0287 159.354 95.8559 159.354C95.4023 159.354 95.1755 158.761 95.1755 157.576L95.2403 156.522C95.2835 156.193 95.3051 155.83 95.3051 155.435C95.3051 154.382 95.2727 152.801 95.2079 150.694C95.1431 148.587 95.1107 147.006 95.1107 145.952C95.1107 145.316 95.1431 144.339 95.2079 143.022C95.2727 141.727 95.3051 140.761 95.3051 140.124V139.696C95.3051 138.621 95.4995 137.918 95.8883 137.589L95.9855 137.688L96.3095 137.622C96.3959 137.644 96.4931 137.71 96.6011 137.82C96.6875 137.907 96.7307 138.006 96.7307 138.116L96.7955 138.313C96.7955 138.357 96.7955 138.401 96.7955 138.445C96.8171 138.467 96.8279 138.478 96.8279 138.478C97.1735 140.037 97.951 142.221 99.1606 145.03C100.392 147.994 101.159 149.959 101.461 150.924C101.677 151.693 101.85 152.373 101.979 152.966C102.39 154.832 102.876 156.27 103.437 157.279L103.502 157.18C103.999 152.307 104.247 146.326 104.247 139.235L104.215 138.84C104.193 138.73 104.182 138.588 104.182 138.412C104.182 137.951 104.334 137.721 104.636 137.721C104.83 137.721 104.992 137.82 105.122 138.017C105.273 138.215 105.349 138.434 105.349 138.676V140.882L105.187 141.145C105.187 143.23 105.068 146.655 104.83 151.418C104.593 156.182 104.366 158.772 104.15 159.189L103.599 159.321V159.354L103.567 159.321L103.243 159.42Z" fill="#A6ACA8"/>
<path d="M110.499 159.452C110.326 159.452 110.24 159.156 110.24 158.563C110.153 157.049 110.11 155.139 110.11 152.834C110.11 151.385 110.121 150.09 110.143 148.949L110.175 145.063C110.175 143.395 110.132 141.332 110.045 138.873C109.851 138.698 109.754 138.478 109.754 138.215C109.754 138.061 109.84 137.907 110.013 137.754C110.207 137.578 110.38 137.49 110.531 137.49C110.704 137.49 110.866 137.578 111.017 137.754L111.374 138.05C111.503 138.116 111.752 138.182 112.119 138.248C112.486 138.313 112.745 138.379 112.896 138.445C113.22 138.621 113.652 138.961 114.192 139.466C114.711 139.993 115.067 140.322 115.262 140.454L115.229 140.52C115.251 140.651 115.413 140.937 115.715 141.376C115.953 141.705 116.147 142.012 116.298 142.298C116.644 143.307 116.817 144.613 116.817 146.216C116.817 146.501 116.806 146.754 116.784 146.973V147.763V148.027L116.752 148.356C116.752 148.773 116.817 149.102 116.946 149.344C116.817 150.046 116.655 151.374 116.46 153.328C116.396 153.899 116.288 154.502 116.136 155.139C115.985 155.776 115.802 156.302 115.586 156.72C115.024 157.795 114.084 158.706 112.767 159.452H110.499ZM112.637 158.498C112.788 158.322 112.929 158.179 113.058 158.07C113.058 158.07 113.134 158.015 113.285 157.905L113.544 157.674C115.056 156.291 115.812 153.657 115.812 149.772V149.146C115.791 148.971 115.78 148.784 115.78 148.587L115.65 145.261C115.586 143.988 115.208 142.671 114.516 141.31C114.192 140.629 113.75 140.08 113.188 139.663C112.648 139.224 112.076 139.005 111.471 139.005C111.212 139.005 111.082 141.035 111.082 145.096C111.082 149.794 111.212 153.888 111.471 157.378L111.439 158.004L111.568 158.07L111.633 158.498H112.637Z" fill="#A6ACA8"/>
<path d="M130.053 159.913C127.526 159.913 126.263 155.874 126.263 147.796V146.644C126.263 140.52 127.04 137.457 128.595 137.457C128.703 137.457 128.855 137.49 129.049 137.556C129.74 137.798 130.421 137.951 131.09 138.017C131.501 138.105 131.911 138.533 132.321 139.301C132.775 140.091 133.11 141.134 133.326 142.429C133.563 143.724 133.682 145.052 133.682 146.413L133.617 146.578C133.617 147.302 133.628 147.95 133.65 148.521L133.682 150.496C133.682 151.616 133.639 152.626 133.553 153.526C133.423 154.887 133.207 156.061 132.905 157.049C132.71 157.641 132.483 158.135 132.224 158.53C131.987 158.926 131.684 159.255 131.317 159.518C130.971 159.782 130.55 159.913 130.053 159.913ZM129.924 158.959C130.766 158.959 131.393 158.355 131.803 157.148C132.213 155.918 132.462 154.667 132.548 153.394C132.635 152.077 132.678 151.023 132.678 150.233C132.678 149.355 132.613 148.06 132.483 146.348C132.375 144.438 132.321 143.143 132.321 142.462L132.192 142.199L132.257 142.034C132.257 141.068 131.987 140.234 131.447 139.532C130.928 138.829 130.291 138.478 129.535 138.478C128.541 138.478 127.948 138.961 127.753 139.927C127.71 140.256 127.667 140.728 127.624 141.343C127.624 142.967 127.559 144.076 127.429 144.668C127.429 144.998 127.397 145.513 127.332 146.216L127.267 147.763C127.267 148.246 127.278 148.674 127.3 149.048L127.332 150.365C127.332 151.396 127.418 152.582 127.591 153.921C127.721 154.909 127.872 155.743 128.045 156.423C128.218 157.104 128.466 157.685 128.79 158.168C129.114 158.695 129.492 158.959 129.924 158.959Z" fill="#A6ACA8"/>
<path d="M141.286 159.782C140.941 159.782 140.563 159.661 140.152 159.42C139.763 159.2 139.44 158.937 139.18 158.629C138.878 158.234 138.64 157.126 138.468 155.304C138.295 153.482 138.187 151.396 138.144 149.048C138.144 148.521 138.133 148.126 138.111 147.862C138.068 142.352 137.982 139.093 137.852 138.083L138.046 137.622C138.543 137.688 138.792 138.291 138.792 139.433L138.889 148.159C138.889 148.773 138.943 149.937 139.051 151.649C139.18 153.185 139.245 154.349 139.245 155.139C139.245 157.641 140.055 158.893 141.675 158.893C142.669 158.893 143.306 156.588 143.587 151.978L143.619 151.32C143.77 145.283 143.846 140.816 143.846 137.918L143.813 137.622C143.792 137.534 143.781 137.435 143.781 137.326C143.781 137.084 143.965 136.963 144.332 136.963C144.591 136.963 144.753 137.029 144.818 137.161C144.861 137.38 144.883 137.765 144.883 138.313C144.883 139.982 144.818 141.101 144.688 141.672L144.721 141.87C144.721 142.155 144.688 142.594 144.623 143.187L144.559 144.504V144.833C144.58 144.921 144.591 145.03 144.591 145.162C144.548 145.689 144.526 146.194 144.526 146.677C144.505 146.83 144.494 147.072 144.494 147.401C144.451 149.487 144.407 151.298 144.364 152.834C144.299 154.744 144.04 156.357 143.587 157.674C143.111 159.079 142.345 159.782 141.286 159.782Z" fill="#A6ACA8"/>
<path d="M154.706 159.683C154.447 159.398 154.166 158.64 153.864 157.411C153.561 156.182 153.281 154.799 153.021 153.262C152.849 152.011 152.6 150.771 152.276 149.541C152.017 148.444 151.769 147.895 151.531 147.895H151.434C150.959 147.895 150.721 148.049 150.721 148.356C150.721 149.937 150.808 152.34 150.98 155.567C151.067 157.543 151.164 158.695 151.272 159.024L151.013 159.584H150.559L150.3 159.321C149.954 149.179 149.782 142.265 149.782 138.577C149.782 138.335 149.792 138.138 149.814 137.984C149.857 137.83 149.933 137.688 150.041 137.556C150.127 137.402 150.278 137.326 150.494 137.326C151.596 137.326 152.481 137.6 153.151 138.149C153.821 138.698 154.155 139.488 154.155 140.52V142.923C154.155 143.34 154.015 143.9 153.734 144.602C153.475 145.305 153.183 145.952 152.859 146.545L152.438 147.368C152.676 148.488 153.14 150.507 153.831 153.427C154.544 156.324 154.933 157.861 154.998 158.037C155.019 158.059 155.041 158.113 155.063 158.201C155.106 158.289 155.181 158.421 155.289 158.596C155.441 158.904 155.516 159.167 155.516 159.387C155.516 159.694 155.397 159.848 155.16 159.848L154.706 159.683ZM150.883 147.072C151.294 147.072 151.661 146.863 151.985 146.446C152.309 146.029 152.568 145.491 152.762 144.833C153.108 143.494 153.281 142.429 153.281 141.639C153.281 141.134 153.248 140.717 153.183 140.388C153.14 140.059 153.054 139.707 152.924 139.334C152.665 138.566 152.05 138.182 151.078 138.182C150.97 138.182 150.883 138.28 150.818 138.478C150.754 138.654 150.721 138.84 150.721 139.038C150.721 140.509 150.743 141.837 150.786 143.022C150.808 144.207 150.818 145.535 150.818 147.006L150.883 147.072Z" fill="#A6ACA8"/>
<path d="M172.945 159.42C172.772 159.42 172.642 159.354 172.556 159.222C172.491 159.09 172.426 158.893 172.362 158.629C172.34 158.454 172.297 158.3 172.232 158.168L172.264 158.07C172.092 157.038 171.724 155.776 171.163 154.283L170.58 152.571C170.536 152.527 170.331 151.967 169.964 150.891L169.705 150.101C167.761 143.999 166.541 140.695 166.044 140.19C165.871 140.783 165.785 141.551 165.785 142.495C165.785 143 165.795 143.439 165.817 143.812L165.849 145.096L165.817 145.887C165.795 146.128 165.785 146.391 165.785 146.677C165.785 147.16 165.806 147.577 165.849 147.928C165.893 148.63 165.914 148.982 165.914 148.982H165.817C165.817 152.648 165.893 154.667 166.044 155.04V158.004C166.13 158.179 166.173 158.41 166.173 158.695C166.173 158.871 166.109 159.024 165.979 159.156C165.871 159.288 165.731 159.354 165.558 159.354C165.104 159.354 164.877 158.761 164.877 157.576L164.942 156.522C164.985 156.193 165.007 155.83 165.007 155.435C165.007 154.382 164.975 152.801 164.91 150.694C164.845 148.587 164.813 147.006 164.813 145.952C164.813 145.316 164.845 144.339 164.91 143.022C164.975 141.727 165.007 140.761 165.007 140.124V139.696C165.007 138.621 165.201 137.918 165.59 137.589L165.687 137.688L166.011 137.622C166.098 137.644 166.195 137.71 166.303 137.82C166.389 137.907 166.433 138.006 166.433 138.116L166.497 138.313C166.497 138.357 166.497 138.401 166.497 138.445C166.519 138.467 166.53 138.478 166.53 138.478C166.875 140.037 167.653 142.221 168.863 145.03C170.094 147.994 170.86 149.959 171.163 150.924C171.379 151.693 171.552 152.373 171.681 152.966C172.092 154.832 172.578 156.27 173.139 157.279L173.204 157.18C173.701 152.307 173.949 146.326 173.949 139.235L173.917 138.84C173.895 138.73 173.884 138.588 173.884 138.412C173.884 137.951 174.036 137.721 174.338 137.721C174.532 137.721 174.694 137.82 174.824 138.017C174.975 138.215 175.051 138.434 175.051 138.676V140.882L174.889 141.145C174.889 143.23 174.77 146.655 174.532 151.418C174.295 156.182 174.068 158.772 173.852 159.189L173.301 159.321V159.354L173.269 159.321L172.945 159.42Z" fill="#A6ACA8"/>
<path d="M180.201 159.716C179.812 159.716 179.596 159.485 179.553 159.024V158.596C179.574 158.487 179.585 158.355 179.585 158.201L179.456 158.07C179.628 157.609 179.715 157.159 179.715 156.72C179.715 156.215 179.682 155.49 179.618 154.546L179.553 152.373C179.553 151.276 179.585 149.629 179.65 147.434C179.736 145.48 179.78 143.823 179.78 142.462L179.715 140.487C179.672 139.894 179.65 139.235 179.65 138.511C179.65 138.182 179.726 137.951 179.877 137.82C180.028 137.666 180.266 137.589 180.59 137.589C180.806 137.589 180.978 137.655 181.108 137.787C181.151 137.809 181.464 137.852 182.048 137.918C182.588 137.984 183.052 138.083 183.441 138.215C183.851 138.346 184.056 138.511 184.056 138.709C184.056 138.928 183.851 139.148 183.441 139.367C182.21 138.95 181.335 138.741 180.816 138.741L180.654 138.939C180.676 139.137 180.687 139.609 180.687 140.355C180.687 141.299 180.665 142.144 180.622 142.89C180.6 143.659 180.59 144.515 180.59 145.459C180.59 146.073 180.741 146.38 181.043 146.38L181.562 146.348C181.734 146.326 181.918 146.315 182.112 146.315C182.955 146.315 183.376 146.512 183.376 146.907C183.376 147.149 183.322 147.357 183.214 147.533C183.106 147.687 182.944 147.763 182.728 147.763C182.404 147.763 182.156 147.676 181.983 147.5L180.946 147.335H180.784L180.622 147.5V147.599C180.665 147.972 180.687 148.839 180.687 150.2C180.687 151.056 180.676 151.835 180.654 152.538L180.622 154.876C180.622 155.732 180.654 156.61 180.719 157.51C180.741 158.015 180.849 158.355 181.043 158.53C181.238 158.684 181.594 158.761 182.112 158.761L182.696 158.728C182.89 158.706 183.106 158.695 183.344 158.695C183.97 158.695 184.283 158.838 184.283 159.123C184.283 159.518 183.808 159.716 182.858 159.716H180.201Z" fill="#A6ACA8"/>
<path d="M187.907 159.387C187.497 159.387 187.292 159.255 187.292 158.991C187.292 157.894 187.594 156.182 188.199 153.855C188.804 151.55 189.106 149.827 189.106 148.685C189.106 148.071 188.814 146.402 188.231 143.68C187.648 140.959 187.259 139.477 187.065 139.235V139.104C187.086 139.082 187.097 139.06 187.097 139.038C187.097 139.016 187.097 139.005 187.097 139.005C187.097 138.873 187.043 138.72 186.935 138.544C186.849 138.28 186.806 138.149 186.806 138.149C186.806 138.061 186.87 137.984 187 137.918C187.151 137.852 187.281 137.82 187.389 137.82C187.562 137.82 187.702 137.951 187.81 138.215C187.94 138.478 188.026 138.752 188.069 139.038L188.102 139.795C188.404 140.695 188.674 141.793 188.912 143.088C189.192 144.537 189.419 145.557 189.592 146.15C189.722 145.887 189.884 145.03 190.078 143.582C190.294 142.133 190.434 141.046 190.499 140.322C190.629 138.544 190.769 137.633 190.92 137.589C190.92 137.589 191.007 137.567 191.18 137.523L191.439 137.49L191.73 137.885C191.385 138.39 191.212 139.356 191.212 140.783V140.98L191.244 141.178L191.212 141.211C191.126 142.001 190.91 143.209 190.564 144.833C190.197 146.633 190.013 147.994 190.013 148.916C190.013 149.267 190.294 150.727 190.856 153.295C191.417 155.863 191.784 157.367 191.957 157.806C191.957 157.828 192.011 157.916 192.119 158.07C192.27 158.355 192.346 158.585 192.346 158.761C192.346 158.893 192.292 159.002 192.184 159.09C192.098 159.178 191.99 159.222 191.86 159.222C191.709 159.222 191.568 159.189 191.439 159.123L190.856 156.621C190.337 154.645 189.927 152.812 189.624 151.122C189.365 151.517 189.128 152.659 188.912 154.546C188.696 156.5 188.501 157.707 188.328 158.168C188.372 158.256 188.393 158.388 188.393 158.563C188.393 158.783 188.35 158.98 188.264 159.156C188.199 159.31 188.08 159.387 187.907 159.387Z" fill="#A6ACA8"/>
<path d="M198.081 158.827L198.049 157.609C198.027 157.257 198.016 156.862 198.016 156.423C198.016 156.204 198.027 156.017 198.049 155.863L198.081 155.271C198.081 155.051 198.038 154.788 197.952 154.48C197.952 153.01 197.844 150.277 197.628 146.282C197.412 142.418 197.293 139.795 197.271 138.412C195.932 138.412 195.036 138.379 194.582 138.313C194.15 138.204 193.934 138.028 193.934 137.787C194.042 137.545 194.247 137.424 194.55 137.424C195.198 137.424 196.137 137.468 197.368 137.556C198.492 137.666 199.431 137.721 200.187 137.721H200.868L201.548 137.688C201.937 137.688 202.131 137.83 202.131 138.116C202.131 138.248 202.056 138.357 201.904 138.445C201.775 138.511 201.613 138.544 201.418 138.544C200.986 138.544 200.533 138.522 200.058 138.478L198.664 138.412C198.578 138.412 198.535 138.445 198.535 138.511C198.513 138.577 198.502 138.785 198.502 139.137C198.502 141.266 198.632 144.493 198.891 148.817C199.129 153.295 199.248 156.511 199.248 158.465C199.248 158.618 199.15 158.761 198.956 158.893C198.783 159.024 198.61 159.09 198.438 159.09L198.081 158.827Z" fill="#A6ACA8"/>
<path d="M216.93 159.65C216.93 159.43 216.606 159.321 215.958 159.321C215.85 155.26 215.796 152.318 215.796 150.496L215.699 150.365L215.829 150.068C215.829 149.673 215.785 149.267 215.699 148.85L215.213 148.718C215.019 148.784 214.803 148.817 214.565 148.817C214.392 148.817 214.036 148.762 213.496 148.652C213.129 148.543 212.794 148.488 212.491 148.488L212.135 148.62C212.135 149.388 212.124 150.079 212.103 150.694C212.081 151.309 212.07 152 212.07 152.768L212.135 152.9C212.135 153.515 212.167 154.437 212.232 155.666C212.297 156.873 212.329 157.784 212.329 158.399C212.329 158.64 212.286 158.849 212.2 159.024C212.113 159.178 211.984 159.255 211.811 159.255C211.336 159.255 211.098 158.596 211.098 157.279C211.098 156.16 211.109 155.15 211.131 154.25L211.163 151.254C211.163 149.256 211.131 148.18 211.066 148.027C211.174 147.807 211.228 147.083 211.228 145.854C211.228 144.8 211.185 143.516 211.098 142.001L211.033 140.717L210.969 138.149C210.969 137.995 211.023 137.852 211.131 137.721C211.239 137.589 211.368 137.523 211.519 137.523C211.951 137.523 212.167 138.16 212.167 139.433C212.167 140.926 212.157 142.276 212.135 143.483C212.092 144.69 212.07 146.018 212.07 147.467C212.07 147.73 212.891 147.862 214.533 147.862H214.662C215.073 147.862 215.364 147.785 215.537 147.632C215.731 147.456 215.829 147.171 215.829 146.776C215.829 145.612 215.753 144.098 215.602 142.232C215.472 140.212 215.407 138.698 215.407 137.688C215.407 137.556 215.461 137.446 215.569 137.359C215.677 137.249 215.807 137.194 215.958 137.194L216.25 137.293C216.401 137.315 216.498 137.348 216.541 137.391C216.541 139.104 216.606 141.661 216.736 145.063C216.865 148.488 216.93 151.056 216.93 152.768C216.93 155.359 217.006 157.532 217.157 159.288L216.93 159.65ZM214.889 147.401L214.954 147.467H214.889V147.401Z" fill="#A6ACA8"/>
<path d="M225.067 159.913C222.54 159.913 221.276 155.874 221.276 147.796V146.644C221.276 140.52 222.054 137.457 223.609 137.457C223.717 137.457 223.868 137.49 224.063 137.556C224.754 137.798 225.434 137.951 226.104 138.017C226.514 138.105 226.925 138.533 227.335 139.301C227.789 140.091 228.123 141.134 228.339 142.429C228.577 143.724 228.696 145.052 228.696 146.413L228.631 146.578C228.631 147.302 228.642 147.95 228.663 148.521L228.696 150.496C228.696 151.616 228.653 152.626 228.566 153.526C228.437 154.887 228.221 156.061 227.918 157.049C227.724 157.641 227.497 158.135 227.238 158.53C227 158.926 226.698 159.255 226.331 159.518C225.985 159.782 225.564 159.913 225.067 159.913ZM224.937 158.959C225.78 158.959 226.406 158.355 226.817 157.148C227.227 155.918 227.475 154.667 227.562 153.394C227.648 152.077 227.691 151.023 227.691 150.233C227.691 149.355 227.627 148.06 227.497 146.348C227.389 144.438 227.335 143.143 227.335 142.462L227.205 142.199L227.27 142.034C227.27 141.068 227 140.234 226.46 139.532C225.942 138.829 225.305 138.478 224.549 138.478C223.555 138.478 222.961 138.961 222.767 139.927C222.724 140.256 222.68 140.728 222.637 141.343C222.637 142.967 222.572 144.076 222.443 144.668C222.443 144.998 222.41 145.513 222.346 146.216L222.281 147.763C222.281 148.246 222.292 148.674 222.313 149.048L222.346 150.365C222.346 151.396 222.432 152.582 222.605 153.921C222.734 154.909 222.886 155.743 223.058 156.423C223.231 157.104 223.479 157.685 223.803 158.168C224.127 158.695 224.505 158.959 224.937 158.959Z" fill="#A6ACA8"/>
<path d="M245.696 161C245.264 161 245.048 160.298 245.048 158.893V156.72C245.048 153.559 244.983 151.089 244.853 149.311L244.756 148.093C244.67 147.544 244.626 147.061 244.626 146.644C244.626 145.898 244.648 145.217 244.691 144.602L244.756 142.561C244.756 141.88 244.713 141.365 244.626 141.013C244.194 141.321 242.888 145.941 240.706 154.876L240.674 155.37C240.609 155.918 240.522 156.357 240.414 156.687C240.35 156.928 240.252 157.115 240.123 157.246C240.015 157.378 239.885 157.444 239.734 157.444C239.389 157.444 239.14 157.356 238.989 157.18C238.838 157.005 238.762 156.73 238.762 156.357C238.762 155.765 238.481 154.228 237.92 151.748C237.38 149.267 236.786 146.885 236.138 144.602C235.511 142.32 235.079 141.057 234.842 140.816C234.82 141.584 234.734 143.395 234.583 146.249C234.28 151.298 234.129 155.271 234.129 158.168L234.162 159.485C234.075 159.771 233.848 159.913 233.481 159.913C233.416 159.913 233.308 159.848 233.157 159.716C233.006 159.606 232.93 159.518 232.93 159.452C232.93 157.477 233.103 154.009 233.449 149.048C233.773 144.438 233.935 140.98 233.935 138.676C233.935 138.566 233.913 138.456 233.87 138.346C233.805 138.215 233.773 138.116 233.773 138.05C233.773 137.721 234.054 137.556 234.615 137.556C234.982 137.556 235.198 137.721 235.263 138.05C235.349 138.489 235.393 138.818 235.393 139.038L235.425 139.433C235.533 140.004 235.846 140.882 236.365 142.067C236.775 143.011 237.088 143.834 237.304 144.537C237.434 145.063 237.553 145.491 237.661 145.821C238.006 147.094 238.233 148.038 238.341 148.652L238.762 149.509C238.827 149.838 238.957 150.376 239.151 151.122C239.345 151.956 239.486 152.637 239.572 153.163C239.659 153.69 239.702 154.195 239.702 154.678C239.939 154.305 240.609 152.066 241.71 147.961C242.834 143.834 243.492 141.2 243.687 140.059C243.708 140.015 243.719 139.96 243.719 139.894C243.741 139.806 243.762 139.696 243.784 139.565C243.827 139.279 243.924 138.851 244.076 138.28C244.248 137.841 244.508 137.622 244.853 137.622C245.004 137.622 245.177 137.688 245.372 137.82C245.566 137.951 245.663 138.083 245.663 138.215C245.663 147.368 245.803 152.209 246.084 152.735V154.448C246.063 154.952 246.052 155.534 246.052 156.193C246.052 157.598 246.127 158.651 246.279 159.354C246.3 159.376 246.311 159.409 246.311 159.452C246.333 159.496 246.354 159.551 246.376 159.617C246.397 159.705 246.408 159.804 246.408 159.913C246.408 160.155 246.333 160.396 246.181 160.638C246.052 160.879 245.89 161 245.696 161ZM244.626 140.816H244.594L244.529 140.849L244.626 140.882V140.816Z" fill="#A6ACA8"/>
<path d="M251.896 159.716C251.507 159.716 251.291 159.485 251.248 159.024V158.596C251.27 158.487 251.281 158.355 251.281 158.201L251.151 158.07C251.324 157.609 251.41 157.159 251.41 156.72C251.41 156.215 251.378 155.49 251.313 154.546L251.248 152.373C251.248 151.276 251.281 149.629 251.345 147.434C251.432 145.48 251.475 143.823 251.475 142.462L251.41 140.487C251.367 139.894 251.345 139.235 251.345 138.511C251.345 138.182 251.421 137.951 251.572 137.82C251.723 137.666 251.961 137.589 252.285 137.589C252.501 137.589 252.674 137.655 252.803 137.787C252.846 137.809 253.16 137.852 253.743 137.918C254.283 137.984 254.747 138.083 255.136 138.215C255.546 138.346 255.752 138.511 255.752 138.709C255.752 138.928 255.546 139.148 255.136 139.367C253.905 138.95 253.03 138.741 252.512 138.741L252.35 138.939C252.371 139.137 252.382 139.609 252.382 140.355C252.382 141.299 252.36 142.144 252.317 142.89C252.296 143.659 252.285 144.515 252.285 145.459C252.285 146.073 252.436 146.38 252.738 146.38L253.257 146.348C253.43 146.326 253.613 146.315 253.808 146.315C254.65 146.315 255.071 146.512 255.071 146.907C255.071 147.149 255.017 147.357 254.909 147.533C254.801 147.687 254.639 147.763 254.423 147.763C254.099 147.763 253.851 147.676 253.678 147.5L252.641 147.335H252.479L252.317 147.5V147.599C252.36 147.972 252.382 148.839 252.382 150.2C252.382 151.056 252.371 151.835 252.35 152.538L252.317 154.876C252.317 155.732 252.35 156.61 252.414 157.51C252.436 158.015 252.544 158.355 252.738 158.53C252.933 158.684 253.289 158.761 253.808 158.761L254.391 158.728C254.585 158.706 254.801 158.695 255.039 158.695C255.665 158.695 255.978 158.838 255.978 159.123C255.978 159.518 255.503 159.716 254.553 159.716H251.896Z" fill="#A6ACA8"/>
<path d="M259.538 159.42C259.343 159.42 259.171 159.343 259.019 159.189C258.89 159.013 258.825 158.827 258.825 158.629C258.825 158.41 258.911 158.212 259.084 158.037C259.257 157.839 259.451 157.74 259.667 157.74C259.84 157.74 260.013 157.839 260.186 158.037C260.358 158.212 260.445 158.399 260.445 158.596C260.445 159.145 260.142 159.42 259.538 159.42Z" fill="#A6ACA8"/>
<path d="M264.315 159.42C264.121 159.42 263.948 159.343 263.797 159.189C263.667 159.013 263.602 158.827 263.602 158.629C263.602 158.41 263.689 158.212 263.862 158.037C264.034 157.839 264.229 157.74 264.445 157.74C264.618 157.74 264.79 157.839 264.963 158.037C265.136 158.212 265.222 158.399 265.222 158.596C265.222 159.145 264.92 159.42 264.315 159.42Z" fill="#A6ACA8"/>
<path d="M269.093 159.42C268.898 159.42 268.726 159.343 268.574 159.189C268.445 159.013 268.38 158.827 268.38 158.629C268.38 158.41 268.466 158.212 268.639 158.037C268.812 157.839 269.006 157.74 269.222 157.74C269.395 157.74 269.568 157.839 269.741 158.037C269.914 158.212 270 158.399 270 158.596C270 159.145 269.698 159.42 269.093 159.42Z" fill="#A6ACA8"/>
<path d="M373.78 0H329.008C328.771 0 328.537 0.0940957 328.384 0.27618C328.051 0.674197 328.199 1.24219 328.609 1.46288L339.052 7.08585C339.053 7.08637 339.054 7.0874 339.054 7.08865L341.485 23.2972C341.572 23.8588 342.239 24.1467 342.705 23.8159L352.904 16.5696C352.905 16.5688 352.906 16.5687 352.908 16.5694L360.135 20.5443C360.479 20.7338 360.924 20.6296 361.148 20.3069L368.747 9.38328C368.993 9.0306 368.906 8.54573 368.553 8.3004C368.2 8.05496 367.716 8.14213 367.47 8.4948L360.273 18.8409C360.272 18.8424 360.27 18.8429 360.268 18.842L345.855 10.915C345.852 10.9134 345.853 10.9092 345.856 10.9081L371.799 2.26037C371.802 2.25923 371.805 2.26316 371.803 2.26606L369.652 5.35776C369.408 5.7093 369.465 6.20555 369.81 6.45875C370.164 6.71837 370.66 6.6339 370.909 6.27595L374.425 1.22211C374.447 1.19033 374.466 1.15586 374.484 1.12097C374.736 0.608361 374.347 0 373.78 0ZM351.386 15.7326C351.389 15.734 351.389 15.7375 351.386 15.739L343.269 21.5066C343.266 21.5085 343.263 21.5063 343.263 21.503L344.534 11.9699C344.534 11.9673 344.537 11.9659 344.54 11.9671L351.386 15.7326ZM363.842 3.27244L343.668 9.99723C343.39 10.0904 343.182 10.3413 343.143 10.6324L342.213 17.6092C342.212 17.6136 342.206 17.6136 342.205 17.6094L340.648 7.2285C340.648 7.22643 340.649 7.22456 340.651 7.22425L363.841 3.26509C363.845 3.26426 363.847 3.27089 363.842 3.27244ZM364.563 1.56329L339.899 5.7742C339.899 5.77431 339.898 5.77421 339.897 5.77379L332.077 1.56298C332.073 1.56112 332.075 1.55584 332.079 1.55584H364.563C364.567 1.55584 364.568 1.56257 364.563 1.56329Z" fill="#70C783"/>
<path d="M336.402 31.1333C336.184 31.1366 335.961 31.1455 335.741 31.1597C335.313 31.1875 334.988 31.5574 335.015 31.9862C335.042 32.3979 335.384 32.714 335.791 32.714C335.808 32.714 335.825 32.7135 335.842 32.7124C336.036 32.6998 336.233 32.692 336.425 32.6891C336.855 32.6827 337.198 32.3292 337.191 31.8997C337.185 31.4702 336.829 31.1245 336.402 31.1333Z" fill="#70C783"/>
<path d="M340.225 31.6818C339.821 31.5508 339.398 31.4415 338.966 31.3569C338.544 31.2739 338.135 31.5489 338.053 31.9706C337.97 32.3921 338.245 32.801 338.666 32.8837C339.038 32.9565 339.4 33.0501 339.745 33.1618C340.148 33.2925 340.594 33.0652 340.725 32.662C340.857 32.2532 340.633 31.8144 340.225 31.6818Z" fill="#70C783"/>
<path d="M332.125 38.8815C332.065 38.5268 332.029 38.1609 332.021 37.7942C332.011 37.3646 331.654 37.0251 331.225 37.0345C330.796 37.0444 330.456 37.4007 330.466 37.8302C330.476 38.2728 330.518 38.715 330.592 39.1443C330.663 39.5619 331.072 39.8515 331.49 39.7795C331.914 39.7071 332.198 39.3049 332.125 38.8815Z" fill="#70C783"/>
<path d="M335.921 43.6858C335.592 43.5692 335.272 43.4184 334.97 43.2376C334.601 43.017 334.124 43.1368 333.903 43.5054C333.682 43.8741 333.802 44.3518 334.171 44.5726C334.561 44.8061 334.975 45.0011 335.4 45.1522C335.822 45.3014 336.293 45.0538 336.411 44.6236C336.517 44.236 336.299 43.82 335.921 43.6858Z" fill="#70C783"/>
<path d="M336.93 28.1271C336.663 27.7906 336.174 27.7344 335.837 28.0014C335.507 28.2633 335.184 28.5416 334.876 28.8289C334.561 29.1217 334.544 29.6139 334.837 29.9283C335.125 30.2383 335.626 30.2561 335.936 29.9672C336.214 29.708 336.506 29.4566 336.805 29.2202C337.141 28.953 337.197 28.4638 336.93 28.1271Z" fill="#70C783"/>
<path d="M333.395 41.8296C333.179 41.5501 332.984 41.2466 332.815 40.9275C332.614 40.5478 332.143 40.403 331.764 40.6038C331.384 40.8048 331.239 41.2755 331.44 41.6552C331.65 42.0528 331.894 42.4317 332.165 42.7814C332.444 43.1431 332.992 43.1823 333.321 42.8642C333.603 42.5922 333.634 42.1387 333.395 41.8296Z" fill="#70C783"/>
<path d="M332.229 33.5661C331.833 33.3976 331.376 33.5816 331.208 33.9768C331.022 34.4124 330.871 34.8412 330.769 35.2164C330.656 35.6311 330.901 36.0583 331.316 36.1708C331.384 36.1892 331.452 36.198 331.52 36.198C331.862 36.198 332.176 35.97 332.27 35.6235C332.328 35.4091 332.439 35.0552 332.639 34.5865C332.808 34.1913 332.624 33.7344 332.229 33.5661Z" fill="#70C783"/>
<path d="M334.254 30.5639C333.915 30.2997 333.426 30.3602 333.162 30.6991C332.902 31.0329 332.653 31.3803 332.422 31.7316C332.186 32.0906 332.286 32.573 332.645 32.809C332.999 33.0421 333.489 32.9405 333.722 32.5864C333.93 32.27 334.155 31.9569 334.389 31.6559C334.653 31.317 334.593 30.8281 334.254 30.5639Z" fill="#70C783"/>
<path d="M343.625 33.7223C343.32 33.4052 342.973 33.1096 342.594 32.8436C342.243 32.5965 341.757 32.6812 341.51 33.0329C341.263 33.3844 341.348 33.8696 341.7 34.1166C341.997 34.3256 342.268 34.5561 342.505 34.8018C342.799 35.107 343.299 35.1163 343.604 34.8223C343.914 34.5241 343.923 34.0317 343.625 33.7223Z" fill="#70C783"/>
<path d="M339.991 44.4406C339.901 44.0204 339.488 43.7532 339.068 43.843C338.743 43.9125 338.404 43.9584 338.057 43.9797L337.997 43.9832C337.567 44.0045 337.237 44.3696 337.258 44.7988C337.279 45.2148 337.623 45.5381 338.034 45.5381C338.047 45.5381 338.061 45.5378 338.074 45.5371L338.153 45.5327C338.576 45.5069 338.994 45.4502 339.394 45.3645C339.814 45.2742 340.081 44.8608 339.991 44.4406Z" fill="#70C783"/>
<path d="M345.296 37.437C345.259 36.9655 345.173 36.5096 345.04 36.082C344.912 35.6718 344.475 35.4428 344.065 35.5708C343.655 35.6985 343.426 36.1347 343.554 36.5449C343.653 36.8616 343.717 37.2026 343.745 37.5583C343.778 37.9809 344.158 38.3063 344.581 38.2732C345.004 38.2401 345.329 37.8597 345.296 37.437Z" fill="#70C783"/>
<path d="M344.477 39.1394C344.065 39.0179 343.632 39.2531 343.511 39.6651C343.409 40.0083 343.278 40.345 343.12 40.6658C342.93 41.0512 343.089 41.5175 343.475 41.7071C343.855 41.8945 344.329 41.7327 344.516 41.3525C344.713 40.9527 344.876 40.5333 345.003 40.1057C345.125 39.6938 344.889 39.2611 344.477 39.1394Z" fill="#70C783"/>
<path d="M340.099 26.3791C339.916 25.99 339.453 25.823 339.064 26.0057C338.682 26.185 338.303 26.3804 337.939 26.5865C337.648 26.751 337.492 27.0939 337.56 27.4212C337.634 27.7786 337.958 28.0417 338.323 28.0417C338.453 28.0417 338.584 28.0092 338.705 27.9408C339.036 27.7539 339.379 27.5766 339.725 27.4139C340.114 27.2312 340.281 26.7679 340.099 26.3791Z" fill="#70C783"/>
<path d="M342.963 42.4122C342.667 42.1007 342.175 42.0879 341.863 42.3838C341.606 42.628 341.326 42.8485 341.03 43.0397C340.669 43.2729 340.565 43.7543 340.798 44.1153C341.028 44.4713 341.518 44.5769 341.874 44.3468C342.251 44.1034 342.608 43.8225 342.935 43.512C343.246 43.2161 343.259 42.7238 342.963 42.4122Z" fill="#70C783"/>
<path d="M343.006 25.4702C342.895 25.0553 342.469 24.8089 342.054 24.9195C341.844 24.9756 341.634 25.0356 341.429 25.0979C341.039 25.2167 340.804 25.631 340.9 26.0267C341.005 26.4549 341.461 26.7145 341.883 26.5861C342.07 26.529 342.263 26.474 342.455 26.4225C342.87 26.3117 343.117 25.8853 343.006 25.4702Z" fill="#70C783"/>
<path d="M325.52 51.8673C325.43 51.6925 325.343 51.514 325.26 51.3366C325.078 50.9473 324.615 50.7788 324.226 50.9603C323.837 51.1417 323.668 51.6045 323.85 51.994C323.941 52.1902 324.038 52.3876 324.138 52.5807C324.332 52.9573 324.809 53.1098 325.186 52.9153C325.568 52.7184 325.717 52.2491 325.52 51.8673Z" fill="#70C783"/>
<path d="M324.488 49.2721C324.388 48.9191 324.302 48.5594 324.232 48.2027C324.15 47.7811 323.742 47.5062 323.32 47.5884C322.898 47.6707 322.623 48.0793 322.705 48.501C322.783 48.9001 322.879 49.3025 322.992 49.6972C323.107 50.1049 323.545 50.3491 323.952 50.2329C324.366 50.1155 324.606 49.6853 324.488 49.2721Z" fill="#70C783"/>
<path d="M323.293 44.097C322.865 44.0705 322.495 44.3952 322.467 44.8238C322.448 45.1288 322.438 45.438 322.438 45.7429C322.438 46.0227 322.428 46.2949 322.612 46.5246C322.762 46.711 322.996 46.8218 323.236 46.8155C323.474 46.8104 323.7 46.6937 323.842 46.5033C324.015 46.2725 323.994 46.016 323.994 45.7428C323.994 45.4709 324.002 45.195 324.02 44.9229C324.047 44.4942 323.722 44.1245 323.293 44.097Z" fill="#70C783"/>
<path d="M324.138 40.7093C323.729 40.5771 323.291 40.8018 323.159 41.2106C323.033 41.5997 322.922 41.9977 322.829 42.3936C322.731 42.8117 322.99 43.2304 323.408 43.3287C323.821 43.4258 324.247 43.1621 324.344 42.7496C324.427 42.3947 324.527 42.0377 324.639 41.6886C324.771 41.2797 324.547 40.8412 324.138 40.7093Z" fill="#70C783"/>
<path d="M328.105 35.0284C327.808 34.7176 327.316 34.706 327.005 35.0025C326.926 35.0784 326.847 35.1556 326.768 35.234C326.558 35.4442 326.35 35.6665 326.151 35.8947C325.868 36.2181 325.901 36.7096 326.225 36.9924C326.544 37.2714 327.043 37.2379 327.322 36.9188C327.499 36.7167 327.683 36.52 327.868 36.3343C327.938 36.2646 328.008 36.1959 328.079 36.1284C328.39 35.8316 328.402 35.3393 328.105 35.0284Z" fill="#70C783"/>
<path d="M325.766 37.6199C325.4 37.395 324.921 37.5093 324.696 37.8751C324.483 38.2216 324.281 38.5816 324.096 38.945C323.9 39.3277 324.052 39.7962 324.435 39.9914C324.813 40.1842 325.289 40.0293 325.482 39.6517C325.648 39.325 325.83 39.0013 326.021 38.6901C326.246 38.324 326.132 37.845 325.766 37.6199Z" fill="#70C783"/>
<path d="M330.556 33.3812C330.336 33.0125 329.858 32.8921 329.489 33.1124C329.302 33.2244 329.114 33.3425 328.932 33.4635C328.574 33.7012 328.476 34.1839 328.714 34.5418C328.948 34.8949 329.438 34.9944 329.792 34.7599C329.954 34.6525 330.12 34.5475 330.287 34.448C330.656 34.2276 330.776 33.75 330.556 33.3812Z" fill="#70C783"/>
</svg>
