<svg width="36" height="41" viewBox="0 0 36 41" fill="none" xmlns="http://www.w3.org/2000/svg">
<path d="M25.9417 13.631C25.6929 13.6313 25.4445 13.6463 25.1975 13.6759C24.527 11.4927 22.5129 10.0006 20.2291 9.9959C19.6606 9.99529 19.0961 10.0897 18.5589 10.2748C17.2289 7.39887 14.077 5.8359 10.9829 6.51796C7.88844 7.20022 5.68606 9.94329 5.6883 13.1117C5.6885 13.6593 5.75675 14.2046 5.8906 14.7352C2.94259 15.1853 0.836284 17.8274 1.05544 20.8016C1.2742 23.776 3.74469 26.0816 6.72683 26.0948H25.9417C29.3835 26.0948 32.1735 23.3046 32.1735 19.8628C32.1735 16.421 29.3835 13.631 25.9417 13.631ZM25.9417 25.0561H6.72683C4.16656 25.0672 2.07447 23.015 2.03629 20.4549C1.99831 17.8948 4.02803 15.7814 6.58769 15.7162C6.75384 15.7116 6.9076 15.6277 7.00144 15.4906C7.09568 15.3533 7.11823 15.1796 7.06237 15.023C6.03156 12.0732 7.56488 8.84281 10.5021 7.77626C13.4392 6.7097 16.688 8.20402 17.7899 11.1281C17.8403 11.2637 17.9447 11.372 18.0783 11.4273C18.2122 11.4825 18.3627 11.4795 18.4939 11.4189C19.0376 11.166 19.6297 11.035 20.2291 11.0344C22.205 11.0381 23.9065 12.4298 24.3012 14.3659C24.3576 14.6474 24.6318 14.8294 24.9129 14.7726C25.2515 14.7047 25.596 14.6702 25.9417 14.6698C28.8099 14.6698 31.135 16.995 31.135 19.8628C31.135 22.731 28.8099 25.0561 25.9417 25.0561Z" fill="#656665"/>
<circle cx="21.9418" cy="21.9419" r="11.2674" fill="#EEF088"/>
<rect x="32.0232" y="22.5349" width="1.18605" height="15.4186" rx="0.5" fill="#649DF1"/>
<rect x="34.3953" y="22.5349" width="1.18605" height="17.7907" rx="0.5" fill="#649DF1"/>
<rect x="29.6511" y="22.5349" width="1.18605" height="13.0465" rx="0.5" fill="#649DF1"/>
<rect x="27.2791" y="22.5349" width="1.18605" height="10.6744" rx="0.5" fill="#649DF1"/>
</svg>
