<svg width="70" height="70" viewBox="0 0 70 70" fill="none" xmlns="http://www.w3.org/2000/svg">
<path d="M17.1949 21.0414C7.73119 21.0414 0.0318604 28.7407 0.0318604 38.2044C0.0318604 44.0802 2.82694 50.3977 8.33959 56.9815C9.15867 57.9598 9.97489 58.8662 10.7582 59.6932C7.19881 60.6647 5.06175 62.4102 5.06175 64.4475C5.06175 68.054 11.3128 70 17.1943 70C23.076 70 29.3269 68.0538 29.3269 64.4475C29.3269 62.4119 27.1905 60.666 23.6335 59.694C25.0546 58.1938 26.5836 56.4288 28.0345 54.46C28.3708 54.0035 28.2735 53.3611 27.8171 53.0247C27.361 52.6888 26.7182 52.7859 26.3819 53.2423C24.6302 55.6194 22.7342 57.7085 21.0798 59.3678C20.8901 59.4646 20.7315 59.6183 20.6321 59.812C19.1501 61.2685 17.9029 62.349 17.1953 62.9393C16.4954 62.3547 15.2673 61.2889 13.8042 59.8514C13.6992 59.6213 13.5148 59.4408 13.2898 59.3402C8.64037 54.6637 2.0847 46.5842 2.0847 38.2047C2.0847 29.873 8.86309 23.0946 17.1947 23.0946C25.5264 23.0946 32.3048 29.873 32.3048 38.2047C32.3048 41.8432 31.065 45.7725 28.6199 49.8835C28.3302 50.3709 28.4902 51.0008 28.9775 51.2905C29.4647 51.5802 30.0947 51.4202 30.3844 50.9329C33.0209 46.5 34.3578 42.2176 34.3578 38.2047C34.3579 28.7407 26.6586 21.0414 17.1949 21.0414ZM16.5667 65.0743C16.7515 65.2175 16.9733 65.289 17.1949 65.289C17.4165 65.289 17.6381 65.2175 17.8231 65.0743C17.949 64.9769 19.6643 63.6392 21.9506 61.4037C25.4126 62.1097 27.2742 63.4691 27.2742 64.4476C27.2742 65.1784 26.2726 66.0405 24.6603 66.6975C22.6828 67.5034 20.0314 67.9473 17.1945 67.9473C11.0413 67.9473 7.11473 65.8744 7.11473 64.4476C7.11473 63.4677 8.97684 62.109 12.4408 61.403C14.7398 63.6518 16.4576 64.9898 16.5667 65.0743Z" fill="#70C783"/>
<path d="M17.1949 30.7418C15.5713 30.7418 14.0275 31.2544 12.7303 32.2241C12.2764 32.5636 12.1834 33.2069 12.5228 33.6609C12.8624 34.1148 13.5056 34.2076 13.9595 33.8684C14.8989 33.1661 16.0177 32.7948 17.1947 32.7948C20.1775 32.7948 22.6042 35.2214 22.6042 38.2044C22.6042 41.1872 20.1775 43.6138 17.1947 43.6138C14.2119 43.6138 11.7853 41.187 11.7853 38.2044C11.7853 37.6954 11.8557 37.1921 11.9945 36.7089C12.1509 36.1641 11.836 35.5956 11.2912 35.4391C10.7465 35.2832 10.1779 35.5977 10.0214 36.1425C9.82981 36.8101 9.7326 37.5037 9.7326 38.2044C9.7326 42.3191 13.0802 45.6668 17.195 45.6668C21.3097 45.6668 24.6574 42.3192 24.6574 38.2044C24.6573 34.0895 21.3096 30.7418 17.1949 30.7418Z" fill="#70C783"/>
<path d="M61.928 29.8213C62.4503 29.2609 62.9882 28.6571 63.5277 28.0126C67.8013 22.9085 69.9682 18.0018 69.9682 13.4284C69.9682 6.02411 63.9442 0 56.5398 0C51.1307 0 46.2741 3.21919 44.1671 8.20123C43.9461 8.72336 44.1905 9.32574 44.7125 9.5464C45.2345 9.76707 45.837 9.52303 46.0576 9.00103C47.8429 4.78024 51.9573 2.05284 56.5398 2.05284C62.8123 2.05284 67.9153 7.15601 67.9153 13.4285C67.9153 21.911 59.0097 30.0377 56.5393 32.1283C55.9949 31.6682 55.138 30.9152 54.1332 29.9303C54.033 29.7316 53.8711 29.5741 53.6767 29.4766C50.1325 25.9081 45.1642 19.7739 45.1642 13.4285C45.1642 12.8616 44.7048 12.4021 44.1377 12.4021C43.5709 12.4021 43.1112 12.8616 43.1112 13.4285C43.1112 18.0018 45.2781 22.9085 49.5518 28.0128C50.0911 28.6569 50.6287 29.2603 51.1507 29.8206C48.5046 30.6156 46.9771 31.9689 46.9771 33.5984C46.9771 34.9727 48.0919 36.1839 50.1164 37.0087C51.8486 37.7146 54.1298 38.1035 56.5396 38.1035C58.9493 38.1035 61.2304 37.7146 62.9628 37.0087C64.9869 36.1838 66.1017 34.9726 66.1017 33.5983C66.1016 31.9717 64.573 30.6173 61.928 29.8213ZM56.5395 36.0503C51.6806 36.0503 49.03 34.4305 49.03 33.5982C49.03 33.0559 50.2358 32.0636 52.8105 31.5162C54.5428 33.2018 55.8287 34.2034 55.9117 34.2678C56.0966 34.4109 56.3183 34.4825 56.5399 34.4825C56.7615 34.4825 56.983 34.4109 57.1681 34.2678C57.2511 34.2037 58.5367 33.2019 60.269 31.5165C61.4161 31.7611 62.4098 32.1194 63.1051 32.5427C63.6962 32.9028 64.049 33.2974 64.049 33.5982C64.0488 34.4305 61.3982 36.0503 56.5395 36.0503Z" fill="#70C783"/>
<path d="M56.5398 7.45557C53.2463 7.45557 50.5668 10.135 50.5668 13.4287C50.5668 16.7221 53.2462 19.4015 56.5398 19.4015C59.8333 19.4015 62.5127 16.7222 62.5127 13.4287C62.5127 10.1351 59.8333 7.45557 56.5398 7.45557ZM56.5399 17.3486C54.3781 17.3486 52.6197 15.5901 52.6197 13.4285C52.6197 11.267 54.3782 9.5084 56.5399 9.5084C58.7014 9.5084 60.46 11.2669 60.46 13.4285C60.4599 15.5901 58.7014 17.3486 56.5399 17.3486Z" fill="#70C783"/>
<path d="M43.2247 32.5718H42.756C42.4148 32.5718 42.0719 32.5943 41.7364 32.639C41.1746 32.7138 40.7796 33.2298 40.8542 33.792C40.923 34.3081 41.3638 34.6833 41.8705 34.6833C41.9156 34.6833 41.9613 34.6804 42.0072 34.6742C42.2532 34.6416 42.5051 34.625 42.7561 34.625H43.2247V34.6249C43.7917 34.6249 44.2512 34.1655 44.2512 33.5984C44.2512 33.0313 43.7917 32.5718 43.2247 32.5718Z" fill="#70C783"/>
<path d="M39.8312 63.3687C39.8295 63.3687 39.828 63.3687 39.8264 63.3687L38.4707 63.3748C37.9038 63.3774 37.4464 63.8391 37.4488 64.4059C37.4513 64.9713 37.9105 65.4278 38.4752 65.4278C38.4768 65.4278 38.4783 65.4278 38.48 65.4278L39.8357 65.4216C40.4025 65.419 40.86 64.9573 40.8575 64.3905C40.855 63.825 40.3959 63.3687 39.8312 63.3687Z" fill="#70C783"/>
<path d="M44.4427 45.8677H43.087C42.52 45.8677 42.0605 46.3273 42.0605 46.8942C42.0605 47.4611 42.5199 47.9206 43.087 47.9206H44.4427C45.0097 47.9206 45.4692 47.4613 45.4692 46.8942C45.4692 46.3273 45.0098 45.8677 44.4427 45.8677Z" fill="#70C783"/>
<path d="M39.0037 34.6632C38.6194 34.2468 37.9703 34.2205 37.5533 34.6047C37.1706 34.9576 36.8225 35.3509 36.5187 35.7739C36.188 36.2345 36.2933 36.8759 36.7538 37.2066C36.9349 37.3368 37.1444 37.3994 37.3518 37.3994C37.671 37.3994 37.9857 37.2508 38.1863 36.9716C38.4092 36.6614 38.6645 36.3726 38.9452 36.1137C39.3619 35.7294 39.3881 35.0799 39.0037 34.6632Z" fill="#70C783"/>
<path d="M45.2543 63.3439C45.2526 63.3439 45.2511 63.3439 45.2495 63.3439L43.8939 63.35C43.3271 63.3525 42.8696 63.8143 42.8721 64.3812C42.8745 64.9465 43.3338 65.403 43.8984 65.403C43.9001 65.403 43.9016 65.403 43.9032 65.403L45.2588 65.3968C45.8256 65.3944 46.2831 64.9325 46.2806 64.3657C46.278 63.8004 45.8189 63.3439 45.2543 63.3439Z" fill="#70C783"/>
<path d="M34.4082 63.3932C34.4066 63.3932 34.4051 63.3932 34.4034 63.3932L33.0477 63.3993C32.4809 63.4019 32.0234 63.8636 32.0259 64.4305C32.0285 64.9958 32.4873 65.4523 33.0522 65.4523C33.0539 65.4523 33.0554 65.4523 33.057 65.4523L34.4127 65.4462C34.9796 65.4436 35.437 64.9819 35.4346 64.415C35.4321 63.8496 34.973 63.3932 34.4082 63.3932Z" fill="#70C783"/>
<path d="M39.7619 45.0049C39.4393 44.8015 39.1359 44.5639 38.8605 44.2991C38.4518 43.906 37.8018 43.919 37.4091 44.3272C37.016 44.7357 37.0287 45.3856 37.4372 45.7785C37.8129 46.1398 38.2265 46.4637 38.6665 46.7413C38.8365 46.8486 39.0259 46.8997 39.2132 46.8997C39.5539 46.8997 39.8871 46.7303 40.0825 46.4207C40.385 45.9413 40.2413 45.3074 39.7619 45.0049Z" fill="#70C783"/>
<path d="M37.2386 41.3284C37.1697 40.9746 37.1347 40.6106 37.1347 40.2464L37.1349 40.1894C37.1416 39.6225 36.6875 39.1577 36.1205 39.1511C36.1165 39.151 36.1124 39.151 36.1083 39.151C35.547 39.151 35.0887 39.6027 35.0821 40.1656L35.0817 40.2465C35.0817 40.7423 35.1294 41.2384 35.2235 41.7212C35.3189 42.2113 35.7485 42.5513 36.2299 42.5513C36.2948 42.5513 36.361 42.5452 36.4272 42.5322C36.9837 42.4238 37.3469 41.8848 37.2386 41.3284Z" fill="#70C783"/>
<path d="M49.866 45.8677H48.5103C47.9433 45.8677 47.4838 46.3273 47.4838 46.8942C47.4838 47.4611 47.9433 47.9206 48.5103 47.9206H49.866C50.4329 47.9206 50.8924 47.4613 50.8924 46.8942C50.8924 46.3273 50.4329 45.8677 49.866 45.8677Z" fill="#70C783"/>
<path d="M66.3462 47.9576C65.9506 47.6455 65.5279 47.362 65.0894 47.1152C64.596 46.8368 63.9697 47.0117 63.6914 47.5057C63.4131 47.9995 63.5879 48.6256 64.0818 48.9037C64.4277 49.0988 64.7616 49.3225 65.0737 49.569C65.2624 49.7179 65.4863 49.7899 65.7092 49.7899C66.0124 49.7899 66.3129 49.656 66.5156 49.3995C66.8669 48.9545 66.7912 48.3089 66.3462 47.9576Z" fill="#70C783"/>
<path d="M62.536 64.0794C62.458 63.5179 61.9391 63.1248 61.3786 63.203C61.0425 63.2495 60.6982 63.274 60.3549 63.2754L60.1628 63.2763C59.5958 63.2792 59.1385 63.741 59.1412 64.3077C59.1441 64.8729 59.6031 65.3293 60.1676 65.3293C60.1694 65.3293 60.171 65.3293 60.1726 65.3293L60.3643 65.3283C60.7979 65.3264 61.2337 65.2956 61.6596 65.2367C62.2214 65.1591 62.6136 64.6408 62.536 64.0794Z" fill="#70C783"/>
<path d="M67.0662 61.1928C66.675 60.7821 66.0252 60.7664 65.615 61.1575C65.327 61.4319 65.0152 61.6859 64.6883 61.9126C64.2225 62.2355 64.1067 62.8751 64.4295 63.3412C64.629 63.6287 64.9488 63.7829 65.274 63.7829C65.4758 63.7829 65.6796 63.7236 65.858 63.6C66.2717 63.313 66.6664 62.9915 67.031 62.6441C67.4416 62.2529 67.4572 61.6031 67.0662 61.1928Z" fill="#70C783"/>
<path d="M69.0639 56.2076C68.5076 56.1027 67.9703 56.4691 67.8653 57.0263C67.7916 57.4169 67.6868 57.8045 67.5535 58.1785C67.3632 58.7124 67.6417 59.2996 68.1758 59.4901C68.2896 59.5307 68.4061 59.55 68.5206 59.55C68.9422 59.55 69.3376 59.288 69.4874 58.868C69.6566 58.3936 69.7896 57.9018 69.883 57.4062C69.9875 56.8491 69.6209 56.3123 69.0639 56.2076Z" fill="#70C783"/>
<path d="M69.6737 52.9082C69.5345 52.4235 69.3559 51.9461 69.1424 51.4885C68.9026 50.9747 68.2922 50.7527 67.778 50.9922C67.2644 51.232 67.0422 51.8427 67.2819 52.3565C67.4501 52.7168 67.5909 53.093 67.7004 53.4745C67.8296 53.9247 68.2403 54.2181 68.6865 54.2181C68.7805 54.2181 68.8756 54.2051 68.9702 54.178C69.5151 54.0215 69.8299 53.453 69.6737 52.9082Z" fill="#70C783"/>
<path d="M55.2891 45.8677H53.9333C53.3664 45.8677 52.9069 46.3273 52.9069 46.8942C52.9069 47.4611 53.3662 47.9206 53.9333 47.9206H55.2891C55.856 47.9206 56.3155 47.4613 56.3155 46.8942C56.3155 46.3273 55.856 45.8677 55.2891 45.8677Z" fill="#70C783"/>
<path d="M50.6774 63.3192C50.6757 63.3192 50.6742 63.3192 50.6726 63.3192L49.3169 63.3254C48.7501 63.3278 48.2926 63.7897 48.2951 64.3565C48.2977 64.9218 48.7568 65.3783 49.3214 65.3783C49.323 65.3783 49.3245 65.3783 49.3262 65.3783L50.6819 65.3722C51.2487 65.3696 51.7062 64.9079 51.7037 64.3411C51.7013 63.7757 51.242 63.3192 50.6774 63.3192Z" fill="#70C783"/>
<path d="M60.7573 45.8776C60.6121 45.8711 60.4649 45.8679 60.3203 45.8679H59.3563C58.7893 45.8679 58.3298 46.3276 58.3298 46.8944C58.3298 47.4614 58.7892 47.9209 59.3563 47.9209H60.3203V47.9208C60.4364 47.9208 60.5518 47.9234 60.6665 47.9284C60.6819 47.9292 60.6974 47.9295 60.7127 47.9295C61.2586 47.9295 61.7131 47.4994 61.7373 46.9486C61.7623 46.382 61.3235 45.9026 60.7573 45.8776Z" fill="#70C783"/>
<path d="M56.1003 63.2948C56.0987 63.2948 56.0972 63.2948 56.0955 63.2948L54.7398 63.301C54.173 63.3034 53.7155 63.7653 53.718 64.3321C53.7206 64.8974 54.1797 65.3539 54.7443 65.3539C54.746 65.3539 54.7476 65.3539 54.7491 65.3539L56.1048 65.3478C56.6717 65.3452 57.1291 64.8835 57.1267 64.3166C57.1242 63.7512 56.6651 63.2948 56.1003 63.2948Z" fill="#70C783"/>
</svg>
