<?xml version="1.0" encoding="UTF-8"?>
<svg xmlns="http://www.w3.org/2000/svg" xmlns:xlink="http://www.w3.org/1999/xlink" width="24pt" height="24pt" viewBox="0 0 48 48" version="1.2">
<defs>
<clipPath id="clip1">
  <path d="M 1.1875 9.078125 L 46 9.078125 L 46 37.523438 L 1.1875 37.523438 Z M 1.1875 9.078125 "/>
</clipPath>
<clipPath id="clip2">
  <path d="M 1.1875 9.078125 L 46.582031 9.078125 L 46.582031 37.523438 L 1.1875 37.523438 Z M 1.1875 9.078125 "/>
</clipPath>
</defs>
<g id="surface1">
<g clip-path="url(#clip1)" clip-rule="nonzero">
<path style=" stroke:none;fill-rule:nonzero;fill:rgb(100%,100%,100%);fill-opacity:1;" d="M 17.074219 37.191406 C 14.179688 37.191406 11.546875 35.664062 10.128906 33.179688 C 9.394531 33.554688 8.585938 33.773438 7.757812 33.816406 C 7.65625 33.820312 7.558594 33.820312 7.457031 33.820312 C 4.378906 33.820312 1.84375 31.433594 1.6875 28.378906 C 1.605469 26.851562 2.132812 25.382812 3.167969 24.246094 C 4.132812 23.1875 5.429688 22.535156 6.847656 22.386719 C 6.839844 22.285156 6.832031 22.179688 6.824219 22.078125 C 6.746094 20.550781 7.273438 19.082031 8.308594 17.945312 C 9.34375 16.808594 10.765625 16.140625 12.308594 16.0625 C 12.410156 16.054688 12.507812 16.054688 12.605469 16.054688 C 12.90625 16.054688 13.207031 16.074219 13.5 16.121094 C 13.734375 12.507812 16.679688 9.589844 20.371094 9.402344 C 20.496094 9.398438 20.621094 9.394531 20.746094 9.394531 C 23.570312 9.394531 26.113281 11.003906 27.304688 13.523438 C 27.835938 13.394531 28.382812 13.316406 28.925781 13.289062 C 29.074219 13.28125 29.226562 13.277344 29.375 13.277344 C 32.820312 13.277344 35.902344 15.273438 37.292969 18.382812 C 41.886719 18.578125 45.636719 22.25 45.871094 26.828125 C 46.121094 31.730469 42.304688 35.925781 37.355469 36.175781 C 37.203125 36.183594 37.042969 36.1875 36.890625 36.1875 C 34.695312 36.1875 32.605469 35.402344 30.960938 33.964844 C 29.972656 35.589844 28.222656 36.636719 26.296875 36.734375 C 26.199219 36.742188 26.097656 36.742188 26 36.742188 C 24.601562 36.742188 23.269531 36.246094 22.214844 35.34375 C 20.890625 36.441406 19.222656 37.09375 17.488281 37.183594 C 17.351562 37.1875 17.210938 37.191406 17.074219 37.191406 "/>
</g>
<g clip-path="url(#clip2)" clip-rule="nonzero">
<path style=" stroke:none;fill-rule:nonzero;fill:rgb(18.03894%,18.429565%,32.548523%);fill-opacity:1;" d="M 20.746094 9.070312 C 20.617188 9.070312 20.484375 9.070312 20.355469 9.078125 C 16.613281 9.265625 13.605469 12.140625 13.207031 15.757812 C 13.007812 15.738281 12.808594 15.726562 12.605469 15.726562 C 12.503906 15.726562 12.394531 15.730469 12.289062 15.738281 C 10.660156 15.820312 9.160156 16.527344 8.066406 17.726562 C 6.972656 18.925781 6.414062 20.480469 6.5 22.09375 L 6.5 22.105469 C 5.121094 22.320312 3.871094 22.992188 2.925781 24.027344 C 1.832031 25.230469 1.273438 26.78125 1.359375 28.398438 C 1.523438 31.621094 4.203125 34.148438 7.457031 34.148438 C 7.5625 34.148438 7.671875 34.144531 7.773438 34.140625 C 8.542969 34.101562 9.300781 33.917969 10 33.601562 C 11.507812 36.035156 14.164062 37.515625 17.074219 37.515625 C 17.21875 37.515625 17.363281 37.511719 17.507812 37.507812 C 19.21875 37.417969 20.871094 36.804688 22.210938 35.761719 C 23.289062 36.609375 24.613281 37.066406 26 37.066406 C 26.101562 37.066406 26.210938 37.066406 26.316406 37.058594 C 28.21875 36.964844 29.960938 35.984375 31.035156 34.453125 C 32.6875 35.785156 34.738281 36.511719 36.890625 36.511719 C 37.050781 36.511719 37.214844 36.507812 37.371094 36.5 C 42.5 36.242188 46.460938 31.894531 46.199219 26.808594 C 46.078125 24.460938 45.074219 22.269531 43.367188 20.640625 C 41.769531 19.113281 39.703125 18.210938 37.507812 18.070312 C 36.027344 14.945312 32.878906 12.953125 29.375 12.953125 C 29.222656 12.953125 29.066406 12.953125 28.910156 12.964844 C 28.433594 12.988281 27.957031 13.050781 27.488281 13.148438 C 26.195312 10.652344 23.609375 9.070312 20.746094 9.070312 Z M 20.746094 9.71875 C 23.585938 9.71875 26.0625 11.429688 27.121094 13.90625 C 27.703125 13.746094 28.3125 13.644531 28.941406 13.613281 C 29.089844 13.605469 29.230469 13.601562 29.375 13.601562 C 32.816406 13.601562 35.816406 15.6875 37.074219 18.703125 C 41.578125 18.789062 45.308594 22.316406 45.542969 26.84375 C 45.785156 31.578125 42.113281 35.609375 37.339844 35.851562 C 37.1875 35.859375 37.039062 35.863281 36.890625 35.863281 C 34.566406 35.863281 32.441406 34.945312 30.875 33.445312 C 30.019531 35.121094 28.308594 36.308594 26.28125 36.410156 C 26.1875 36.417969 26.089844 36.417969 26 36.417969 C 24.542969 36.417969 23.207031 35.84375 22.21875 34.90625 C 20.957031 36.039062 19.304688 36.765625 17.472656 36.855469 C 17.339844 36.863281 17.207031 36.867188 17.074219 36.867188 C 14.128906 36.867188 11.535156 35.203125 10.257812 32.734375 C 9.519531 33.171875 8.660156 33.445312 7.742188 33.492188 C 7.648438 33.496094 7.550781 33.496094 7.457031 33.496094 C 4.574219 33.496094 2.164062 31.253906 2.011719 28.363281 C 1.859375 25.378906 4.175781 22.835938 7.183594 22.6875 C 7.199219 22.683594 7.210938 22.683594 7.222656 22.683594 C 7.1875 22.480469 7.164062 22.273438 7.152344 22.0625 C 7 19.078125 9.3125 16.539062 12.324219 16.386719 C 12.421875 16.378906 12.511719 16.378906 12.605469 16.378906 C 13.023438 16.378906 13.425781 16.421875 13.816406 16.511719 C 13.851562 12.910156 16.710938 9.914062 20.386719 9.726562 C 20.507812 9.722656 20.628906 9.71875 20.746094 9.71875 "/>
</g>
<path style="fill-rule:nonzero;fill:rgb(100%,100%,100%);fill-opacity:1;stroke-width:40;stroke-linecap:round;stroke-linejoin:round;stroke:rgb(18.03894%,18.429565%,32.548523%);stroke-opacity:1;stroke-miterlimit:10;" d="M 2599.815999 2044.235439 C 2599.815999 2251.00865 2767.354398 2418.591123 2974.215465 2418.591123 " transform="matrix(0.0163908,0,0,-0.0162467,-11.066272,57.833101)"/>
<path style="fill-rule:nonzero;fill:rgb(100%,100%,100%);fill-opacity:1;stroke-width:40;stroke-linecap:round;stroke-linejoin:round;stroke:rgb(18.03894%,18.429565%,32.548523%);stroke-opacity:1;stroke-miterlimit:10;" d="M 2024.513446 2608.053088 C 2170.841436 2754.477373 2407.969041 2754.477373 2554.297031 2608.293522 " transform="matrix(0.0163908,0,0,-0.0162467,-11.066272,57.833101)"/>
<path style="fill:none;stroke-width:40;stroke-linecap:round;stroke-linejoin:round;stroke:rgb(18.03894%,18.429565%,32.548523%);stroke-opacity:1;stroke-miterlimit:10;" d="M 1497.113053 2047.601515 C 1351.976659 1976.433061 1176.812046 2036.060685 1105.554605 2181.042366 " transform="matrix(0.0163908,0,0,-0.0162467,-11.066272,57.833101)"/>
<path style="fill:none;stroke-width:40;stroke-linecap:round;stroke-linejoin:round;stroke:rgb(18.03894%,18.429565%,32.548523%);stroke-opacity:1;stroke-miterlimit:10;" d="M 1527.141272 1821.834021 C 1455.883831 1966.815703 1515.463631 2142.092063 1660.600025 2213.260517 " transform="matrix(0.0163908,0,0,-0.0162467,-11.066272,57.833101)"/>
</g>
</svg>
