<svg width="303" height="89" viewBox="0 0 303 89" fill="none" xmlns="http://www.w3.org/2000/svg">
<path d="M0 5.02214C0 7.05643 0.252185 10.9343 0.756554 16.6557C1.26092 22.4195 1.51311 26.7 1.51311 29.4971C1.51311 34.0319 1.45006 40.8552 1.32397 49.9671C1.19788 59.0367 1.13483 65.8812 1.13483 70.5007C1.13483 81.8588 2.22763 87.5379 4.41323 87.5379H13.7441C15.9297 86.3936 17.9261 85.0798 19.7335 83.5964C21.4988 82.0707 22.9488 80.5662 24.0836 79.0829C25.2605 77.5571 26.2692 75.8407 27.1099 73.9336C27.9505 71.984 28.602 70.1405 29.0643 68.4029C29.5266 66.6229 29.8839 64.5674 30.1361 62.2364C30.3883 60.0326 30.5354 58.0407 30.5774 56.2607C30.6615 54.4383 30.7035 52.065 30.7035 49.1407V41.9571L30.8296 38.5243L30.9557 35.4093C30.9557 32.1883 30.5564 28.9886 29.7578 25.81C28.9592 22.589 27.7824 19.4952 26.2272 16.5286C24.6721 13.5195 22.8227 10.8283 20.6791 8.455C18.5356 6.08167 16.0558 4.2169 13.2397 2.86071C10.4236 1.46214 7.52351 0.762857 4.53933 0.762857C3.40449 0.762857 2.35372 1.20786 1.38702 2.09786C0.462339 2.94548 0 3.92024 0 5.02214ZM10.1504 77.8114C10.1504 71.4119 9.83521 61.8338 9.20474 49.0771C8.53225 36.7019 8.196 27.1238 8.196 20.3429C8.196 14.7486 8.51124 10.235 9.1417 6.80214C19.145 7.98881 24.1467 21.6779 24.1467 47.8693C24.1467 49.8612 24.1257 51.3657 24.0836 52.3829C23.9996 54.0357 23.8315 55.9852 23.5793 58.2314C23.3691 60.4776 23.0749 62.5331 22.6966 64.3979C22.2763 66.5169 21.7089 68.6148 20.9944 70.6914C20.2799 72.7257 19.4813 74.4421 18.5986 75.8407C17.5899 77.3664 16.35 78.5955 14.8789 79.5279C13.4078 80.4602 11.8317 80.9264 10.1504 80.9264V77.8114Z" fill="#656665"/>
<path d="M75.9707 89C76.8113 89 77.5048 88.6821 78.0512 88.0464C78.5976 87.4107 78.8708 86.6267 78.8708 85.6943C78.8708 85.101 78.7657 84.5076 78.5555 83.9143C78.3454 83.2786 78.0092 82.5157 77.5468 81.6257L76.7272 79.9729C75.13 76.4976 73.764 72.6621 72.6292 68.4664C71.4944 64.2283 70.3385 58.8671 69.1617 52.3829L66.7029 39.9864L68.7203 36.1721L71.1791 31.4679C71.6835 30.2812 72.1669 28.8614 72.6292 27.2086C73.0916 25.5557 73.3227 24.1148 73.3227 22.8857V13.7314C73.3227 10.8495 72.6292 8.39143 71.2422 6.35714C69.8552 4.28048 67.9428 2.71238 65.505 1.65286C63.1092 0.550952 60.3983 0 57.372 0C54.5139 0 53.0849 2.05548 53.0849 6.16643C53.0849 14.0069 53.4632 25.8736 54.2197 41.7664C54.9342 58.1255 55.2915 69.971 55.2915 77.3029L55.1654 86.0121L56.8677 87.9193H60.4613L61.9114 84.4229C60.2722 77.8114 59.4526 68.7631 59.4526 57.2779C59.4526 54.5655 59.4736 52.171 59.5156 50.0943C59.5576 48.0176 59.5787 45.7079 59.5787 43.165H61.1548C61.9114 45.0298 63.4875 52.1286 65.8833 64.4614L66.7659 68.8479C67.8167 74.0607 69.1617 78.6802 70.8009 82.7064C72.4401 86.9021 74.1633 89 75.9707 89ZM66.892 16.9736C66.892 19.1774 66.5978 21.7202 66.0094 24.6021C65.4209 27.4417 64.6013 30.0057 63.5506 32.2943C62.5418 34.5829 61.407 36.0662 60.1461 36.7443C60.1461 32.93 60.062 28.035 59.8939 22.0593C59.7258 16.126 59.6417 10.9979 59.6417 6.675C59.6417 6.42071 59.7258 6.06048 59.8939 5.59429L60.083 4.83143C61.5961 4.87381 62.836 5.27643 63.8027 6.03929C64.8115 6.75976 65.526 7.7981 65.9463 9.15429C66.3246 10.5105 66.5768 11.7607 66.7029 12.905C66.829 14.0069 66.892 15.3631 66.892 16.9736Z" fill="#656665"/>
<path d="M112.79 71.1364C112.79 68.8055 112.685 64.2071 112.474 57.3414C112.264 50.4757 112.159 45.8562 112.159 43.4829C112.159 40.6857 112.285 36.5324 112.537 31.0229C112.748 24.8776 112.853 20.7455 112.853 18.6264C112.853 14.3883 112.685 10.3621 112.348 6.54786H118.968C119.935 6.54786 120.797 6.20881 121.553 5.53071C122.31 4.85262 122.688 4.11095 122.688 3.30571C122.688 2.58524 122.268 1.92833 121.427 1.335C120.628 0.826429 119.304 0.572143 117.455 0.572143H102.072C97.8267 0.572143 95.7041 1.5681 95.7041 3.56C95.7041 4.87381 96.0404 5.785 96.7129 6.29357C97.3853 6.80214 98.3941 7.05643 99.7391 7.05643C100.285 7.05643 100.79 7.03524 101.252 6.99286C101.715 6.95048 102.198 6.92929 102.702 6.92929H105.161C105.581 11.125 105.792 15.7869 105.792 20.915C105.792 23.4579 105.686 28.2893 105.476 35.4093C105.224 41.8088 105.098 46.6402 105.098 49.9036C105.098 53.3364 105.245 57.9348 105.539 63.6986C105.834 69.4624 105.981 74.0819 105.981 77.5571L105.855 78.4471L105.728 79.2736H102.072C101.567 79.316 101.063 79.7186 100.559 80.4814C100.054 81.2019 99.8021 81.9436 99.8021 82.7064C99.8021 84.656 101.336 85.6307 104.404 85.6307L105.981 85.5036C106.947 85.6731 109.448 85.7579 113.483 85.7579H119.157C120.292 85.7579 121.28 85.3764 122.12 84.6136C123.003 83.8083 123.444 82.8548 123.444 81.7529C123.444 79.5914 121.679 78.5107 118.149 78.5107C117.35 78.5107 116.677 78.5319 116.131 78.5743C115.585 78.6167 115.017 78.6379 114.429 78.6379H112.727C112.727 78.0021 112.748 77.4088 112.79 76.8579V75.0143V71.1364Z" fill="#656665"/>
<path d="M153.202 35.4093C153.202 32.146 153.412 27.7383 153.833 22.1864C154.211 16.3802 154.4 12.0786 154.4 9.28143V7.75571H155.913C158.645 7.75571 160.894 8.17952 162.659 9.02714C167.03 9.02714 169.216 7.7981 169.216 5.34C169.216 4.2381 168.543 3.30571 167.199 2.54286C165.896 1.73762 164.13 1.16548 161.903 0.826429C158.456 0.317857 155.241 0.0635714 152.257 0.0635714C150.912 0.0635714 149.735 0.42381 148.726 1.14429C147.759 1.82238 147.276 2.75476 147.276 3.94143C147.276 9.02714 147.108 14.9181 146.772 21.6143V24.7929C146.477 29.7514 146.183 39.0964 145.889 52.8279C145.511 66.8136 144.964 77.8538 144.25 85.9486C145.931 87.2624 147.465 87.9193 148.852 87.9193C151.08 87.9193 152.193 86.0121 152.193 82.1979V45.3264C153.749 45.835 155.451 46.0893 157.3 46.0893C158.519 46.0893 159.57 45.729 160.453 45.0086C161.377 44.2881 161.84 43.3769 161.84 42.275C161.84 39.9864 159.759 38.8421 155.598 38.8421H154.274L153.202 38.9057V35.4093Z" fill="#656665"/>
<path d="M201.18 79.655L201.306 84.6771L203.702 86.3936C204.837 86.3936 205.846 86.0121 206.728 85.2493C207.653 84.444 208.115 83.5329 208.115 82.5157C208.115 73.9971 207.401 61.6643 205.972 45.5171C204.543 29.37 203.828 17.0583 203.828 8.58214L203.954 7.81929L204.081 7.24714L206.665 7.69214C208.01 7.98881 209.124 8.13714 210.007 8.13714C211.142 8.13714 212.129 7.7981 212.97 7.12C213.853 6.44191 214.294 5.59429 214.294 4.57714C214.294 2.50048 212.949 1.46214 210.259 1.46214H209.187C208.893 1.50452 208.557 1.52571 208.179 1.52571C206.077 1.52571 203.156 1.31381 199.415 0.89C195.506 0.508571 192.585 0.317857 190.652 0.317857C189.685 0.317857 188.76 0.593333 187.878 1.14429C186.995 1.69524 186.554 2.35214 186.554 3.115C186.554 4.005 186.995 4.74667 187.878 5.34C189.349 6.31476 192.564 6.86571 197.524 6.99286C197.65 11.8243 198.217 23.3307 199.226 41.5121C200.235 59.6512 200.907 69.2293 201.243 70.2464L201.054 74.6964L201.18 79.655Z" fill="#656665"/>
<path d="M242.034 50.5393C242.034 48.0812 242.287 46.2588 242.791 45.0721C242.791 41.5545 242.728 36.3417 242.602 29.4336C242.476 22.4831 242.413 17.2702 242.413 13.795C242.413 12.566 242.56 10.9131 242.854 8.83643C243.148 6.75976 243.295 5.1069 243.295 3.87786C243.295 2.98786 242.959 2.225 242.287 1.58929C241.656 0.953571 240.899 0.635714 240.017 0.635714C237.033 0.635714 235.541 4.74667 235.541 12.9686C235.541 15.681 235.793 19.7495 236.297 25.1743V26.1279C236.297 33.0783 236.024 42.7624 235.478 55.18C234.931 67.6824 234.658 77.3876 234.658 84.2957C234.658 85.3552 235.015 86.33 235.73 87.22C236.486 88.11 237.348 88.555 238.315 88.555C239.912 88.555 241.383 88.1524 242.728 87.3471C247.267 87.3471 251.113 87.8557 254.265 88.8729C255.316 88.7457 256.22 88.3643 256.976 87.7286C257.775 87.0929 258.174 86.33 258.174 85.44C258.174 82.8971 255.862 81.6257 251.239 81.6257C250.062 81.6257 249.074 81.6469 248.276 81.6893L245.88 81.8164C242.98 81.8164 241.53 78.8286 241.53 72.8529C241.53 69.9286 241.614 66.4533 241.782 62.4271C241.95 58.401 242.034 54.9681 242.034 52.1286V50.5393Z" fill="#656665"/>
<path d="M295.497 40.6221C295.54 36.4688 296.821 30.1752 299.343 21.7414C301.781 13.6043 303 7.3319 303 2.92429C303 2.16143 302.664 1.52571 301.991 1.01714C301.361 0.46619 300.646 0.190714 299.848 0.190714C298.166 0.190714 296.653 2.33095 295.308 6.61143C293.921 11.019 292.744 15.914 291.778 21.2964C290.811 26.6788 290.139 29.921 289.76 31.0229C289.55 30.2176 289.067 28.4376 288.31 25.6829C287.596 22.8857 286.692 19.7707 285.599 16.3379C284.548 12.8626 283.54 10.0019 282.573 7.75571C280.934 4.02619 279.379 2.11905 277.908 2.03429L275.007 4.19571V4.895C275.007 6.42071 275.806 9.53571 277.403 14.24C278.748 18.139 280.556 23.0764 282.825 29.0521C285.137 34.9855 286.734 39.0329 287.617 41.1943V44.5636C287.659 45.7926 287.932 48.844 288.436 53.7179C288.899 58.1679 289.13 61.4736 289.13 63.635C289.13 76.3917 288.646 83.7448 287.68 85.6943C288.52 87.6014 289.718 88.555 291.273 88.555C294.089 88.555 295.497 85.6519 295.497 79.8457V40.6221Z" fill="#656665"/>
</svg>
