<svg width="147" height="72" viewBox="0 0 147 72" fill="none" xmlns="http://www.w3.org/2000/svg">
<path d="M0 26.1819C0 27.2918 0.0991655 29.4076 0.297497 32.5292C0.495828 35.6739 0.594993 38.0093 0.594993 39.5354C0.594993 42.0096 0.570202 45.7324 0.520619 50.7038C0.471036 55.6521 0.446245 59.3864 0.446245 61.9068C0.446245 68.1038 0.875962 71.2023 1.7354 71.2023H5.40452C6.26396 70.5779 7.04902 69.8611 7.7597 69.0518C8.45386 68.2194 9.02406 67.3985 9.47031 66.5892C9.93308 65.7568 10.3297 64.8203 10.6603 63.7798C10.9908 62.7162 11.247 61.7103 11.4288 60.7623C11.6106 59.7911 11.7511 58.6696 11.8503 57.3979C11.9494 56.1955 12.0073 55.1087 12.0238 54.1375C12.0569 53.1433 12.0734 51.8484 12.0734 50.2529V46.3336L12.123 44.4606L12.1726 42.7611C12.1726 41.0037 12.0156 39.2579 11.7015 37.5237C11.3875 35.7664 10.9247 34.0784 10.3132 32.4598C9.70169 30.8181 8.97448 29.3498 8.13157 28.0549C7.28867 26.76 6.31354 25.7426 5.20619 25.0027C4.09884 24.2396 2.95844 23.8581 1.78498 23.8581C1.33873 23.8581 0.925545 24.1009 0.54541 24.5864C0.181803 25.0489 0 25.5807 0 26.1819ZM3.99141 65.8956C3.99141 62.404 3.86746 57.1782 3.61954 50.2182C3.3551 43.4663 3.22288 38.2405 3.22288 34.5409C3.22288 31.4886 3.34684 29.0261 3.59475 27.1531C7.52832 27.8005 9.4951 35.2692 9.4951 49.5592C9.4951 50.646 9.48684 51.4668 9.47031 52.0218C9.43725 52.9236 9.37114 53.9872 9.27198 55.2128C9.18934 56.4383 9.07365 57.5597 8.9249 58.5771C8.75962 59.7333 8.5365 60.8779 8.25553 62.0109C7.97456 63.1208 7.66054 64.0573 7.31346 64.8203C6.9168 65.6528 6.42923 66.3233 5.85077 66.832C5.2723 67.3407 4.65252 67.5951 3.99141 67.5951V65.8956Z" fill="#656665"/>
<path d="M29.8736 72C30.2042 72 30.4769 71.8266 30.6917 71.4797C30.9066 71.1329 31.014 70.7051 31.014 70.1964C31.014 69.8727 30.9727 69.549 30.8901 69.2253C30.8074 68.8784 30.6752 68.4622 30.4934 67.9766L30.1711 67.0748C29.5431 65.1787 29.0059 63.0861 28.5597 60.7969C28.1134 58.4847 27.6589 55.5596 27.1961 52.0218L26.2293 45.2583L27.0226 43.1773L27.9895 40.6106C28.1878 39.9632 28.3779 39.1886 28.5597 38.2868C28.7415 37.385 28.8324 36.5988 28.8324 35.9282V30.9337C28.8324 29.3613 28.5597 28.0202 28.0143 26.9103C27.4689 25.7773 26.7168 24.9217 25.7582 24.3437C24.8162 23.7425 23.7501 23.4419 22.5602 23.4419C21.4363 23.4419 20.8743 24.5633 20.8743 26.8062C20.8743 31.084 21.0231 37.5584 21.3206 46.2295C21.6016 55.155 21.742 61.6178 21.742 65.6181L21.6925 70.3698L22.3618 71.4104H23.7749L24.3451 69.5027C23.7006 65.8956 23.3783 60.9588 23.3783 54.6925C23.3783 53.2126 23.3865 51.9062 23.4031 50.7732C23.4196 49.6401 23.4279 48.3799 23.4279 46.9926H24.0476C24.3451 48.01 24.9649 51.8831 25.907 58.6118L26.2541 61.0051C26.6673 63.8492 27.1961 66.3696 27.8407 68.5663C28.4853 70.8554 29.1629 72 29.8736 72ZM26.3037 32.7026C26.3037 33.905 26.188 35.2924 25.9566 36.8647C25.7252 38.414 25.4029 39.8129 24.9897 41.0615C24.5931 42.3102 24.1468 43.1195 23.651 43.4894C23.651 41.4084 23.6179 38.7377 23.5518 35.4773C23.4857 32.2401 23.4526 29.4423 23.4526 27.0837C23.4526 26.945 23.4857 26.7484 23.5518 26.4941L23.6262 26.0779C24.2212 26.101 24.7087 26.3207 25.0889 26.7369C25.4855 27.13 25.7665 27.6965 25.9318 28.4364C26.0805 29.1763 26.1797 29.8585 26.2293 30.4828C26.2789 31.084 26.3037 31.8239 26.3037 32.7026Z" fill="#656665"/>
<path d="M44.3518 62.2537C44.3518 60.9819 44.3105 58.4731 44.2278 54.7272C44.1452 50.9813 44.1039 48.4609 44.1039 47.166C44.1039 45.6399 44.1535 43.3738 44.2526 40.3678C44.3353 37.015 44.3766 34.7605 44.3766 33.6044C44.3766 31.2921 44.3105 29.0954 44.1782 27.0144H46.7813C47.1615 27.0144 47.5003 26.8294 47.7978 26.4594C48.0953 26.0894 48.244 25.6848 48.244 25.2455C48.244 24.8524 48.0788 24.494 47.7482 24.1702C47.4342 23.8928 46.9136 23.754 46.1863 23.754H40.1372C38.468 23.754 37.6333 24.2974 37.6333 25.3842C37.6333 26.101 37.7655 26.5981 38.03 26.8756C38.2944 27.1531 38.6911 27.2918 39.22 27.2918C39.4348 27.2918 39.6332 27.2803 39.815 27.2571C39.9968 27.234 40.1868 27.2225 40.3852 27.2225H41.352C41.5173 29.5116 41.5999 32.0552 41.5999 34.853C41.5999 36.2404 41.5586 38.8764 41.476 42.7611C41.3768 46.2526 41.3272 48.8886 41.3272 50.6691C41.3272 52.5421 41.3851 55.0509 41.5008 58.1956C41.6165 61.3403 41.6743 63.8607 41.6743 65.7568L41.6247 66.2424L41.5751 66.6933H40.1372C39.9389 66.7164 39.7406 66.9361 39.5423 67.3523C39.3439 67.7454 39.2448 68.15 39.2448 68.5663C39.2448 69.6299 39.848 70.1617 41.0545 70.1617L41.6743 70.0924C42.0544 70.1849 43.0378 70.2311 44.6245 70.2311H46.8557C47.302 70.2311 47.6904 70.023 48.0209 69.6068C48.368 69.1674 48.5415 68.6472 48.5415 68.046C48.5415 66.8667 47.8474 66.2771 46.459 66.2771C46.145 66.2771 45.8806 66.2886 45.6657 66.3118C45.4509 66.3349 45.2277 66.3465 44.9964 66.3465H44.327C44.327 65.9996 44.3353 65.6759 44.3518 65.3753V64.3694V62.2537Z" fill="#656665"/>
<path d="M60.2431 42.7611C60.2431 40.9806 60.3257 38.5758 60.491 35.5467C60.6397 32.3789 60.7141 30.0319 60.7141 28.5058V27.6734H61.3091C62.3834 27.6734 63.2676 27.9046 63.9618 28.367C65.6806 28.367 66.5401 27.6965 66.5401 26.3554C66.5401 25.7542 66.2756 25.2455 65.7467 24.8292C65.2344 24.3899 64.5402 24.0777 63.6643 23.8928C62.309 23.6153 61.0446 23.4765 59.8712 23.4765C59.3423 23.4765 58.8795 23.6731 58.4829 24.0662C58.1027 24.4361 57.9127 24.9449 57.9127 25.5923C57.9127 28.367 57.8466 31.5811 57.7143 35.2346V36.9688C57.5986 39.6742 57.4829 44.7728 57.3673 52.2646C57.2185 59.8952 57.0036 65.9187 56.7227 70.3352C57.3838 71.052 57.987 71.4104 58.5325 71.4104C59.4084 71.4104 59.8464 70.3698 59.8464 68.2888V48.1718C60.4579 48.4493 61.1273 48.588 61.8545 48.588C62.3338 48.588 62.747 48.3915 63.0941 47.9984C63.4577 47.6053 63.6395 47.1082 63.6395 46.507C63.6395 45.2583 62.8214 44.634 61.1851 44.634H60.6645L60.2431 44.6687V42.7611Z" fill="#656665"/>
<path d="M79.1093 66.9014L79.1589 69.6415L80.101 70.5779C80.5472 70.5779 80.9439 70.3698 81.2909 69.9536C81.6545 69.5143 81.8363 69.0171 81.8363 68.4622C81.8363 63.8145 81.5554 57.0857 80.9934 48.2759C80.4315 39.4661 80.1505 32.7488 80.1505 28.1243L80.2001 27.708L80.2497 27.3959L81.2661 27.6387C81.795 27.8005 82.233 27.8815 82.5801 27.8815C83.0263 27.8815 83.4147 27.6965 83.7453 27.3265C84.0924 26.9565 84.2659 26.4941 84.2659 25.9391C84.2659 24.8061 83.737 24.2396 82.6793 24.2396H82.2578C82.1421 24.2627 82.0099 24.2743 81.8611 24.2743C81.0348 24.2743 79.8861 24.1587 78.4151 23.9274C76.8781 23.7193 75.7294 23.6153 74.9691 23.6153C74.589 23.6153 74.2254 23.7656 73.8783 24.0662C73.5312 24.3668 73.3577 24.7252 73.3577 25.1414C73.3577 25.627 73.5312 26.0316 73.8783 26.3554C74.4568 26.8872 75.7211 27.1878 77.6714 27.2571C77.721 29.8932 77.9441 36.171 78.3408 46.0908C78.7374 55.9874 79.0019 61.2132 79.1341 61.7681L79.0597 64.196L79.1093 66.9014Z" fill="#656665"/>
<path d="M95.1741 51.016C95.1741 49.6748 95.2733 48.6805 95.4716 48.0331C95.4716 46.1139 95.4468 43.2698 95.3972 39.5007C95.3477 35.7086 95.3229 32.8645 95.3229 30.9684C95.3229 30.2978 95.3807 29.396 95.4964 28.263C95.6121 27.13 95.6699 26.2282 95.6699 25.5576C95.6699 25.072 95.5377 24.6558 95.2733 24.309C95.0254 23.9621 94.7279 23.7887 94.3808 23.7887C93.2073 23.7887 92.6206 26.0316 92.6206 30.5175C92.6206 31.9973 92.7198 34.2171 92.9181 37.1769V37.6971C92.9181 41.4893 92.8107 46.7729 92.5958 53.5479C92.381 60.3692 92.2735 65.6643 92.2735 69.4334C92.2735 70.0114 92.414 70.5433 92.695 71.0288C92.9925 71.5144 93.3313 71.7572 93.7114 71.7572C94.3395 71.7572 94.9179 71.5375 95.4468 71.0982C97.2318 71.0982 98.7441 71.3757 99.9836 71.9306C100.397 71.8613 100.752 71.6532 101.05 71.3063C101.364 70.9595 101.521 70.5433 101.521 70.0577C101.521 68.6703 100.612 67.9766 98.7937 67.9766C98.3309 67.9766 97.9425 67.9882 97.6285 68.0113L96.6864 68.0807C95.546 68.0807 94.9758 66.4505 94.9758 63.1902C94.9758 61.5947 95.0088 59.6986 95.0749 57.5019C95.1411 55.3053 95.1741 53.4323 95.1741 51.8831V51.016Z" fill="#656665"/>
<path d="M116.197 45.6052C116.214 43.3391 116.718 39.9054 117.709 35.3039C118.668 30.8643 119.147 27.4421 119.147 25.0373C119.147 24.6211 119.015 24.2743 118.751 23.9968C118.503 23.6962 118.222 23.5459 117.908 23.5459C117.247 23.5459 116.652 24.7136 116.123 27.049C115.577 29.4538 115.115 32.1245 114.735 35.0611C114.354 37.9977 114.09 39.7666 113.941 40.3678C113.859 39.9285 113.668 38.9573 113.371 37.4544C113.09 35.9282 112.735 34.2287 112.305 32.3558C111.892 30.4597 111.495 28.8989 111.115 27.6734C110.47 25.6385 109.859 24.598 109.28 24.5518L108.14 25.731V26.1126C108.14 26.945 108.454 28.6445 109.082 31.2112C109.611 33.3385 110.322 36.0323 111.214 39.2926C112.123 42.5298 112.751 44.7381 113.098 45.9173V47.7556C113.115 48.4262 113.222 50.091 113.421 52.7502C113.602 55.1781 113.693 56.9817 113.693 58.1609C113.693 65.1209 113.503 69.1328 113.123 70.1964C113.454 71.2369 113.925 71.7572 114.536 71.7572C115.644 71.7572 116.197 70.1733 116.197 67.0055V45.6052Z" fill="#656665"/>
<g clip-path="url(#clip0)">
<path d="M146.537 0H129.544C129.454 0 129.365 0.0505367 129.307 0.14833C129.181 0.362096 129.237 0.667151 129.393 0.785682L133.356 3.80565C133.357 3.80593 133.357 3.80649 133.357 3.80715L134.28 12.5124C134.313 12.814 134.566 12.9686 134.743 12.791L138.614 8.89919C138.614 8.89874 138.615 8.89868 138.615 8.89907L141.358 11.0339C141.489 11.1356 141.658 11.0797 141.743 10.9064L144.627 5.03955C144.72 4.85013 144.687 4.58972 144.553 4.45796C144.419 4.32614 144.235 4.37295 144.142 4.56237L141.41 10.119C141.41 10.1198 141.409 10.1201 141.409 10.1196L135.938 5.8622C135.937 5.86137 135.937 5.85909 135.939 5.85848L145.785 1.21399C145.786 1.21338 145.787 1.21549 145.787 1.21705L144.97 2.87753C144.877 3.06634 144.899 3.33286 145.03 3.46885C145.165 3.60829 145.353 3.56292 145.447 3.37067L146.782 0.656366C146.79 0.639298 146.798 0.620784 146.804 0.602048C146.9 0.326737 146.752 0 146.537 0ZM138.038 8.44964C138.038 8.45036 138.039 8.45225 138.038 8.45308L134.957 11.5507C134.956 11.5517 134.954 11.5506 134.955 11.5488L135.437 6.42878C135.437 6.42739 135.438 6.42661 135.439 6.42728L138.038 8.44964ZM142.765 1.75755L135.108 5.36929C135.003 5.41932 134.924 5.55409 134.909 5.71042L134.556 9.45753C134.556 9.45987 134.553 9.45987 134.553 9.45759L133.962 3.88226C133.962 3.88115 133.962 3.88015 133.963 3.87998L142.765 1.75361C142.766 1.75316 142.767 1.75672 142.765 1.75755ZM143.039 0.83961L133.678 3.1012C133.678 3.10125 133.677 3.1012 133.677 3.10097L130.709 0.839443C130.708 0.838442 130.708 0.835607 130.71 0.835607H143.039C143.04 0.835607 143.041 0.839221 143.039 0.83961Z" fill="#656665"/>
<path d="M132.35 16.721C132.268 16.7228 132.183 16.7275 132.1 16.7352C131.937 16.7501 131.814 16.9488 131.824 17.1791C131.834 17.4002 131.964 17.57 132.118 17.57C132.125 17.57 132.131 17.5697 132.138 17.5691C132.212 17.5624 132.286 17.5581 132.359 17.5566C132.522 17.5531 132.652 17.3633 132.65 17.1326C132.648 16.9019 132.513 16.7163 132.35 16.721Z" fill="#656665"/>
<path d="M133.801 17.0156C133.648 16.9452 133.488 16.8865 133.324 16.8411C133.164 16.7965 133.008 16.9442 132.977 17.1707C132.946 17.3971 133.05 17.6167 133.21 17.6611C133.351 17.7002 133.489 17.7504 133.619 17.8104C133.772 17.8806 133.941 17.7586 133.991 17.542C134.041 17.3225 133.956 17.0868 133.801 17.0156Z" fill="#656665"/>
<path d="M130.727 20.8824C130.704 20.6919 130.691 20.4954 130.688 20.2984C130.684 20.0677 130.548 19.8853 130.386 19.8904C130.223 19.8957 130.093 20.0871 130.097 20.3178C130.101 20.5555 130.117 20.7929 130.145 21.0235C130.172 21.2478 130.327 21.4033 130.486 21.3647C130.647 21.3258 130.755 21.1098 130.727 20.8824Z" fill="#656665"/>
<path d="M132.168 23.4626C132.043 23.4 131.921 23.319 131.807 23.2219C131.667 23.1034 131.486 23.1678 131.402 23.3658C131.318 23.5638 131.364 23.8203 131.503 23.9389C131.652 24.0643 131.809 24.1691 131.97 24.2502C132.13 24.3304 132.309 24.1974 132.354 23.9663C132.394 23.7581 132.311 23.5347 132.168 23.4626Z" fill="#656665"/>
<path d="M132.551 15.1065C132.45 14.9258 132.264 14.8956 132.136 15.039C132.011 15.1796 131.888 15.3291 131.771 15.4834C131.652 15.6407 131.645 15.905 131.756 16.0739C131.866 16.2404 132.056 16.2499 132.174 16.0948C132.279 15.9556 132.39 15.8205 132.503 15.6935C132.631 15.55 132.652 15.2873 132.551 15.1065Z" fill="#656665"/>
<path d="M131.209 22.4658C131.127 22.3157 131.053 22.1526 130.989 21.9812C130.913 21.7773 130.734 21.6995 130.59 21.8074C130.446 21.9154 130.391 22.1682 130.467 22.3721C130.547 22.5856 130.64 22.7891 130.742 22.9769C130.848 23.1712 131.056 23.1922 131.181 23.0214C131.288 22.8753 131.3 22.6318 131.209 22.4658Z" fill="#656665"/>
<path d="M130.766 18.0276C130.616 17.9371 130.443 18.0359 130.379 18.2482C130.309 18.4821 130.251 18.7124 130.212 18.914C130.17 19.1367 130.263 19.3661 130.42 19.4265C130.446 19.4364 130.472 19.4412 130.497 19.4412C130.628 19.4412 130.747 19.3187 130.782 19.1326C130.804 19.0175 130.847 18.8274 130.922 18.5757C130.986 18.3634 130.916 18.118 130.766 18.0276Z" fill="#656665"/>
<path d="M131.535 16.4152C131.407 16.2733 131.221 16.3058 131.121 16.4878C131.022 16.6671 130.928 16.8536 130.84 17.0423C130.75 17.2351 130.788 17.4942 130.924 17.621C131.059 17.7462 131.245 17.6916 131.333 17.5014C131.412 17.3315 131.498 17.1633 131.587 17.0017C131.687 16.8197 131.664 16.5571 131.535 16.4152Z" fill="#656665"/>
<path d="M135.092 18.1115C134.976 17.9412 134.844 17.7824 134.701 17.6395C134.567 17.5068 134.383 17.5523 134.289 17.7412C134.196 17.93 134.228 18.1906 134.361 18.3232C134.474 18.4355 134.577 18.5593 134.667 18.6912C134.778 18.8552 134.968 18.8602 135.084 18.7022C135.202 18.5421 135.205 18.2777 135.092 18.1115Z" fill="#656665"/>
<path d="M133.713 23.8681C133.679 23.6424 133.522 23.4989 133.362 23.5471C133.239 23.5844 133.11 23.6091 132.979 23.6206L132.956 23.6224C132.793 23.6338 132.667 23.8299 132.675 24.0604C132.683 24.2839 132.814 24.4575 132.97 24.4575C132.975 24.4575 132.98 24.4573 132.985 24.457L133.015 24.4546C133.176 24.4408 133.334 24.4103 133.486 24.3643C133.645 24.3158 133.747 24.0937 133.713 23.8681Z" fill="#656665"/>
<path d="M135.726 20.1066C135.712 19.8534 135.679 19.6085 135.629 19.3789C135.58 19.1585 135.415 19.0355 135.259 19.1043C135.103 19.1729 135.017 19.4071 135.065 19.6275C135.103 19.7975 135.127 19.9807 135.137 20.1717C135.15 20.3987 135.294 20.5734 135.455 20.5557C135.615 20.5379 135.739 20.3336 135.726 20.1066Z" fill="#656665"/>
<path d="M135.415 21.0209C135.259 20.9556 135.095 21.082 135.049 21.3032C135.01 21.4876 134.96 21.6684 134.9 21.8407C134.828 22.0477 134.889 22.2981 135.035 22.4C135.179 22.5006 135.359 22.4137 135.43 22.2095C135.505 21.9948 135.567 21.7695 135.615 21.5399C135.661 21.3186 135.572 21.0862 135.415 21.0209Z" fill="#656665"/>
<path d="M133.753 14.1676C133.684 13.9587 133.508 13.8689 133.361 13.9671C133.216 14.0634 133.072 14.1683 132.934 14.279C132.823 14.3674 132.764 14.5515 132.79 14.7273C132.818 14.9193 132.941 15.0606 133.079 15.0606C133.129 15.0606 133.179 15.0431 133.225 15.0064C133.35 14.906 133.48 14.8108 133.612 14.7234C133.759 14.6253 133.823 14.3764 133.753 14.1676Z" fill="#656665"/>
<path d="M134.841 22.7786C134.728 22.6113 134.542 22.6045 134.423 22.7633C134.326 22.8945 134.219 23.013 134.107 23.1157C133.97 23.2409 133.931 23.4994 134.019 23.6933C134.106 23.8845 134.292 23.9413 134.427 23.8177C134.57 23.6869 134.706 23.5361 134.83 23.3693C134.948 23.2104 134.953 22.946 134.841 22.7786Z" fill="#656665"/>
<path d="M134.857 13.6795C134.815 13.4566 134.653 13.3243 134.495 13.3837C134.416 13.4138 134.336 13.4461 134.258 13.4795C134.111 13.5433 134.021 13.7658 134.058 13.9784C134.097 14.2084 134.271 14.3477 134.431 14.2788C134.502 14.2481 134.575 14.2186 134.648 14.191C134.805 14.1314 134.899 13.9024 134.857 13.6795Z" fill="#656665"/>
<path d="M128.221 27.8567C128.186 27.7629 128.153 27.667 128.122 27.5718C128.053 27.3627 127.877 27.2722 127.729 27.3696C127.582 27.4671 127.518 27.7156 127.586 27.9248C127.621 28.0302 127.658 28.1362 127.696 28.2399C127.77 28.4422 127.95 28.5241 128.094 28.4196C128.238 28.3139 128.295 28.0618 128.221 27.8567Z" fill="#656665"/>
<path d="M127.829 26.4629C127.791 26.2734 127.758 26.0802 127.732 25.8886C127.7 25.6622 127.545 25.5145 127.385 25.5587C127.225 25.6029 127.121 25.8223 127.152 26.0488C127.182 26.2632 127.218 26.4793 127.261 26.6913C127.305 26.9102 127.471 27.0414 127.625 26.979C127.782 26.9159 127.873 26.6849 127.829 26.4629Z" fill="#656665"/>
<path d="M127.375 23.6836C127.213 23.6693 127.072 23.8437 127.062 24.0739C127.054 24.2377 127.05 24.4037 127.05 24.5675C127.05 24.7178 127.047 24.864 127.117 24.9873C127.173 25.0875 127.262 25.1469 127.353 25.1436C127.444 25.1408 127.529 25.0782 127.583 24.9759C127.649 24.852 127.641 24.7142 127.641 24.5675C127.641 24.4214 127.644 24.2733 127.651 24.1271C127.661 23.8969 127.538 23.6983 127.375 23.6836Z" fill="#656665"/>
<path d="M127.696 21.864C127.54 21.793 127.374 21.9137 127.324 22.1333C127.276 22.3423 127.234 22.556 127.199 22.7686C127.162 22.9932 127.26 23.2181 127.419 23.2709C127.576 23.323 127.737 23.1814 127.774 22.9598C127.806 22.7693 127.843 22.5775 127.886 22.39C127.936 22.1704 127.851 21.9349 127.696 21.864Z" fill="#656665"/>
<path d="M129.202 18.813C129.089 18.646 128.902 18.6398 128.784 18.7991C128.754 18.8399 128.724 18.8813 128.694 18.9234C128.614 19.0363 128.536 19.1557 128.46 19.2783C128.353 19.452 128.365 19.7159 128.488 19.8678C128.609 20.0177 128.799 19.9996 128.904 19.8283C128.971 19.7197 129.041 19.6141 129.112 19.5143C129.138 19.4769 129.165 19.44 129.192 19.4038C129.31 19.2444 129.314 18.98 129.202 18.813Z" fill="#656665"/>
<path d="M128.314 20.2048C128.175 20.084 127.993 20.1454 127.908 20.3419C127.827 20.528 127.75 20.7213 127.68 20.9165C127.606 21.1221 127.663 21.3737 127.809 21.4785C127.952 21.5821 128.133 21.4988 128.206 21.2961C128.269 21.1206 128.338 20.9468 128.411 20.7796C128.496 20.583 128.453 20.3257 128.314 20.2048Z" fill="#656665"/>
<path d="M130.132 17.9283C130.048 17.7303 129.867 17.6656 129.727 17.7839C129.655 17.8441 129.584 17.9075 129.515 17.9725C129.379 18.1001 129.342 18.3594 129.432 18.5516C129.521 18.7413 129.707 18.7947 129.842 18.6688C129.903 18.6111 129.966 18.5547 130.03 18.5013C130.169 18.3829 130.215 18.1264 130.132 17.9283Z" fill="#656665"/>
</g>
<defs>
<clipPath id="clip0">
<rect width="20.1158" height="28.4651" fill="white" transform="translate(126.884)"/>
</clipPath>
</defs>
</svg>
