<svg width="237" height="27" viewBox="0 0 237 27" fill="none" xmlns="http://www.w3.org/2000/svg">
<path d="M0.550784 25.7159C0.248395 25.7159 0.0647978 25.4634 0 24.9585C0.0431985 24.8268 0.0648 24.4646 0.0648 23.8719C0.0648 21.8524 0.097197 18.8561 0.161995 14.8829C0.226793 10.9317 0.259193 8.07805 0.259193 6.32195L0.32399 5.13658L0.421188 4.14878C0.421188 3.99512 0.496784 3.91829 0.647979 3.91829C0.755976 3.91829 0.907172 3.95122 1.10157 4.01707L1.19876 4.05C1.19876 4.53293 1.18796 4.97195 1.16636 5.36707V6.65122V10.2402C1.18796 11.2939 1.19876 12.4902 1.19876 13.8293C1.17716 13.939 1.16636 14.1805 1.16636 14.5537L1.13396 15.2451C1.11236 15.6841 1.10157 16.1341 1.10157 16.5951C1.10157 17.1 1.11236 17.561 1.13396 17.978L1.16636 19.3939L1.06917 19.6573L1.10157 19.6244C1.10157 19.6902 1.09077 19.7341 1.06917 19.7561V19.8878C1.06917 20.0634 1.10156 20.2171 1.16636 20.3488L1.06917 23.5098V23.7073C1.06917 24.0805 1.07997 24.3 1.10157 24.3659C1.10157 24.4756 1.15556 24.5305 1.26356 24.5305L2.9483 24.5963C3.44508 24.5963 3.77987 24.6073 3.95267 24.6293C4.14706 24.6293 4.26586 24.6293 4.30906 24.6293H4.40625C4.51425 24.6293 4.62224 24.6951 4.73024 24.8268C4.83824 24.9366 4.89224 25.0573 4.89224 25.189C4.89224 25.4524 4.71944 25.5951 4.37385 25.6171C4.00667 25.5951 3.1103 25.5841 1.68474 25.5841L1.74954 25.6171C1.53355 25.6171 1.32836 25.628 1.13396 25.65C0.961169 25.6939 0.766777 25.7159 0.550784 25.7159Z" fill="#A6ACA8"/>
<path d="M8.65127 25.7159C8.26248 25.7159 8.04649 25.4854 8.00329 25.0244V24.5963C8.02489 24.4866 8.03569 24.3549 8.03569 24.2012L7.90609 24.0695C8.07889 23.6085 8.16528 23.1585 8.16528 22.7195C8.16528 22.2146 8.13288 21.4902 8.06809 20.5463L8.00329 18.3732C8.00329 17.2756 8.03569 15.6293 8.10049 13.4341C8.18688 11.4805 8.23008 9.82317 8.23008 8.46219L8.16528 6.48658C8.12209 5.8939 8.10049 5.23536 8.10049 4.51097C8.10049 4.18171 8.17608 3.95122 8.32728 3.81951C8.47847 3.66585 8.71607 3.58902 9.04006 3.58902C9.25605 3.58902 9.42884 3.65488 9.55844 3.78658C9.60164 3.80854 9.91483 3.85244 10.498 3.91829C11.038 3.98414 11.5024 4.08293 11.8912 4.21463C12.3015 4.34634 12.5067 4.51098 12.5067 4.70854C12.5067 4.92805 12.3015 5.14756 11.8912 5.36707C10.66 4.95 9.78523 4.74146 9.26685 4.74146L9.10485 4.93902C9.12645 5.13658 9.13725 5.60854 9.13725 6.35488C9.13725 7.29878 9.11565 8.1439 9.07245 8.89024C9.05085 9.65854 9.04006 10.5146 9.04006 11.4585C9.04006 12.0732 9.19125 12.3805 9.49364 12.3805L10.012 12.3476C10.1848 12.3256 10.3684 12.3146 10.5628 12.3146C11.4052 12.3146 11.8264 12.5122 11.8264 12.9073C11.8264 13.1488 11.7724 13.3573 11.6644 13.5329C11.5564 13.6866 11.3944 13.7634 11.1784 13.7634C10.8544 13.7634 10.606 13.6756 10.4332 13.5L9.39644 13.3354H9.23445L9.07245 13.5V13.5988C9.11565 13.9719 9.13725 14.839 9.13725 16.2C9.13725 17.0561 9.12645 17.8354 9.10485 18.5378L9.07245 20.8756C9.07245 21.7317 9.10485 22.6098 9.16965 23.5098C9.19125 24.0146 9.29925 24.3549 9.49364 24.5305C9.68803 24.6841 10.0444 24.761 10.5628 24.761L11.146 24.728C11.3404 24.7061 11.5564 24.6951 11.794 24.6951C12.4203 24.6951 12.7335 24.8378 12.7335 25.1232C12.7335 25.5183 12.2583 25.7159 11.308 25.7159H8.65127Z" fill="#A6ACA8"/>
<path d="M18.4636 24.8268L18.4312 23.6085C18.4096 23.2573 18.3988 22.8622 18.3988 22.4232C18.3988 22.2037 18.4096 22.0171 18.4312 21.8634L18.4636 21.2707C18.4636 21.0512 18.4204 20.7878 18.334 20.4805C18.334 19.0098 18.226 16.2768 18.01 12.2817C17.794 8.41829 17.6752 5.79512 17.6536 4.4122C16.3145 4.4122 15.4181 4.37927 14.9645 4.31341C14.5325 4.20366 14.3165 4.02805 14.3165 3.78658C14.4245 3.54512 14.6297 3.42439 14.9321 3.42439C15.5801 3.42439 16.5196 3.46829 17.7508 3.5561C18.874 3.66585 19.8135 3.72073 20.5695 3.72073H21.2499L21.9303 3.6878C22.319 3.6878 22.5134 3.83049 22.5134 4.11585C22.5134 4.24756 22.4378 4.35732 22.2867 4.44512C22.1571 4.51097 21.9951 4.5439 21.8007 4.5439C21.3687 4.5439 20.9151 4.52195 20.4399 4.47805L19.0468 4.4122C18.9604 4.4122 18.9172 4.44512 18.9172 4.51097C18.8956 4.57683 18.8848 4.78537 18.8848 5.13658C18.8848 7.26585 19.0144 10.4927 19.2736 14.8171C19.5111 19.2951 19.6299 22.511 19.6299 24.4646C19.6299 24.6183 19.5327 24.761 19.3384 24.8927C19.1656 25.0244 18.9928 25.0902 18.82 25.0902L18.4636 24.8268Z" fill="#A6ACA8"/>
<path d="M26.2353 5.53171C26.1705 5.4439 26.1381 5.27927 26.1381 5.0378C26.1381 4.42317 26.3973 3.25976 26.9156 1.54756C27.2396 0.537805 27.5312 0.0219509 27.7904 0H27.8552C27.9848 0 28.0928 0.0548784 28.1792 0.164634C28.2656 0.252438 28.3196 0.362194 28.3412 0.493902C28.3628 0.82317 28.352 1.13049 28.3088 1.41585C28.2656 1.67927 28.2008 1.94268 28.1144 2.2061C28.0496 2.46951 28.0064 2.6561 27.9848 2.76585C27.7904 3.40244 27.4772 4.18171 27.0452 5.10366C26.8508 5.47683 26.6565 5.66341 26.4621 5.66341C26.3973 5.66341 26.3217 5.61951 26.2353 5.53171Z" fill="#A6ACA8"/>
<path d="M32.3432 25.6829C32.1056 25.639 31.8788 25.5402 31.6628 25.3866C31.4469 25.2549 31.3281 25.0902 31.3065 24.8927L31.4684 24.6293C31.5548 24.6293 31.7492 24.6622 32.0516 24.728C32.2892 24.8159 32.4836 24.8598 32.6348 24.8598C33.11 24.8598 33.5312 24.6732 33.8984 24.3C34.2656 23.9049 34.5463 23.4 34.7407 22.7854C35.0431 21.6439 35.1943 20.5683 35.1943 19.5585C35.1943 18.0439 34.7407 16.4195 33.8336 14.6854C33.272 13.6756 32.84 12.8744 32.5376 12.2817C32.2352 11.689 31.9652 11.0085 31.7276 10.2402C31.4468 9.34024 31.3065 8.47317 31.3065 7.63902C31.3065 6.84878 31.5008 5.91585 31.8896 4.84024C32.084 4.33536 32.354 3.92927 32.6996 3.62195C33.0668 3.29268 33.4556 3.12805 33.866 3.12805C34.1468 3.12805 34.4168 3.22683 34.6759 3.42439C34.9567 3.62195 35.0971 3.83049 35.0971 4.05C35.0971 4.22561 34.9567 4.31341 34.6759 4.31341C34.5895 4.31341 34.4815 4.28049 34.352 4.21463C34.2224 4.14878 34.1036 4.11585 33.9956 4.11585C33.6716 4.11585 33.38 4.24756 33.1208 4.51097C32.8616 4.77439 32.6672 5.11463 32.5376 5.53171C32.2784 6.3439 32.1488 7.09024 32.1488 7.77073C32.1488 8.1878 32.2028 8.61585 32.3108 9.05488C32.3324 9.18658 32.354 9.29634 32.3756 9.38415C32.3972 9.47195 32.408 9.5378 32.408 9.58171L32.6024 10.2402L32.7644 10.8329L33.0236 11.4256C33.0884 11.5793 33.1532 11.7219 33.218 11.8537C33.3044 11.9634 33.38 12.0732 33.4448 12.1829L33.8336 12.8744C33.92 13.0061 34.1036 13.3244 34.3843 13.8293C34.6651 14.3122 34.9243 14.828 35.1619 15.3768C35.3779 15.8378 35.5399 16.2768 35.6479 16.6939C35.7559 17.089 35.8531 17.5719 35.9395 18.1427C36.0043 18.6915 36.0367 19.2951 36.0367 19.9537C36.0367 21.0073 35.8963 21.9951 35.6155 22.9171C35.2267 24.0146 34.6651 24.7829 33.9308 25.222C33.5204 25.4854 33.0452 25.6171 32.5052 25.6171L32.3432 25.6829ZM34.9351 4.21463C34.9351 4.19268 34.9243 4.18171 34.9027 4.18171V4.21463H34.9351Z" fill="#A6ACA8"/>
<path d="M45.5293 25.2549C45.7453 23.2573 45.8533 20.5902 45.8533 17.2537C45.8533 15.7829 45.9181 13.5659 46.0477 10.6024C46.1989 7.85854 46.2745 5.65244 46.2745 3.98415C46.2745 3.78658 46.3609 3.63293 46.5337 3.52317C46.7281 3.41341 46.9441 3.35854 47.1817 3.35854C47.9376 3.35854 48.7692 3.44634 49.6764 3.62195C50.5835 3.79756 51.0371 4.02805 51.0371 4.31341C51.0371 4.68658 50.6591 4.87317 49.9032 4.87317C49.428 4.65366 48.8232 4.5439 48.0888 4.5439L47.7 4.57683C47.6353 4.59878 47.5812 4.63171 47.5381 4.67561C47.5165 4.71951 47.4949 4.78537 47.4733 4.87317C47.4301 5.04878 47.3869 5.16951 47.3437 5.23537C47.3437 6.22317 47.3005 7.38658 47.2141 8.72561C47.1061 10.0207 47.0521 11.1732 47.0521 12.1829V13.3354C47.0521 13.4232 47.2249 13.4561 47.5705 13.4341C48.672 13.4341 49.2228 13.6098 49.2228 13.961C49.2228 14.1366 49.1364 14.2902 48.9636 14.4219C48.8124 14.5317 48.6396 14.5866 48.4452 14.5866C48.3156 14.5866 48.132 14.5537 47.8944 14.4878C47.6784 14.4219 47.4949 14.389 47.3437 14.389C46.9549 14.389 46.7605 14.9268 46.7605 16.0024V19.7232C46.7605 20.25 46.7929 21.0293 46.8577 22.061C46.9225 23.1146 46.9549 23.9049 46.9549 24.4317C46.9549 25.3098 46.6957 25.7488 46.1773 25.7488L45.5293 25.2549ZM56.059 25.2878C55.5622 25.2878 55.2706 25.178 55.1842 24.9585C55.0762 24.9585 54.9898 24.9695 54.925 24.9915H54.6658C54.1906 24.9915 53.8882 24.8817 53.7586 24.6622C53.7586 24.5085 53.845 24.3768 54.0178 24.2671L54.1798 24.1024H55.1194L55.249 23.9707L55.3138 23.6744L55.3462 23.2793C55.3462 21.9402 55.3138 20.7439 55.249 19.6902L55.1842 18.472L55.1194 16.0683C55.1194 15.2122 55.1518 13.928 55.2166 12.2159L55.2814 8.39634C55.2814 6.72805 55.2274 5.45488 55.1194 4.57683C54.925 4.51098 54.601 4.47805 54.1474 4.47805L53.791 4.51097C53.6614 4.53293 53.5211 4.5439 53.3699 4.5439C52.9595 4.5439 52.7543 4.35732 52.7543 3.98415C52.7543 3.89634 52.8515 3.80854 53.0459 3.72073C53.2403 3.63293 53.4023 3.58902 53.5319 3.58902C54.3526 3.58902 55.1734 3.63293 55.9942 3.72073C56.491 3.74268 56.9877 3.84146 57.4845 4.01707C57.8733 4.14878 58.0677 4.33537 58.0677 4.57683C58.0677 4.62073 58.0353 4.70854 57.9705 4.84024L57.2253 4.9061C57.0741 4.77439 56.7609 4.70854 56.2858 4.70854L56.1238 4.80732C56.1886 5.00488 56.221 5.58658 56.221 6.55244C56.221 8.00122 56.2102 9.30732 56.1886 10.4707L56.1238 14.389C56.1238 15.3768 56.167 16.5732 56.2534 17.978C56.3182 19.5805 56.3506 20.7878 56.3506 21.6V22.028C56.329 22.1817 56.3181 22.3793 56.3181 22.6207C56.3181 23.1256 56.3506 23.4329 56.4153 23.5427L56.383 23.6085C56.383 23.828 56.6205 23.9378 57.0957 23.9378C57.2901 23.9378 57.4521 23.9268 57.5817 23.9049H58.0677C58.6941 23.9049 59.0073 24.0585 59.0073 24.3659C59.0073 24.5634 58.9425 24.728 58.8129 24.8598C58.6833 24.9695 58.5105 25.0244 58.2945 25.0244C58.1001 25.0244 57.9273 25.0024 57.7761 24.9585C57.6033 24.9366 57.4197 24.9256 57.2253 24.9256C57.0957 24.9256 56.9013 24.9805 56.6421 25.0902C56.3829 25.2219 56.1886 25.2878 56.059 25.2878Z" fill="#A6ACA8"/>
<path d="M70.2429 25.4195C70.0701 25.4195 69.9405 25.3537 69.8541 25.222C69.7893 25.0902 69.7245 24.8927 69.6597 24.6293C69.6381 24.4537 69.5949 24.3 69.5301 24.1683L69.5625 24.0695C69.3897 23.0378 69.0225 21.7756 68.4609 20.2829L67.8777 18.5707C67.8345 18.5268 67.6293 17.9671 67.2622 16.8915L67.003 16.1012C65.059 9.99878 63.8387 6.69512 63.3419 6.19024C63.1691 6.78293 63.0827 7.55122 63.0827 8.49512C63.0827 9 63.0935 9.43902 63.1151 9.81219L63.1475 11.0963L63.1151 11.8866C63.0935 12.128 63.0827 12.3915 63.0827 12.6768C63.0827 13.1598 63.1043 13.5768 63.1475 13.928C63.1907 14.6305 63.2123 14.9817 63.2123 14.9817H63.1151C63.1151 18.6476 63.1907 20.6671 63.3419 21.0402V24.0037C63.4283 24.1793 63.4715 24.4098 63.4715 24.6951C63.4715 24.8707 63.4067 25.0244 63.2771 25.1561C63.1691 25.2878 63.0287 25.3537 62.8559 25.3537C62.4023 25.3537 62.1755 24.761 62.1755 23.5756L62.2403 22.5219C62.2835 22.1927 62.3051 21.8305 62.3051 21.4354C62.3051 20.3817 62.2727 18.8012 62.2079 16.6939C62.1431 14.5866 62.1107 13.0061 62.1107 11.9524C62.1107 11.3159 62.1431 10.339 62.2079 9.02195C62.2727 7.72683 62.3051 6.76097 62.3051 6.12439V5.69634C62.3051 4.62073 62.4995 3.91829 62.8883 3.58902L62.9855 3.6878L63.3095 3.62195C63.3959 3.6439 63.4931 3.70976 63.6011 3.81951C63.6875 3.90732 63.7307 4.0061 63.7307 4.11585L63.7955 4.31341C63.7955 4.35732 63.7955 4.40122 63.7955 4.44512C63.8171 4.46707 63.8279 4.47805 63.8279 4.47805C64.1734 6.03658 64.951 8.22073 66.1606 11.0305C67.3917 13.9939 68.1585 15.9585 68.4609 16.9244C68.6769 17.6927 68.8497 18.3732 68.9793 18.9659C69.3897 20.8317 69.8757 22.2695 70.4372 23.2793L70.502 23.1805C70.9988 18.3073 71.2472 12.3256 71.2472 5.23537L71.2148 4.84024C71.1932 4.73049 71.1824 4.5878 71.1824 4.4122C71.1824 3.95122 71.3336 3.72073 71.636 3.72073C71.8304 3.72073 71.9924 3.81951 72.122 4.01707C72.2732 4.21463 72.3488 4.43415 72.3488 4.67561V6.88171L72.1868 7.14512C72.1868 9.23049 72.068 12.6549 71.8304 17.4183C71.5928 22.1817 71.366 24.7719 71.15 25.189L70.5992 25.3207V25.3537L70.5668 25.3207L70.2429 25.4195Z" fill="#A6ACA8"/>
<path d="M77.4989 25.4524C77.3261 25.4524 77.2398 25.1561 77.2398 24.5634C77.1534 23.0488 77.1101 21.139 77.1101 18.8341C77.1101 17.3854 77.121 16.0902 77.1426 14.9488L77.1749 11.0634C77.1749 9.39512 77.1318 7.33171 77.0454 4.87317C76.851 4.69756 76.7538 4.47805 76.7538 4.21463C76.7538 4.06097 76.8402 3.90732 77.013 3.75366C77.2074 3.57805 77.3801 3.49024 77.5313 3.49024C77.7041 3.49024 77.8661 3.57805 78.0173 3.75366L78.3737 4.05C78.5033 4.11585 78.7517 4.18171 79.1189 4.24756C79.4861 4.31341 79.7453 4.37927 79.8965 4.44512C80.2204 4.62073 80.6524 4.96098 81.1924 5.46585C81.7108 5.99268 82.0672 6.32195 82.2616 6.45366L82.2292 6.51951C82.2508 6.65122 82.4128 6.93658 82.7152 7.37561C82.9528 7.70488 83.1471 8.01219 83.2983 8.29756C83.6439 9.30732 83.8167 10.6134 83.8167 12.2159C83.8167 12.5012 83.8059 12.7537 83.7843 12.9732V13.7634V14.0268L83.7519 14.3561C83.7519 14.7732 83.8167 15.1024 83.9463 15.3439C83.8167 16.0463 83.6547 17.3744 83.4603 19.328C83.3955 19.8988 83.2875 20.5024 83.1363 21.139C82.9851 21.7756 82.8016 22.3024 82.5856 22.7195C82.024 23.7951 81.0844 24.7061 79.7669 25.4524H77.4989ZM79.6373 24.4976C79.7885 24.322 79.9288 24.1793 80.0584 24.0695C80.0584 24.0695 80.134 24.0146 80.2852 23.9049L80.5444 23.6744C82.0564 22.2915 82.8124 19.6573 82.8124 15.772V15.1463C82.7908 14.9707 82.78 14.7841 82.78 14.5866L82.6504 11.261C82.5856 9.9878 82.2076 8.67073 81.5164 7.30976C81.1924 6.62927 80.7496 6.08049 80.188 5.66341C79.6481 5.22439 79.0757 5.00488 78.4709 5.00488C78.2117 5.00488 78.0821 7.03536 78.0821 11.0963C78.0821 15.7939 78.2117 19.8878 78.4709 23.378L78.4385 24.0037L78.5681 24.0695L78.6329 24.4976H79.6373Z" fill="#A6ACA8"/>
<path d="M97.0534 25.9134C94.5263 25.9134 93.2628 21.8744 93.2628 13.7963V12.6439C93.2628 6.51951 94.0404 3.45732 95.5955 3.45732C95.7035 3.45732 95.8547 3.49024 96.0491 3.5561C96.7403 3.79756 97.4206 3.95122 98.0902 4.01707C98.5006 4.10488 98.911 4.53293 99.3214 5.30122C99.775 6.09146 100.11 7.13414 100.326 8.42927C100.563 9.72439 100.682 11.0524 100.682 12.4134L100.617 12.578C100.617 13.3024 100.628 13.95 100.65 14.5207L100.682 16.4963C100.682 17.6159 100.639 18.6256 100.553 19.5256C100.423 20.8866 100.207 22.061 99.9045 23.0488C99.7102 23.6415 99.4834 24.1354 99.2242 24.5305C98.9866 24.9256 98.6842 25.2549 98.317 25.5183C97.9714 25.7817 97.5502 25.9134 97.0534 25.9134ZM96.9239 24.9585C97.7662 24.9585 98.3926 24.3549 98.803 23.1476C99.2134 21.9183 99.4618 20.6671 99.5482 19.3939C99.6346 18.0768 99.6778 17.0232 99.6778 16.2329C99.6778 15.3549 99.613 14.0598 99.4834 12.3476C99.3754 10.4378 99.3214 9.14268 99.3214 8.46219L99.1918 8.19878L99.2566 8.03414C99.2566 7.06829 98.9866 6.23415 98.4466 5.53171C97.9282 4.82927 97.291 4.47805 96.5351 4.47805C95.5415 4.47805 94.9475 4.96097 94.7531 5.92683C94.7099 6.2561 94.6667 6.72805 94.6235 7.34268C94.6235 8.96707 94.5587 10.0756 94.4291 10.6683C94.4291 10.9976 94.3967 11.5134 94.3319 12.2159L94.2671 13.7634C94.2671 14.2463 94.2779 14.6744 94.2995 15.0476L94.3319 16.3646C94.3319 17.3963 94.4183 18.5817 94.5911 19.9207C94.7207 20.9085 94.8719 21.7427 95.0447 22.4232C95.2175 23.1037 95.4659 23.6854 95.7899 24.1683C96.1139 24.6951 96.4919 24.9585 96.9239 24.9585Z" fill="#A6ACA8"/>
<path d="M108.286 25.7817C107.941 25.7817 107.563 25.661 107.152 25.4195C106.763 25.2 106.44 24.9366 106.18 24.6293C105.878 24.2341 105.64 23.1256 105.468 21.3037C105.295 19.4817 105.187 17.3963 105.144 15.0476C105.144 14.5207 105.133 14.1256 105.111 13.8622C105.068 8.35244 104.982 5.09268 104.852 4.08293L105.046 3.62195C105.543 3.6878 105.792 4.29146 105.792 5.43293L105.889 14.1585C105.889 14.7732 105.943 15.9366 106.051 17.6488C106.18 19.1854 106.245 20.3488 106.245 21.139C106.245 23.6415 107.055 24.8927 108.675 24.8927C109.669 24.8927 110.306 22.5878 110.587 17.978L110.619 17.3195C110.77 11.2829 110.846 6.81585 110.846 3.91829L110.813 3.62195C110.792 3.53414 110.781 3.43536 110.781 3.32561C110.781 3.08415 110.965 2.96341 111.332 2.96341C111.591 2.96341 111.753 3.02927 111.818 3.16097C111.861 3.38049 111.883 3.76463 111.883 4.31341C111.883 5.98171 111.818 7.10122 111.688 7.67195L111.721 7.86951C111.721 8.15488 111.688 8.5939 111.623 9.18659L111.559 10.5037V10.8329C111.58 10.9207 111.591 11.0305 111.591 11.1622C111.548 11.689 111.526 12.1939 111.526 12.6768C111.505 12.8305 111.494 13.072 111.494 13.4012C111.451 15.4866 111.407 17.2976 111.364 18.8341C111.299 20.7439 111.04 22.3573 110.587 23.6744C110.111 25.0793 109.345 25.7817 108.286 25.7817Z" fill="#A6ACA8"/>
<path d="M121.706 25.6829C121.447 25.3976 121.166 24.6402 120.864 23.411C120.561 22.1817 120.281 20.7988 120.021 19.2622C119.849 18.011 119.6 16.7707 119.276 15.5415C119.017 14.4439 118.769 13.8951 118.531 13.8951H118.434C117.959 13.8951 117.721 14.0488 117.721 14.3561C117.721 15.9366 117.808 18.3402 117.98 21.5671C118.067 23.5427 118.164 24.6951 118.272 25.0244L118.013 25.5841H117.559L117.3 25.3207C116.954 15.1793 116.782 8.26463 116.782 4.57683C116.782 4.33537 116.792 4.1378 116.814 3.98415C116.857 3.83049 116.933 3.6878 117.041 3.5561C117.127 3.40244 117.278 3.32561 117.494 3.32561C118.596 3.32561 119.481 3.6 120.151 4.14878C120.821 4.69756 121.155 5.4878 121.155 6.51951V8.92317C121.155 9.34024 121.015 9.9 120.734 10.6024C120.475 11.3049 120.183 11.9524 119.859 12.5451L119.438 13.3683C119.676 14.4878 120.14 16.5073 120.831 19.4268C121.544 22.3244 121.933 23.861 121.998 24.0366C122.019 24.0585 122.041 24.1134 122.063 24.2012C122.106 24.289 122.181 24.4207 122.289 24.5963C122.441 24.9037 122.516 25.1671 122.516 25.3866C122.516 25.6939 122.397 25.8476 122.16 25.8476L121.706 25.6829ZM117.883 13.0719C118.294 13.0719 118.661 12.8634 118.985 12.4463C119.309 12.0293 119.568 11.4915 119.762 10.8329C120.108 9.4939 120.281 8.42927 120.281 7.63902C120.281 7.13414 120.248 6.71707 120.183 6.38781C120.14 6.05854 120.054 5.70732 119.924 5.33415C119.665 4.56585 119.05 4.18171 118.078 4.18171C117.97 4.18171 117.883 4.28049 117.818 4.47805C117.754 4.65366 117.721 4.84024 117.721 5.0378C117.721 6.50854 117.743 7.83658 117.786 9.02195C117.808 10.2073 117.818 11.5354 117.818 13.0061L117.883 13.0719Z" fill="#A6ACA8"/>
<path d="M139.945 25.4195C139.772 25.4195 139.642 25.3537 139.556 25.222C139.491 25.0902 139.426 24.8927 139.362 24.6293C139.34 24.4537 139.297 24.3 139.232 24.1683L139.264 24.0695C139.092 23.0378 138.724 21.7756 138.163 20.2829L137.58 18.5707C137.536 18.5268 137.331 17.9671 136.964 16.8915L136.705 16.1012C134.761 9.99878 133.541 6.69512 133.044 6.19024C132.871 6.78293 132.785 7.55122 132.785 8.49512C132.785 9 132.795 9.43902 132.817 9.81219L132.849 11.0963L132.817 11.8866C132.795 12.128 132.785 12.3915 132.785 12.6768C132.785 13.1598 132.806 13.5768 132.849 13.928C132.893 14.6305 132.914 14.9817 132.914 14.9817H132.817C132.817 18.6476 132.893 20.6671 133.044 21.0402V24.0037C133.13 24.1793 133.173 24.4098 133.173 24.6951C133.173 24.8707 133.109 25.0244 132.979 25.1561C132.871 25.2878 132.731 25.3537 132.558 25.3537C132.104 25.3537 131.877 24.761 131.877 23.5756L131.942 22.5219C131.985 22.1927 132.007 21.8305 132.007 21.4354C132.007 20.3817 131.975 18.8012 131.91 16.6939C131.845 14.5866 131.813 13.0061 131.813 11.9524C131.813 11.3159 131.845 10.339 131.91 9.02195C131.975 7.72683 132.007 6.76097 132.007 6.12439V5.69634C132.007 4.62073 132.201 3.91829 132.59 3.58902L132.687 3.6878L133.011 3.62195C133.098 3.6439 133.195 3.70976 133.303 3.81951C133.389 3.90732 133.433 4.0061 133.433 4.11585L133.497 4.31341C133.497 4.35732 133.497 4.40122 133.497 4.44512C133.519 4.46707 133.53 4.47805 133.53 4.47805C133.875 6.03658 134.653 8.22073 135.863 11.0305C137.094 13.9939 137.86 15.9585 138.163 16.9244C138.379 17.6927 138.552 18.3732 138.681 18.9659C139.092 20.8317 139.578 22.2695 140.139 23.2793L140.204 23.1805C140.701 18.3073 140.949 12.3256 140.949 5.23537L140.917 4.84024C140.895 4.73049 140.884 4.5878 140.884 4.4122C140.884 3.95122 141.036 3.72073 141.338 3.72073C141.532 3.72073 141.694 3.81951 141.824 4.01707C141.975 4.21463 142.051 4.43415 142.051 4.67561V6.88171L141.889 7.14512C141.889 9.23049 141.77 12.6549 141.532 17.4183C141.295 22.1817 141.068 24.7719 140.852 25.189L140.301 25.3207V25.3537L140.269 25.3207L139.945 25.4195Z" fill="#A6ACA8"/>
<path d="M147.201 25.7159C146.812 25.7159 146.596 25.4854 146.553 25.0244V24.5963C146.574 24.4866 146.585 24.3549 146.585 24.2012L146.456 24.0695C146.628 23.6085 146.715 23.1585 146.715 22.7195C146.715 22.2146 146.682 21.4902 146.618 20.5463L146.553 18.3732C146.553 17.2756 146.585 15.6293 146.65 13.4341C146.736 11.4805 146.78 9.82317 146.78 8.46219L146.715 6.48658C146.672 5.8939 146.65 5.23536 146.65 4.51097C146.65 4.18171 146.726 3.95122 146.877 3.81951C147.028 3.66585 147.266 3.58902 147.59 3.58902C147.806 3.58902 147.978 3.65488 148.108 3.78658C148.151 3.80854 148.464 3.85244 149.048 3.91829C149.588 3.98414 150.052 4.08293 150.441 4.21463C150.851 4.34634 151.056 4.51098 151.056 4.70854C151.056 4.92805 150.851 5.14756 150.441 5.36707C149.21 4.95 148.335 4.74146 147.816 4.74146L147.654 4.93902C147.676 5.13658 147.687 5.60854 147.687 6.35488C147.687 7.29878 147.665 8.1439 147.622 8.89024C147.6 9.65854 147.59 10.5146 147.59 11.4585C147.59 12.0732 147.741 12.3805 148.043 12.3805L148.562 12.3476C148.734 12.3256 148.918 12.3146 149.112 12.3146C149.955 12.3146 150.376 12.5122 150.376 12.9073C150.376 13.1488 150.322 13.3573 150.214 13.5329C150.106 13.6866 149.944 13.7634 149.728 13.7634C149.404 13.7634 149.156 13.6756 148.983 13.5L147.946 13.3354H147.784L147.622 13.5V13.5988C147.665 13.9719 147.687 14.839 147.687 16.2C147.687 17.0561 147.676 17.8354 147.654 18.5378L147.622 20.8756C147.622 21.7317 147.654 22.6098 147.719 23.5098C147.741 24.0146 147.849 24.3549 148.043 24.5305C148.238 24.6841 148.594 24.761 149.112 24.761L149.696 24.728C149.89 24.7061 150.106 24.6951 150.344 24.6951C150.97 24.6951 151.283 24.8378 151.283 25.1232C151.283 25.5183 150.808 25.7159 149.858 25.7159H147.201Z" fill="#A6ACA8"/>
<path d="M154.907 25.3866C154.497 25.3866 154.292 25.2549 154.292 24.9915C154.292 23.8939 154.594 22.1817 155.199 19.8549C155.804 17.55 156.106 15.8268 156.106 14.6854C156.106 14.0707 155.814 12.4024 155.231 9.68049C154.648 6.95854 154.259 5.47683 154.065 5.23537V5.10366C154.086 5.08171 154.097 5.05976 154.097 5.0378C154.097 5.01585 154.097 5.00488 154.097 5.00488C154.097 4.87317 154.043 4.71951 153.935 4.5439C153.849 4.28049 153.806 4.14878 153.806 4.14878C153.806 4.06098 153.87 3.98414 154 3.91829C154.151 3.85244 154.281 3.81951 154.389 3.81951C154.562 3.81951 154.702 3.95122 154.81 4.21463C154.94 4.47805 155.026 4.75244 155.069 5.0378L155.102 5.79512C155.404 6.69512 155.674 7.79268 155.912 9.0878C156.192 10.5366 156.419 11.5573 156.592 12.15C156.722 11.8866 156.884 11.0305 157.078 9.58171C157.294 8.13293 157.434 7.04634 157.499 6.32195C157.629 4.5439 157.769 3.63293 157.92 3.58902C157.92 3.58902 158.007 3.56707 158.18 3.52317L158.439 3.49024L158.73 3.88536C158.385 4.39024 158.212 5.3561 158.212 6.78293V6.98049L158.244 7.17805L158.212 7.21098C158.126 8.00122 157.91 9.20854 157.564 10.8329C157.197 12.6329 157.013 13.9939 157.013 14.9159C157.013 15.2671 157.294 16.7268 157.856 19.2951C158.417 21.8634 158.784 23.3671 158.957 23.8061C158.957 23.828 159.011 23.9159 159.119 24.0695C159.27 24.3549 159.346 24.5854 159.346 24.761C159.346 24.8927 159.292 25.0024 159.184 25.0902C159.098 25.178 158.99 25.222 158.86 25.222C158.709 25.222 158.568 25.189 158.439 25.1232L157.856 22.6207C157.337 20.6451 156.927 18.8122 156.624 17.122C156.365 17.5171 156.128 18.6585 155.912 20.5463C155.696 22.5 155.501 23.7073 155.328 24.1683C155.372 24.2561 155.393 24.3878 155.393 24.5634C155.393 24.7829 155.35 24.9805 155.264 25.1561C155.199 25.3098 155.08 25.3866 154.907 25.3866Z" fill="#A6ACA8"/>
<path d="M165.081 24.8268L165.049 23.6085C165.027 23.2573 165.016 22.8622 165.016 22.4232C165.016 22.2037 165.027 22.0171 165.049 21.8634L165.081 21.2707C165.081 21.0512 165.038 20.7878 164.952 20.4805C164.952 19.0098 164.844 16.2768 164.628 12.2817C164.412 8.41829 164.293 5.79512 164.271 4.4122C162.932 4.4122 162.036 4.37927 161.582 4.31341C161.15 4.20366 160.934 4.02805 160.934 3.78658C161.042 3.54512 161.247 3.42439 161.55 3.42439C162.198 3.42439 163.137 3.46829 164.368 3.5561C165.492 3.66585 166.431 3.72073 167.187 3.72073H167.868L168.548 3.6878C168.937 3.6878 169.131 3.83049 169.131 4.11585C169.131 4.24756 169.056 4.35732 168.904 4.44512C168.775 4.51097 168.613 4.5439 168.418 4.5439C167.986 4.5439 167.533 4.52195 167.058 4.47805L165.664 4.4122C165.578 4.4122 165.535 4.44512 165.535 4.51097C165.513 4.57683 165.502 4.78537 165.502 5.13658C165.502 7.26585 165.632 10.4927 165.891 14.8171C166.129 19.2951 166.248 22.511 166.248 24.4646C166.248 24.6183 166.15 24.761 165.956 24.8927C165.783 25.0244 165.61 25.0902 165.438 25.0902L165.081 24.8268Z" fill="#A6ACA8"/>
<path d="M183.93 25.65C183.93 25.4305 183.606 25.3207 182.958 25.3207C182.85 21.2598 182.796 18.3183 182.796 16.4963L182.699 16.3646L182.829 16.0683C182.829 15.6732 182.785 15.2671 182.699 14.85L182.213 14.7183C182.019 14.7841 181.803 14.8171 181.565 14.8171C181.392 14.8171 181.036 14.7622 180.496 14.6524C180.129 14.5427 179.794 14.4878 179.491 14.4878L179.135 14.6195C179.135 15.3878 179.124 16.0793 179.103 16.6939C179.081 17.3085 179.07 18 179.07 18.7683L179.135 18.9C179.135 19.5146 179.167 20.4366 179.232 21.6659C179.297 22.8732 179.329 23.7841 179.329 24.3988C179.329 24.6402 179.286 24.8488 179.2 25.0244C179.113 25.178 178.984 25.2549 178.811 25.2549C178.336 25.2549 178.098 24.5963 178.098 23.2793C178.098 22.1598 178.109 21.15 178.131 20.25L178.163 17.2537C178.163 15.2561 178.131 14.1805 178.066 14.0268C178.174 13.8073 178.228 13.0829 178.228 11.8537C178.228 10.8 178.185 9.51585 178.098 8.00122L178.033 6.71707L177.969 4.14878C177.969 3.99512 178.023 3.85244 178.131 3.72073C178.239 3.58902 178.368 3.52317 178.519 3.52317C178.951 3.52317 179.167 4.15976 179.167 5.43293C179.167 6.92561 179.157 8.27561 179.135 9.48293C179.092 10.6902 179.07 12.0183 179.07 13.4671C179.07 13.7305 179.891 13.8622 181.533 13.8622H181.662C182.073 13.8622 182.364 13.7854 182.537 13.6317C182.731 13.4561 182.829 13.1707 182.829 12.7756C182.829 11.6122 182.753 10.0976 182.602 8.23171C182.472 6.21219 182.407 4.69756 182.407 3.6878C182.407 3.5561 182.461 3.44634 182.569 3.35854C182.677 3.24878 182.807 3.1939 182.958 3.1939L183.25 3.29268C183.401 3.31463 183.498 3.34756 183.541 3.39146C183.541 5.10366 183.606 7.66098 183.736 11.0634C183.865 14.4878 183.93 17.0561 183.93 18.7683C183.93 21.3585 184.006 23.5317 184.157 25.2878L183.93 25.65ZM181.889 13.4012L181.954 13.4671H181.889V13.4012Z" fill="#A6ACA8"/>
<path d="M192.067 25.9134C189.54 25.9134 188.276 21.8744 188.276 13.7963V12.6439C188.276 6.51951 189.054 3.45732 190.609 3.45732C190.717 3.45732 190.868 3.49024 191.063 3.5561C191.754 3.79756 192.434 3.95122 193.104 4.01707C193.514 4.10488 193.925 4.53293 194.335 5.30122C194.789 6.09146 195.123 7.13414 195.339 8.42927C195.577 9.72439 195.696 11.0524 195.696 12.4134L195.631 12.578C195.631 13.3024 195.642 13.95 195.663 14.5207L195.696 16.4963C195.696 17.6159 195.653 18.6256 195.566 19.5256C195.437 20.8866 195.221 22.061 194.918 23.0488C194.724 23.6415 194.497 24.1354 194.238 24.5305C194 24.9256 193.698 25.2549 193.331 25.5183C192.985 25.7817 192.564 25.9134 192.067 25.9134ZM191.937 24.9585C192.78 24.9585 193.406 24.3549 193.817 23.1476C194.227 21.9183 194.475 20.6671 194.562 19.3939C194.648 18.0768 194.691 17.0232 194.691 16.2329C194.691 15.3549 194.627 14.0598 194.497 12.3476C194.389 10.4378 194.335 9.14268 194.335 8.46219L194.205 8.19878L194.27 8.03414C194.27 7.06829 194 6.23415 193.46 5.53171C192.942 4.82927 192.305 4.47805 191.549 4.47805C190.555 4.47805 189.961 4.96097 189.767 5.92683C189.724 6.2561 189.68 6.72805 189.637 7.34268C189.637 8.96707 189.572 10.0756 189.443 10.6683C189.443 10.9976 189.41 11.5134 189.346 12.2159L189.281 13.7634C189.281 14.2463 189.292 14.6744 189.313 15.0476L189.346 16.3646C189.346 17.3963 189.432 18.5817 189.605 19.9207C189.734 20.9085 189.886 21.7427 190.058 22.4232C190.231 23.1037 190.479 23.6854 190.803 24.1683C191.127 24.6951 191.505 24.9585 191.937 24.9585Z" fill="#A6ACA8"/>
<path d="M212.696 27C212.264 27 212.048 26.2976 212.048 24.8927V22.7195C212.048 19.5585 211.983 17.089 211.853 15.311L211.756 14.0927C211.67 13.5439 211.626 13.061 211.626 12.6439C211.626 11.8976 211.648 11.2171 211.691 10.6024L211.756 8.56098C211.756 7.88049 211.713 7.36463 211.626 7.01341C211.194 7.32073 209.888 11.9415 207.706 20.8756L207.674 21.3695C207.609 21.9183 207.522 22.3573 207.414 22.6866C207.35 22.928 207.252 23.1146 207.123 23.2463C207.015 23.378 206.885 23.4439 206.734 23.4439C206.389 23.4439 206.14 23.3561 205.989 23.1805C205.838 23.0049 205.762 22.7305 205.762 22.3573C205.762 21.7646 205.481 20.228 204.92 17.7476C204.38 15.2671 203.786 12.8854 203.138 10.6024C202.511 8.31951 202.079 7.05732 201.842 6.81585C201.82 7.58415 201.734 9.39512 201.583 12.2488C201.28 17.2976 201.129 21.2707 201.129 24.1683L201.161 25.4854C201.075 25.7707 200.848 25.9134 200.481 25.9134C200.416 25.9134 200.308 25.8476 200.157 25.7159C200.006 25.6061 199.93 25.5183 199.93 25.4524C199.93 23.4768 200.103 20.0085 200.449 15.0476C200.773 10.4378 200.935 6.98049 200.935 4.67561C200.935 4.56585 200.913 4.4561 200.87 4.34634C200.805 4.21463 200.773 4.11585 200.773 4.05C200.773 3.72073 201.054 3.5561 201.615 3.5561C201.982 3.5561 202.198 3.72073 202.263 4.05C202.349 4.48902 202.393 4.81829 202.393 5.0378L202.425 5.43293C202.533 6.00366 202.846 6.88171 203.365 8.06707C203.775 9.01098 204.088 9.83415 204.304 10.5366C204.434 11.0634 204.553 11.4915 204.661 11.8207C205.006 13.0939 205.233 14.0378 205.341 14.6524L205.762 15.5085C205.827 15.8378 205.957 16.3756 206.151 17.122C206.345 17.9561 206.486 18.6366 206.572 19.1634C206.659 19.6902 206.702 20.1951 206.702 20.678C206.939 20.3049 207.609 18.0659 208.71 13.961C209.834 9.83415 210.492 7.2 210.687 6.05853C210.708 6.01463 210.719 5.95976 210.719 5.8939C210.741 5.8061 210.762 5.69634 210.784 5.56463C210.827 5.27927 210.924 4.85122 211.076 4.28049C211.248 3.84146 211.508 3.62195 211.853 3.62195C212.004 3.62195 212.177 3.6878 212.372 3.81951C212.566 3.95122 212.663 4.08293 212.663 4.21463C212.663 13.3683 212.803 18.2085 213.084 18.7354V20.4476C213.063 20.9524 213.052 21.5341 213.052 22.1927C213.052 23.5976 213.127 24.6512 213.279 25.3537C213.3 25.3756 213.311 25.4085 213.311 25.4524C213.333 25.4963 213.354 25.5512 213.376 25.6171C213.397 25.7049 213.408 25.8037 213.408 25.9134C213.408 26.1549 213.333 26.3963 213.181 26.6378C213.052 26.8793 212.89 27 212.696 27ZM211.626 6.81585H211.594L211.529 6.84878L211.626 6.88171V6.81585Z" fill="#A6ACA8"/>
<path d="M218.896 25.7159C218.507 25.7159 218.291 25.4854 218.248 25.0244V24.5963C218.27 24.4866 218.281 24.3549 218.281 24.2012L218.151 24.0695C218.324 23.6085 218.41 23.1585 218.41 22.7195C218.41 22.2146 218.378 21.4902 218.313 20.5463L218.248 18.3732C218.248 17.2756 218.281 15.6293 218.345 13.4341C218.432 11.4805 218.475 9.82317 218.475 8.46219L218.41 6.48658C218.367 5.8939 218.345 5.23536 218.345 4.51097C218.345 4.18171 218.421 3.95122 218.572 3.81951C218.723 3.66585 218.961 3.58902 219.285 3.58902C219.501 3.58902 219.674 3.65488 219.803 3.78658C219.846 3.80854 220.16 3.85244 220.743 3.91829C221.283 3.98414 221.747 4.08293 222.136 4.21463C222.546 4.34634 222.752 4.51098 222.752 4.70854C222.752 4.92805 222.546 5.14756 222.136 5.36707C220.905 4.95 220.03 4.74146 219.512 4.74146L219.35 4.93902C219.371 5.13658 219.382 5.60854 219.382 6.35488C219.382 7.29878 219.36 8.1439 219.317 8.89024C219.296 9.65854 219.285 10.5146 219.285 11.4585C219.285 12.0732 219.436 12.3805 219.738 12.3805L220.257 12.3476C220.43 12.3256 220.613 12.3146 220.808 12.3146C221.65 12.3146 222.071 12.5122 222.071 12.9073C222.071 13.1488 222.017 13.3573 221.909 13.5329C221.801 13.6866 221.639 13.7634 221.423 13.7634C221.099 13.7634 220.851 13.6756 220.678 13.5L219.641 13.3354H219.479L219.317 13.5V13.5988C219.36 13.9719 219.382 14.839 219.382 16.2C219.382 17.0561 219.371 17.8354 219.35 18.5378L219.317 20.8756C219.317 21.7317 219.35 22.6098 219.414 23.5098C219.436 24.0146 219.544 24.3549 219.738 24.5305C219.933 24.6841 220.289 24.761 220.808 24.761L221.391 24.728C221.585 24.7061 221.801 24.6951 222.039 24.6951C222.665 24.6951 222.978 24.8378 222.978 25.1232C222.978 25.5183 222.503 25.7159 221.553 25.7159H218.896Z" fill="#A6ACA8"/>
<path d="M226.538 25.4195C226.343 25.4195 226.171 25.3427 226.019 25.189C225.89 25.0134 225.825 24.8268 225.825 24.6293C225.825 24.4098 225.911 24.2122 226.084 24.0366C226.257 23.839 226.451 23.7402 226.667 23.7402C226.84 23.7402 227.013 23.839 227.186 24.0366C227.358 24.2122 227.445 24.3988 227.445 24.5963C227.445 25.1451 227.142 25.4195 226.538 25.4195Z" fill="#A6ACA8"/>
<path d="M231.315 25.4195C231.121 25.4195 230.948 25.3427 230.797 25.189C230.667 25.0134 230.602 24.8268 230.602 24.6293C230.602 24.4098 230.689 24.2122 230.862 24.0366C231.034 23.839 231.229 23.7402 231.445 23.7402C231.618 23.7402 231.79 23.839 231.963 24.0366C232.136 24.2122 232.222 24.3988 232.222 24.5963C232.222 25.1451 231.92 25.4195 231.315 25.4195Z" fill="#A6ACA8"/>
<path d="M236.093 25.4195C235.898 25.4195 235.726 25.3427 235.574 25.189C235.445 25.0134 235.38 24.8268 235.38 24.6293C235.38 24.4098 235.466 24.2122 235.639 24.0366C235.812 23.839 236.006 23.7402 236.222 23.7402C236.395 23.7402 236.568 23.839 236.741 24.0366C236.914 24.2122 237 24.3988 237 24.5963C237 25.1451 236.698 25.4195 236.093 25.4195Z" fill="#A6ACA8"/>
</svg>
