<svg width="53" height="53" viewBox="0 0 53 53" fill="none" xmlns="http://www.w3.org/2000/svg">
<path d="M51.7802 0H7.00845C6.77078 0 6.53704 0.0940957 6.38446 0.27618C6.05093 0.674197 6.19937 1.24219 6.6093 1.46288L17.0519 7.08585C17.053 7.08637 17.0537 7.0874 17.0539 7.08865L19.4853 23.2972C19.5723 23.8588 20.2392 24.1467 20.7051 23.8159L30.9036 16.5696C30.9047 16.5688 30.9063 16.5687 30.9076 16.5694L38.1348 20.5443C38.4795 20.7338 38.9238 20.6296 39.1482 20.3069L46.7473 9.38328C46.9926 9.0306 46.9055 8.54573 46.5529 8.3004C46.2001 8.05497 45.7155 8.14213 45.47 8.4948L38.2729 18.8409C38.2717 18.8424 38.2696 18.8429 38.268 18.842L23.8551 10.915C23.8522 10.9134 23.8526 10.9092 23.8557 10.9081L49.7988 2.26037C49.8022 2.25923 49.8051 2.26316 49.803 2.26606L47.6522 5.35776C47.4076 5.7093 47.4645 6.20555 47.8098 6.45875C48.164 6.71837 48.6596 6.6339 48.9089 6.27595L52.4247 1.22211C52.4466 1.19033 52.4665 1.15586 52.4836 1.12097C52.7362 0.608361 52.3468 0 51.7802 0ZM29.3861 15.7326C29.3885 15.734 29.3887 15.7375 29.3865 15.739L21.269 21.5066C21.2663 21.5085 21.2627 21.5063 21.2631 21.503L22.5341 11.9699C22.5344 11.9673 22.5373 11.9659 22.5397 11.9671L29.3861 15.7326ZM41.8425 3.27244L21.668 9.99723C21.3899 10.0904 21.1817 10.3413 21.1429 10.6324L20.2126 17.6092C20.212 17.6136 20.2058 17.6136 20.2051 17.6094L18.6481 7.2285C18.6477 7.22643 18.6491 7.22456 18.6512 7.22425L41.8406 3.26509C41.8452 3.26426 41.8468 3.27089 41.8425 3.27244ZM42.5633 1.56329L17.8994 5.7742C17.8986 5.77431 17.8978 5.77421 17.897 5.77379L10.0768 1.56298C10.0733 1.56112 10.0746 1.55584 10.0785 1.55584H42.5626C42.5673 1.55584 42.5678 1.56257 42.5633 1.56329Z" fill="#70C783"/>
<path d="M14.4019 31.1334C14.1837 31.1366 13.9614 31.1455 13.7415 31.1598C13.3127 31.1875 12.9877 31.5575 13.0153 31.9862C13.0418 32.3979 13.3841 32.714 13.7909 32.714C13.8077 32.714 13.8247 32.7135 13.8418 32.7124C14.0363 32.6999 14.2326 32.692 14.4252 32.6891C14.8548 32.6827 15.1978 32.3292 15.1914 31.8997C15.185 31.4702 14.8294 31.1246 14.4019 31.1334Z" fill="#70C783"/>
<path d="M18.2248 31.6818C17.8214 31.5508 17.3977 31.4415 16.9657 31.3568C16.5444 31.2739 16.1354 31.5488 16.0527 31.9706C15.9699 32.3921 16.2448 32.801 16.6664 32.8837C17.0375 32.9565 17.4003 33.05 17.7446 33.1617C18.1481 33.2925 18.5938 33.0651 18.7247 32.662C18.8572 32.2532 18.6333 31.8144 18.2248 31.6818Z" fill="#70C783"/>
<path d="M10.1254 38.8815C10.0646 38.5268 10.0294 38.1609 10.0209 37.7942C10.011 37.3646 9.65363 37.0251 9.22518 37.0345C8.7957 37.0444 8.45555 37.4007 8.46548 37.8302C8.47573 38.2728 8.51828 38.7149 8.59188 39.1443C8.66341 39.5619 9.07208 39.8514 9.48998 39.7795C9.91356 39.707 10.1979 39.3049 10.1254 38.8815Z" fill="#70C783"/>
<path d="M13.9205 43.6858C13.5917 43.5692 13.2719 43.4184 12.9699 43.2376C12.6012 43.017 12.1236 43.1368 11.9028 43.5054C11.6822 43.8741 11.8021 44.3518 12.1707 44.5726C12.561 44.8061 12.9746 45.0011 13.4004 45.1522C13.8215 45.3014 14.2934 45.0538 14.411 44.6236C14.517 44.236 14.299 43.82 13.9205 43.6858Z" fill="#70C783"/>
<path d="M14.9304 28.1272C14.6633 27.7906 14.1739 27.7344 13.8375 28.0014C13.5074 28.2633 13.1837 28.5416 12.8756 28.8289C12.5612 29.1217 12.5438 29.614 12.8366 29.9283C13.1253 30.2384 13.6258 30.2562 13.9359 29.9673C14.2142 29.708 14.5065 29.4566 14.8046 29.2202C15.1412 28.953 15.1975 28.4638 14.9304 28.1272Z" fill="#70C783"/>
<path d="M11.3953 41.8296C11.1792 41.5501 10.984 41.2466 10.8151 40.9275C10.6142 40.5478 10.1433 40.4029 9.76372 40.6038C9.38403 40.8048 9.2391 41.2755 9.44003 41.6552C9.65037 42.0528 9.89426 42.4317 10.1646 42.7813C10.4443 43.1431 10.9926 43.1822 11.3215 42.8641C11.6026 42.5922 11.6345 42.1387 11.3953 41.8296Z" fill="#70C783"/>
<path d="M10.2285 33.5661C9.83324 33.3977 9.37633 33.5816 9.20791 33.9768C9.0222 34.4124 8.87045 34.8412 8.76869 35.2164C8.65627 35.6311 8.9013 36.0583 9.31587 36.1708C9.38388 36.1893 9.45241 36.1981 9.5198 36.1981C9.86244 36.1981 10.1763 35.97 10.2701 35.6236C10.3283 35.4092 10.4394 35.0553 10.6391 34.5865C10.8076 34.1913 10.6238 33.7344 10.2285 33.5661Z" fill="#70C783"/>
<path d="M12.2541 30.5639C11.9151 30.2997 11.4264 30.3602 11.1623 30.6991C10.9021 31.0329 10.6529 31.3803 10.4221 31.7316C10.1859 32.0906 10.2856 32.573 10.6446 32.809C10.9991 33.0421 11.4891 32.9405 11.722 32.5864C11.9301 32.27 12.1546 31.9569 12.3893 31.6559C12.6535 31.317 12.5929 30.8281 12.2541 30.5639Z" fill="#70C783"/>
<path d="M21.625 33.7223C21.3195 33.4052 20.9727 33.1096 20.594 32.8435C20.2426 32.5964 19.7574 32.6812 19.5103 33.0329C19.2633 33.3844 19.3481 33.8696 19.6996 34.1166C19.9971 34.3256 20.2679 34.5561 20.5045 34.8017C20.7986 35.107 21.299 35.1163 21.6044 34.8222C21.9138 34.5241 21.923 34.0317 21.625 33.7223Z" fill="#70C783"/>
<path d="M17.9913 44.4406C17.9012 44.0204 17.488 43.7532 17.0676 43.843C16.7434 43.9125 16.4037 43.9584 16.0571 43.9797L15.9966 43.9832C15.5675 44.0045 15.2369 44.3696 15.2582 44.7988C15.2788 45.2148 15.6226 45.5381 16.0345 45.5381C16.0474 45.5381 16.0607 45.5378 16.0737 45.5371L16.153 45.5327C16.5762 45.5069 16.9936 45.4502 17.3938 45.3645C17.8138 45.2742 18.0813 44.8608 17.9913 44.4406Z" fill="#70C783"/>
<path d="M23.2961 37.437C23.2591 36.9655 23.1729 36.5096 23.0397 36.082C22.9118 35.6718 22.4755 35.4428 22.0655 35.5708C21.6552 35.6985 21.4265 36.1347 21.5542 36.5449C21.653 36.8616 21.717 37.2026 21.7449 37.5583C21.7779 37.9809 22.1584 38.3063 22.5811 38.2732C23.0036 38.2401 23.3291 37.8597 23.2961 37.437Z" fill="#70C783"/>
<path d="M22.4772 39.1394C22.065 39.0179 21.6325 39.2531 21.5107 39.6651C21.4093 40.0084 21.2779 40.345 21.1201 40.6658C20.9304 41.0512 21.0891 41.5175 21.4747 41.7072C21.8553 41.8945 22.3291 41.7327 22.5161 41.3525C22.7128 40.9527 22.8766 40.5333 23.0028 40.1058C23.1246 39.6938 22.8892 39.2611 22.4772 39.1394Z" fill="#70C783"/>
<path d="M18.0985 26.3791C17.9158 25.9901 17.4525 25.823 17.0637 26.0057C16.6818 26.185 16.3034 26.3804 15.9391 26.5865C15.6482 26.751 15.4924 27.094 15.5602 27.4213C15.6341 27.7786 15.958 28.0417 16.3228 28.0417C16.4526 28.0417 16.5841 28.0092 16.7051 27.9408C17.0354 27.754 17.3787 27.5767 17.7252 27.4139C18.1141 27.2312 18.2812 26.7679 18.0985 26.3791Z" fill="#70C783"/>
<path d="M20.9632 42.4122C20.6673 42.1007 20.1751 42.0879 19.8635 42.3837C19.6063 42.6279 19.3259 42.8485 19.0299 43.0397C18.6689 43.2728 18.5653 43.7543 18.7983 44.1153C19.028 44.4712 19.5175 44.5769 19.8738 44.3468C20.2508 44.1034 20.6079 43.8225 20.9349 43.512C21.2463 43.2161 21.2591 42.7238 20.9632 42.4122Z" fill="#70C783"/>
<path d="M21.006 25.4702C20.8952 25.0553 20.4687 24.809 20.0537 24.9195C19.8439 24.9756 19.6337 25.0357 19.4292 25.0979C19.0394 25.2167 18.8038 25.631 18.9004 26.0267C19.005 26.455 19.4611 26.7145 19.8829 26.5861C20.0703 26.529 20.2627 26.474 20.4552 26.4226C20.8701 26.3117 21.1168 25.8853 21.006 25.4702Z" fill="#70C783"/>
<path d="M3.52047 51.8672C3.43021 51.6925 3.34263 51.5139 3.25992 51.3366C3.07846 50.9473 2.61554 50.7788 2.22622 50.9602C1.83689 51.1417 1.66827 51.6045 1.84983 51.9939C1.94134 52.1902 2.03823 52.3876 2.13792 52.5807C2.33232 52.9573 2.8088 53.1097 3.18591 52.9152C3.56768 52.7183 3.71746 52.2491 3.52047 51.8672Z" fill="#70C783"/>
<path d="M2.48818 49.2721C2.38798 48.9191 2.30175 48.5594 2.23219 48.2028C2.14989 47.7812 1.74163 47.5062 1.31959 47.5884C0.897974 47.6707 0.622933 48.0793 0.705228 48.501C0.783071 48.9002 0.879444 49.3025 0.991552 49.6972C1.10728 50.1049 1.54453 50.3491 1.95238 50.2329C2.36582 50.1156 2.60567 49.6853 2.48818 49.2721Z" fill="#70C783"/>
<path d="M1.29309 44.097C0.865156 44.0705 0.494674 44.3952 0.467242 44.8238C0.447781 45.1288 0.437844 45.438 0.437844 45.7429C0.437844 46.0227 0.427699 46.2949 0.612164 46.5246C0.761951 46.711 0.995793 46.8218 1.23564 46.8155C1.47352 46.8104 1.6996 46.6937 1.84203 46.5033C2.01459 46.2725 1.99368 46.016 1.99368 45.7428C1.99368 45.4709 2.00248 45.195 2.01987 44.9229C2.0473 44.4942 1.72185 44.1245 1.29309 44.097Z" fill="#70C783"/>
<path d="M2.13802 40.7093C1.72872 40.5771 1.29074 40.8018 1.15876 41.2106C1.0332 41.5997 0.922229 41.9978 0.829272 42.3936C0.730828 42.8117 0.990239 43.2304 1.40844 43.3288C1.82116 43.4259 2.24671 43.1621 2.34371 42.7496C2.42724 42.3947 2.52672 42.0377 2.63935 41.6887C2.77122 41.2797 2.54691 40.8412 2.13802 40.7093Z" fill="#70C783"/>
<path d="M6.10525 35.0284C5.80847 34.7176 5.31635 34.706 5.00529 35.0025C4.92569 35.0784 4.84681 35.1556 4.76824 35.234C4.5581 35.4442 4.35045 35.6665 4.15097 35.8947C3.86827 36.2181 3.90119 36.7096 4.22457 36.9924C4.54361 37.2714 5.04338 37.2379 5.32225 36.9188C5.49896 36.7167 5.6828 36.52 5.8684 36.3343C5.93807 36.2646 6.00846 36.1959 6.07926 36.1284C6.39022 35.8316 6.40171 35.3393 6.10525 35.0284Z" fill="#70C783"/>
<path d="M3.76618 37.62C3.40025 37.395 2.92118 37.5093 2.69603 37.8751C2.483 38.2216 2.28104 38.5816 2.09554 38.9451C1.90031 39.3278 2.05237 39.7963 2.43517 39.9914C2.81321 40.1843 3.28907 40.0293 3.48151 39.6518C3.64817 39.3251 3.82973 39.0014 4.02124 38.6901C4.24638 38.3241 4.1321 37.845 3.76618 37.62Z" fill="#70C783"/>
<path d="M8.55587 33.3812C8.33559 33.0125 7.85797 32.8921 7.48914 33.1124C7.30157 33.2244 7.1141 33.3425 6.93171 33.4635C6.57375 33.7012 6.47603 34.1838 6.7136 34.5418C6.94786 34.8949 7.43842 34.9944 7.79192 34.7599C7.95393 34.6525 8.12038 34.5475 8.28704 34.448C8.65587 34.2276 8.77625 33.75 8.55587 33.3812Z" fill="#70C783"/>
</svg>
