<?xml version="1.0" encoding="UTF-8"?>
<svg xmlns="http://www.w3.org/2000/svg" xmlns:xlink="http://www.w3.org/1999/xlink" width="24pt" height="24pt" viewBox="0 0 48 48" version="1.2">
<defs>
<clipPath id="clip1">
  <path d="M 0.488281 0 L 47.507812 0 L 47.507812 47.019531 L 0.488281 47.019531 Z M 0.488281 0 "/>
</clipPath>
</defs>
<g id="surface1">
<g clip-path="url(#clip1)" clip-rule="nonzero">
<path style=" stroke:none;fill-rule:nonzero;fill:rgb(23.139954%,65.098572%,89.019775%);fill-opacity:1;" d="M 27.894531 23.296875 C 27.878906 23.367188 27.867188 23.441406 27.871094 23.519531 C 27.871094 23.589844 27.878906 23.660156 27.894531 23.726562 C 27.78125 25.777344 26.078125 27.410156 24 27.410156 C 21.851562 27.410156 20.101562 25.660156 20.101562 23.511719 C 20.101562 21.359375 21.851562 19.609375 24 19.609375 C 26.078125 19.609375 27.78125 21.246094 27.894531 23.296875 Z M 46.492188 22.484375 C 45.4375 22.476562 44.378906 22.472656 43.324219 22.46875 C 43.957031 21.613281 44.609375 20.730469 44.675781 20.640625 C 44.996094 20.21875 44.945312 19.617188 44.546875 19.257812 C 44.125 18.878906 43.476562 18.914062 43.097656 19.335938 C 43.066406 19.371094 43.0625 19.375 40.777344 22.457031 C 39.695312 22.457031 38.609375 22.453125 37.527344 22.453125 C 38.15625 21.601562 38.765625 20.78125 38.863281 20.652344 C 39.136719 20.300781 39.160156 19.796875 38.886719 19.417969 C 38.554688 18.960938 37.914062 18.859375 37.453125 19.191406 C 37.328125 19.28125 37.320312 19.289062 34.976562 22.457031 C 33.261719 22.460938 31.554688 22.46875 29.855469 22.480469 C 29.738281 21.796875 29.5 21.15625 29.171875 20.574219 C 30.332031 19.453125 31.515625 18.324219 32.707031 17.199219 L 36.316406 17.90625 C 36.382812 17.921875 36.449219 17.925781 36.515625 17.925781 C 36.992188 17.925781 37.421875 17.585938 37.519531 17.097656 C 37.628906 16.542969 37.265625 16.003906 36.710938 15.894531 L 34.539062 15.472656 C 35.015625 15.023438 35.488281 14.578125 35.960938 14.136719 C 36.25 13.863281 36.542969 13.589844 36.832031 13.3125 L 40.527344 14.035156 C 40.59375 14.050781 40.660156 14.054688 40.726562 14.054688 C 41.207031 14.054688 41.632812 13.714844 41.730469 13.226562 C 41.839844 12.671875 41.476562 12.132812 40.921875 12.027344 L 38.667969 11.585938 C 39.457031 10.839844 40.246094 10.089844 41.027344 9.347656 C 41.4375 8.957031 41.449219 8.308594 41.058594 7.898438 C 40.667969 7.492188 40.019531 7.476562 39.613281 7.867188 C 38.851562 8.589844 38.082031 9.320312 37.308594 10.050781 C 37.179688 8.996094 37.046875 7.898438 37.03125 7.769531 C 36.980469 7.257812 36.542969 6.855469 36.011719 6.855469 C 35.449219 6.855469 34.988281 7.3125 34.988281 7.878906 C 34.988281 7.941406 34.988281 7.949219 35.457031 11.792969 C 35.15625 12.078125 34.855469 12.363281 34.554688 12.640625 C 34.078125 13.09375 33.59375 13.546875 33.105469 14.003906 C 32.976562 12.925781 32.835938 11.773438 32.820312 11.640625 C 32.765625 11.128906 32.332031 10.726562 31.800781 10.726562 C 31.234375 10.726562 30.777344 11.183594 30.777344 11.75 C 30.777344 11.8125 30.777344 11.816406 31.257812 15.75 C 30.117188 16.828125 28.976562 17.914062 27.863281 18.992188 C 27.070312 18.316406 26.101562 17.84375 25.035156 17.652344 C 25.054688 15.945312 25.066406 14.25 25.074219 12.554688 L 28.085938 10.414062 C 28.546875 10.085938 28.652344 9.445312 28.324219 8.984375 C 27.996094 8.523438 27.355469 8.414062 26.894531 8.742188 L 25.082031 10.035156 C 25.082031 8.945312 25.078125 7.847656 25.074219 6.753906 L 28.085938 4.609375 C 28.546875 4.28125 28.652344 3.640625 28.324219 3.179688 C 27.996094 2.71875 27.355469 2.609375 26.894531 2.9375 L 25.058594 4.246094 C 25.046875 3.171875 25.039062 2.097656 25.023438 1.011719 C 25.019531 0.445312 24.550781 -0.0078125 23.988281 0 C 23.421875 0.0078125 22.96875 0.472656 22.976562 1.039062 C 22.988281 2.105469 23 3.167969 23.007812 4.222656 C 22.136719 3.578125 21.277344 2.941406 21.144531 2.84375 C 20.804688 2.574219 20.316406 2.542969 19.9375 2.800781 C 19.46875 3.117188 19.34375 3.753906 19.660156 4.222656 C 19.757812 4.363281 19.761719 4.371094 23.023438 6.785156 C 23.027344 7.875 23.03125 8.960938 23.03125 10.046875 C 22.160156 9.402344 21.242188 8.722656 21.132812 8.640625 C 20.722656 8.328125 20.136719 8.363281 19.769531 8.746094 C 19.378906 9.152344 19.390625 9.800781 19.800781 10.195312 C 19.847656 10.238281 19.851562 10.242188 23.023438 12.59375 C 23.019531 14.273438 23.003906 15.957031 22.984375 17.652344 C 22.214844 17.785156 21.492188 18.066406 20.851562 18.46875 C 19.816406 17.304688 18.761719 16.183594 17.714844 15.09375 L 18.398438 11.597656 C 18.507812 11.042969 18.144531 10.503906 17.589844 10.398438 C 17.03125 10.289062 16.496094 10.652344 16.386719 11.207031 L 15.980469 13.289062 C 15.257812 12.539062 14.535156 11.773438 13.820312 10.996094 L 14.527344 7.386719 C 14.636719 6.832031 14.273438 6.292969 13.71875 6.183594 C 13.164062 6.074219 12.625 6.4375 12.515625 6.992188 L 12.082031 9.214844 C 11.839844 8.964844 11.605469 8.710938 11.363281 8.445312 C 10.871094 7.90625 10.363281 7.351562 9.777344 6.828125 C 9.355469 6.453125 8.707031 6.492188 8.332031 6.914062 C 7.957031 7.339844 7.996094 7.988281 8.417969 8.363281 C 8.921875 8.8125 9.375 9.304688 9.847656 9.828125 C 10.085938 10.082031 10.324219 10.34375 10.570312 10.601562 C 9.507812 10.730469 8.390625 10.867188 8.261719 10.882812 C 7.746094 10.9375 7.34375 11.375 7.34375 11.902344 C 7.34375 12.46875 7.804688 12.925781 8.371094 12.925781 C 8.433594 12.925781 8.4375 12.925781 12.371094 12.449219 C 13.105469 13.246094 13.847656 14.03125 14.585938 14.796875 C 13.480469 14.929688 12.265625 15.078125 12.132812 15.09375 C 11.617188 15.148438 11.214844 15.585938 11.214844 16.113281 C 11.214844 16.679688 11.675781 17.140625 12.242188 17.140625 C 12.304688 17.140625 12.308594 17.136719 16.363281 16.644531 C 17.355469 17.679688 18.355469 18.742188 19.328125 19.835938 C 18.730469 20.59375 18.316406 21.496094 18.144531 22.480469 C 16.847656 22.472656 15.546875 22.464844 14.246094 22.460938 C 11.914062 19.316406 11.910156 19.308594 11.816406 19.230469 C 11.378906 18.871094 10.734375 18.929688 10.375 19.367188 C 10.058594 19.746094 10.0625 20.28125 10.355469 20.652344 C 10.445312 20.773438 11.058594 21.601562 11.691406 22.457031 C 10.605469 22.457031 9.523438 22.457031 8.4375 22.457031 C 6.132812 19.347656 6.128906 19.339844 6.070312 19.28125 C 5.660156 18.890625 5.011719 18.902344 4.621094 19.308594 C 4.261719 19.679688 4.238281 20.25 4.546875 20.644531 C 4.628906 20.757812 5.269531 21.621094 5.890625 22.460938 C 4.425781 22.46875 2.964844 22.476562 1.507812 22.484375 C 0.941406 22.488281 0.488281 22.953125 0.488281 23.515625 C 0.492188 24.082031 0.953125 24.535156 1.515625 24.535156 C 1.515625 24.535156 1.519531 24.535156 1.523438 24.535156 C 3.007812 24.523438 4.5 24.515625 5.996094 24.511719 L 4.644531 26.40625 C 4.316406 26.867188 4.425781 27.507812 4.886719 27.835938 C 5.066406 27.964844 5.273438 28.023438 5.480469 28.023438 C 5.800781 28.023438 6.117188 27.875 6.316406 27.59375 L 8.511719 24.507812 C 9.609375 24.503906 10.707031 24.503906 11.804688 24.507812 L 10.453125 26.40625 C 10.125 26.867188 10.230469 27.507812 10.691406 27.835938 C 10.871094 27.964844 11.082031 28.023438 11.285156 28.023438 C 11.605469 28.023438 11.921875 27.875 12.121094 27.59375 L 14.316406 24.511719 C 15.59375 24.515625 16.867188 24.523438 18.140625 24.53125 C 18.308594 25.496094 18.710938 26.382812 19.285156 27.132812 L 16.515625 29.757812 L 12.515625 28.953125 C 11.960938 28.839844 11.417969 29.199219 11.308594 29.753906 C 11.195312 30.308594 11.554688 30.851562 12.109375 30.960938 L 14.699219 31.480469 L 12.015625 34.023438 C 8.164062 33.34375 8.15625 33.34375 8.066406 33.34375 C 7.5 33.34375 7.042969 33.804688 7.042969 34.371094 C 7.042969 34.882812 7.417969 35.304688 7.910156 35.382812 C 8.054688 35.40625 9.128906 35.597656 10.164062 35.777344 L 6.976562 38.800781 C 6.566406 39.191406 6.546875 39.839844 6.9375 40.25 C 7.140625 40.460938 7.410156 40.570312 7.679688 40.570312 C 7.933594 40.570312 8.1875 40.476562 8.386719 40.289062 L 11.625 37.21875 L 11.945312 39.492188 C 12.019531 40.003906 12.457031 40.375 12.960938 40.375 C 13.007812 40.375 13.054688 40.371094 13.105469 40.363281 C 13.664062 40.285156 14.054688 39.765625 13.976562 39.207031 L 13.453125 35.488281 L 15.753906 33.304688 C 15.863281 34.242188 15.964844 35.125 15.976562 35.238281 C 16.027344 35.753906 16.464844 36.15625 16.996094 36.15625 C 17.5625 36.15625 18.019531 35.699219 18.019531 35.132812 C 18.019531 35.074219 18.019531 35.070312 17.609375 31.546875 L 20.800781 28.519531 C 21.453125 28.9375 22.191406 29.234375 22.984375 29.371094 C 23 30.648438 23.011719 31.929688 23.019531 33.214844 C 19.746094 35.636719 19.742188 35.644531 19.640625 35.804688 C 19.339844 36.285156 19.488281 36.917969 19.96875 37.21875 C 20.136719 37.324219 20.324219 37.375 20.507812 37.375 C 20.738281 37.375 20.964844 37.296875 21.144531 37.152344 C 21.273438 37.058594 22.101562 36.441406 23.027344 35.757812 C 23.027344 36.84375 23.027344 37.929688 23.027344 39.015625 C 19.84375 41.371094 19.839844 41.375 19.785156 41.429688 C 19.386719 41.828125 19.386719 42.476562 19.785156 42.878906 C 19.984375 43.078125 20.25 43.179688 20.511719 43.179688 C 20.730469 43.179688 20.949219 43.109375 21.132812 42.964844 C 21.246094 42.882812 22.15625 42.210938 23.019531 41.570312 C 23.007812 43.042969 22.992188 44.515625 22.976562 45.984375 C 22.96875 46.546875 23.421875 47.011719 23.988281 47.019531 C 23.992188 47.019531 23.996094 47.019531 24 47.019531 C 24.558594 47.019531 25.019531 46.570312 25.023438 46.007812 C 25.042969 44.53125 25.058594 43.046875 25.066406 41.5625 L 26.894531 42.863281 C 27.355469 43.191406 27.996094 43.085938 28.324219 42.625 C 28.652344 42.164062 28.546875 41.523438 28.085938 41.195312 L 25.074219 39.050781 C 25.078125 37.953125 25.078125 36.859375 25.074219 35.761719 L 26.894531 37.058594 C 27.355469 37.386719 27.996094 37.277344 28.324219 36.816406 C 28.652344 36.355469 28.546875 35.71875 28.085938 35.386719 L 25.066406 33.242188 C 25.058594 31.945312 25.046875 30.65625 25.035156 29.367188 C 25.90625 29.214844 26.710938 28.871094 27.410156 28.378906 C 28.371094 29.367188 29.316406 30.351562 30.257812 31.351562 L 29.441406 35.402344 C 29.332031 35.957031 29.691406 36.496094 30.246094 36.609375 C 30.3125 36.621094 30.382812 36.628906 30.449219 36.628906 C 30.925781 36.628906 31.355469 36.292969 31.453125 35.804688 L 31.980469 33.183594 C 32.441406 33.679688 32.910156 34.179688 33.382812 34.6875 C 33.757812 35.089844 34.136719 35.496094 34.515625 35.902344 C 33.835938 39.75 33.835938 39.757812 33.835938 39.847656 C 33.835938 40.414062 34.292969 40.871094 34.859375 40.871094 C 35.371094 40.871094 35.796875 40.496094 35.871094 40.003906 C 35.898438 39.863281 36.082031 38.800781 36.265625 37.773438 C 37.257812 38.828125 38.269531 39.890625 39.300781 40.949219 C 39.503906 41.15625 39.769531 41.257812 40.035156 41.257812 C 40.292969 41.257812 40.550781 41.164062 40.75 40.96875 C 41.15625 40.574219 41.164062 39.925781 40.769531 39.519531 C 39.726562 38.445312 38.699219 37.367188 37.6875 36.292969 L 39.984375 35.96875 C 40.542969 35.890625 40.933594 35.371094 40.855469 34.8125 C 40.777344 34.25 40.257812 33.859375 39.695312 33.941406 L 35.972656 34.464844 C 35.609375 34.070312 35.242188 33.679688 34.878906 33.292969 C 34.53125 32.917969 34.175781 32.539062 33.824219 32.160156 C 34.753906 32.050781 35.617188 31.953125 35.726562 31.9375 C 36.246094 31.886719 36.648438 31.449219 36.648438 30.917969 C 36.648438 30.355469 36.191406 29.894531 35.625 29.894531 C 35.566406 29.894531 35.558594 29.894531 32.082031 30.300781 C 31.019531 29.171875 29.945312 28.046875 28.859375 26.9375 C 29.355469 26.230469 29.707031 25.414062 29.859375 24.527344 C 31.53125 24.519531 33.210938 24.511719 34.898438 24.507812 L 37.097656 27.59375 C 37.296875 27.875 37.613281 28.023438 37.929688 28.023438 C 38.136719 28.023438 38.34375 27.964844 38.523438 27.835938 C 38.984375 27.507812 39.09375 26.867188 38.765625 26.40625 L 37.410156 24.503906 C 38.507812 24.503906 39.605469 24.503906 40.703125 24.507812 L 42.902344 27.59375 C 43.101562 27.875 43.417969 28.023438 43.738281 28.023438 C 43.941406 28.023438 44.152344 27.964844 44.332031 27.835938 C 44.792969 27.507812 44.898438 26.867188 44.570312 26.40625 L 43.226562 24.515625 C 44.3125 24.523438 45.394531 24.527344 46.476562 24.535156 C 46.480469 24.535156 46.484375 24.535156 46.484375 24.535156 C 47.046875 24.535156 47.503906 24.082031 47.511719 23.515625 C 47.515625 22.953125 47.058594 22.488281 46.492188 22.484375 "/>
</g>
</g>
</svg>
