<?xml version="1.0" encoding="UTF-8"?>
<svg xmlns="http://www.w3.org/2000/svg" xmlns:xlink="http://www.w3.org/1999/xlink" width="24pt" height="24pt" viewBox="0 0 48 48" version="1.2">
<defs>
<clipPath id="clip1">
  <path d="M 0.488281 21 L 9 21 L 9 26 L 0.488281 26 Z M 0.488281 21 "/>
</clipPath>
<clipPath id="clip2">
  <path d="M 39 21 L 47.507812 21 L 47.507812 26 L 39 26 Z M 39 21 "/>
</clipPath>
<clipPath id="clip3">
  <path d="M 22 39 L 26 39 L 26 47.019531 L 22 47.019531 Z M 22 39 "/>
</clipPath>
</defs>
<g id="surface1">
<path style=" stroke:none;fill-rule:nonzero;fill:rgb(97.24884%,65.098572%,16.859436%);fill-opacity:1;" d="M 37.277344 23.332031 C 37.277344 30.660156 31.335938 36.609375 24 36.609375 C 16.664062 36.609375 10.722656 30.660156 10.722656 23.332031 C 10.722656 15.996094 16.664062 10.050781 24 10.050781 C 31.335938 10.050781 37.277344 15.996094 37.277344 23.332031 "/>
<path style=" stroke:none;fill-rule:nonzero;fill:rgb(97.24884%,65.098572%,16.859436%);fill-opacity:1;" d="M 11.699219 33.398438 L 7.371094 37.722656 C 6.703125 38.386719 6.703125 39.46875 7.371094 40.136719 C 8.039062 40.804688 9.121094 40.804688 9.789062 40.136719 L 14.113281 35.8125 L 11.699219 33.398438 "/>
<path style=" stroke:none;fill-rule:nonzero;fill:rgb(97.24884%,65.098572%,16.859436%);fill-opacity:1;" d="M 36.300781 13.625 L 40.628906 9.296875 C 41.296875 8.632812 41.296875 7.550781 40.628906 6.882812 C 39.960938 6.214844 38.878906 6.214844 38.210938 6.882812 L 33.886719 11.207031 L 36.300781 13.625 "/>
<g clip-path="url(#clip1)" clip-rule="nonzero">
<path style=" stroke:none;fill-rule:nonzero;fill:rgb(97.24884%,65.098572%,16.859436%);fill-opacity:1;" d="M 8.308594 21.800781 L 2.195312 21.800781 C 1.25 21.800781 0.484375 22.566406 0.484375 23.511719 C 0.484375 24.453125 1.25 25.21875 2.195312 25.21875 L 8.308594 25.21875 L 8.308594 21.800781 "/>
</g>
<g clip-path="url(#clip2)" clip-rule="nonzero">
<path style=" stroke:none;fill-rule:nonzero;fill:rgb(97.24884%,65.098572%,16.859436%);fill-opacity:1;" d="M 39.691406 25.21875 L 45.808594 25.21875 C 46.75 25.21875 47.515625 24.453125 47.515625 23.511719 C 47.515625 22.566406 46.75 21.800781 45.808594 21.800781 L 39.691406 21.800781 L 39.691406 25.21875 "/>
</g>
<path style=" stroke:none;fill-rule:nonzero;fill:rgb(97.24884%,65.098572%,16.859436%);fill-opacity:1;" d="M 14.113281 11.207031 L 9.789062 6.882812 C 9.121094 6.214844 8.039062 6.214844 7.371094 6.882812 C 6.703125 7.550781 6.703125 8.632812 7.371094 9.296875 L 11.699219 13.625 L 14.113281 11.207031 "/>
<path style=" stroke:none;fill-rule:nonzero;fill:rgb(97.24884%,65.098572%,16.859436%);fill-opacity:1;" d="M 33.886719 35.8125 L 38.210938 40.136719 C 38.878906 40.804688 39.960938 40.804688 40.628906 40.136719 C 41.296875 39.46875 41.296875 38.386719 40.628906 37.722656 L 36.300781 33.398438 L 33.886719 35.8125 "/>
<path style=" stroke:none;fill-rule:nonzero;fill:rgb(97.24884%,65.098572%,16.859436%);fill-opacity:1;" d="M 25.707031 7.820312 L 25.707031 1.707031 C 25.707031 0.761719 24.945312 -0.00390625 24 -0.00390625 C 23.054688 -0.00390625 22.292969 0.761719 22.292969 1.707031 L 22.292969 7.820312 L 25.707031 7.820312 "/>
<g clip-path="url(#clip3)" clip-rule="nonzero">
<path style=" stroke:none;fill-rule:nonzero;fill:rgb(97.24884%,65.098572%,16.859436%);fill-opacity:1;" d="M 22.292969 39.199219 L 22.292969 45.316406 C 22.292969 46.257812 23.054688 47.023438 24 47.023438 C 24.945312 47.023438 25.707031 46.257812 25.707031 45.316406 L 25.707031 39.199219 L 22.292969 39.199219 "/>
</g>
<path style=" stroke:none;fill-rule:nonzero;fill:rgb(96.078491%,52.549744%,6.669617%);fill-opacity:1;" d="M 35.222656 23.332031 C 35.222656 29.527344 30.199219 34.554688 24 34.554688 C 17.800781 34.554688 12.777344 29.527344 12.777344 23.332031 C 12.777344 17.132812 17.800781 12.109375 24 12.109375 C 30.199219 12.109375 35.222656 17.132812 35.222656 23.332031 "/>
<path style=" stroke:none;fill-rule:nonzero;fill:rgb(94.509888%,31.759644%,10.5896%);fill-opacity:1;" d="M 22.859375 19.699219 L 29.671875 13.644531 L 28.945312 13.246094 L 22.328125 19.101562 C 22.164062 19.25 22.148438 19.503906 22.292969 19.664062 C 22.441406 19.832031 22.695312 19.847656 22.859375 19.699219 "/>
<path style=" stroke:none;fill-rule:nonzero;fill:rgb(94.509888%,31.759644%,10.5896%);fill-opacity:1;" d="M 32.328125 15.808594 L 27.710938 19.894531 C 27.546875 20.042969 27.53125 20.292969 27.675781 20.460938 C 27.820312 20.625 28.074219 20.640625 28.242188 20.492188 L 32.832031 16.40625 L 32.328125 15.808594 "/>
<path style=" stroke:none;fill-rule:nonzero;fill:rgb(94.509888%,31.759644%,10.5896%);fill-opacity:1;" d="M 26.40625 25.671875 L 18.277344 32.984375 L 19.074219 33.417969 L 27.042969 26.390625 C 27.238281 26.214844 27.257812 25.910156 27.082031 25.714844 C 26.90625 25.515625 26.601562 25.496094 26.40625 25.671875 "/>
<path style=" stroke:none;fill-rule:nonzero;fill:rgb(94.509888%,31.759644%,10.5896%);fill-opacity:1;" d="M 30.152344 25.726562 C 30.277344 25.871094 30.265625 26.089844 30.121094 26.214844 L 28.429688 27.703125 C 28.289062 27.828125 28.070312 27.8125 27.941406 27.671875 C 27.816406 27.527344 27.828125 27.308594 27.976562 27.183594 L 29.664062 25.695312 C 29.804688 25.570312 30.027344 25.585938 30.152344 25.726562 "/>
<path style=" stroke:none;fill-rule:nonzero;fill:rgb(94.509888%,31.759644%,10.5896%);fill-opacity:1;" d="M 21.207031 26.816406 C 21.332031 26.960938 21.316406 27.175781 21.171875 27.304688 L 19.484375 28.792969 C 19.339844 28.917969 19.121094 28.902344 18.996094 28.757812 C 18.871094 28.617188 18.882812 28.398438 19.027344 28.269531 L 20.71875 26.785156 C 20.859375 26.660156 21.078125 26.671875 21.207031 26.816406 "/>
</g>
</svg>
