<?xml version="1.0" encoding="UTF-8"?>
<svg xmlns="http://www.w3.org/2000/svg" xmlns:xlink="http://www.w3.org/1999/xlink" width="24pt" height="24pt" viewBox="0 0 48 48" version="1.2">
<defs>
<clipPath id="clip1">
  <path d="M 16 22 L 47.507812 22 L 47.507812 41.363281 L 16 41.363281 Z M 16 22 "/>
</clipPath>
<clipPath id="clip2">
  <path d="M 16 8.332031 L 18 8.332031 L 18 13 L 16 13 Z M 16 8.332031 "/>
</clipPath>
<clipPath id="clip3">
  <path d="M 0.488281 24 L 5 24 L 5 26 L 0.488281 26 Z M 0.488281 24 "/>
</clipPath>
</defs>
<g id="surface1">
<g clip-path="url(#clip1)" clip-rule="nonzero">
<path style=" stroke:none;fill-rule:nonzero;fill:rgb(67.059326%,88.238525%,82.749939%);fill-opacity:1;" d="M 46.910156 36.988281 C 46.417969 35.605469 45.089844 34.757812 43.691406 34.816406 C 43.902344 33.957031 43.875 33.03125 43.554688 32.136719 C 42.863281 30.195312 41.023438 28.992188 39.074219 29.023438 C 39.191406 28.464844 39.164062 27.867188 38.957031 27.292969 C 38.371094 25.636719 36.550781 24.773438 34.894531 25.359375 C 34.4375 25.523438 34.042969 25.777344 33.71875 26.097656 C 32.769531 23.609375 30 22.320312 27.480469 23.21875 C 26.226562 23.667969 25.265625 24.570312 24.71875 25.675781 C 23.433594 25.261719 22.007812 25.246094 20.636719 25.734375 C 17.328125 26.914062 15.597656 30.550781 16.777344 33.859375 C 17.03125 34.574219 17.402344 35.21875 17.859375 35.773438 C 16.585938 36.453125 15.964844 37.980469 16.464844 39.382812 C 16.871094 40.523438 17.898438 41.261719 19.03125 41.351562 C 19.0625 41.355469 19.097656 41.363281 19.132812 41.363281 L 43.835938 41.363281 L 43.84375 41.359375 C 44.203125 41.359375 44.566406 41.296875 44.925781 41.171875 C 46.628906 40.566406 47.515625 38.691406 46.910156 36.988281 "/>
</g>
<path style=" stroke:none;fill-rule:nonzero;fill:rgb(93.728638%,73.728943%,12.548828%);fill-opacity:1;" d="M 16.445312 35.402344 C 14.960938 33.179688 14.734375 30.234375 16.203125 27.910156 C 17.824219 25.34375 20.84375 24.128906 23.773438 24.839844 C 24.65625 23.398438 26.199219 22.363281 27.882812 22.199219 C 26.75 17.164062 22.253906 13.402344 16.875 13.402344 C 10.644531 13.402344 5.589844 18.453125 5.589844 24.6875 C 5.589844 30.59375 10.128906 35.4375 15.910156 35.925781 C 16.066406 35.738281 16.246094 35.5625 16.445312 35.402344 "/>
<path style=" stroke:none;fill-rule:nonzero;fill:rgb(92.549133%,60.389709%,13.729858%);fill-opacity:1;" d="M 14.984375 12.867188 L 14.597656 11.027344 C 14.53125 10.710938 14.21875 10.511719 13.902344 10.574219 C 13.589844 10.644531 13.386719 10.953125 13.453125 11.269531 L 13.839844 13.105469 C 14.214844 13.007812 14.597656 12.929688 14.984375 12.867188 "/>
<g clip-path="url(#clip2)" clip-rule="nonzero">
<path style=" stroke:none;fill-rule:nonzero;fill:rgb(92.549133%,60.389709%,13.729858%);fill-opacity:1;" d="M 16.875 8.304688 C 16.554688 8.304688 16.292969 8.566406 16.292969 8.886719 L 16.292969 12.730469 C 16.484375 12.722656 16.679688 12.71875 16.875 12.71875 C 17.070312 12.71875 17.265625 12.722656 17.460938 12.730469 L 17.460938 8.886719 C 17.460938 8.566406 17.199219 8.304688 16.875 8.304688 "/>
</g>
<path style=" stroke:none;fill-rule:nonzero;fill:rgb(92.549133%,60.389709%,13.729858%);fill-opacity:1;" d="M 3.417969 21.421875 C 3.101562 21.359375 2.796875 21.566406 2.730469 21.882812 C 2.667969 22.199219 2.875 22.507812 3.191406 22.570312 L 5.035156 22.933594 C 5.09375 22.546875 5.171875 22.164062 5.261719 21.789062 L 3.417969 21.421875 "/>
<path style=" stroke:none;fill-rule:nonzero;fill:rgb(92.549133%,60.389709%,13.729858%);fill-opacity:1;" d="M 2.765625 27.65625 C 2.824219 27.933594 3.066406 28.121094 3.335938 28.121094 C 3.378906 28.121094 3.417969 28.117188 3.457031 28.109375 L 5.296875 27.722656 C 5.199219 27.347656 5.121094 26.964844 5.058594 26.578125 L 3.21875 26.964844 C 2.902344 27.03125 2.699219 27.339844 2.765625 27.65625 "/>
<path style=" stroke:none;fill-rule:nonzero;fill:rgb(92.549133%,60.389709%,13.729858%);fill-opacity:1;" d="M 8.011719 16.644531 C 8.273438 16.359375 8.546875 16.082031 8.835938 15.820312 L 6.117188 13.101562 C 5.890625 12.875 5.519531 12.875 5.292969 13.101562 C 5.0625 13.328125 5.0625 13.699219 5.292969 13.925781 L 8.011719 16.644531 "/>
<path style=" stroke:none;fill-rule:nonzero;fill:rgb(92.549133%,60.389709%,13.729858%);fill-opacity:1;" d="M 9.742188 15.074219 C 10.054688 14.84375 10.378906 14.625 10.714844 14.425781 L 9.667969 12.863281 C 9.488281 12.59375 9.125 12.523438 8.855469 12.703125 C 8.589844 12.882812 8.519531 13.246094 8.695312 13.511719 L 9.742188 15.074219 "/>
<path style=" stroke:none;fill-rule:nonzero;fill:rgb(92.549133%,60.389709%,13.729858%);fill-opacity:1;" d="M 11.648438 13.917969 C 11.996094 13.75 12.355469 13.59375 12.722656 13.460938 L 11.214844 9.925781 C 11.085938 9.628906 10.742188 9.492188 10.445312 9.617188 C 10.152344 9.746094 10.011719 10.085938 10.140625 10.382812 L 11.648438 13.917969 "/>
<path style=" stroke:none;fill-rule:nonzero;fill:rgb(92.549133%,60.389709%,13.729858%);fill-opacity:1;" d="M 20.140625 11.226562 C 20.203125 10.910156 19.996094 10.605469 19.679688 10.542969 C 19.363281 10.480469 19.054688 10.683594 18.992188 11 L 18.628906 12.847656 C 19.015625 12.902344 19.398438 12.980469 19.773438 13.074219 L 20.140625 11.226562 "/>
<path style=" stroke:none;fill-rule:nonzero;fill:rgb(92.549133%,60.389709%,13.729858%);fill-opacity:1;" d="M 4.96875 17.617188 L 6.542969 18.648438 C 6.742188 18.308594 6.957031 17.984375 7.183594 17.667969 L 5.605469 16.640625 C 5.335938 16.464844 4.972656 16.539062 4.796875 16.808594 C 4.621094 17.082031 4.699219 17.441406 4.96875 17.617188 "/>
<path style=" stroke:none;fill-rule:nonzero;fill:rgb(92.549133%,60.389709%,13.729858%);fill-opacity:1;" d="M 28.101562 20.53125 L 31.636719 19.023438 C 31.933594 18.894531 32.070312 18.554688 31.945312 18.257812 C 31.816406 17.960938 31.476562 17.820312 31.175781 17.949219 L 27.644531 19.457031 C 27.8125 19.804688 27.964844 20.164062 28.101562 20.53125 "/>
<path style=" stroke:none;fill-rule:nonzero;fill:rgb(92.549133%,60.389709%,13.729858%);fill-opacity:1;" d="M 23.894531 14.992188 L 24.921875 13.417969 C 25.097656 13.144531 25.023438 12.785156 24.753906 12.609375 C 24.480469 12.429688 24.121094 12.507812 23.945312 12.777344 L 22.914062 14.355469 C 23.253906 14.550781 23.578125 14.765625 23.894531 14.992188 "/>
<path style=" stroke:none;fill-rule:nonzero;fill:rgb(92.549133%,60.389709%,13.729858%);fill-opacity:1;" d="M 28.050781 16.507812 L 26.488281 17.554688 C 26.71875 17.863281 26.933594 18.1875 27.136719 18.523438 L 28.699219 17.476562 C 28.96875 17.296875 29.039062 16.933594 28.859375 16.667969 C 28.679688 16.398438 28.316406 16.328125 28.050781 16.507812 "/>
<path style=" stroke:none;fill-rule:nonzero;fill:rgb(92.549133%,60.389709%,13.729858%);fill-opacity:1;" d="M 25.742188 16.644531 L 28.460938 13.925781 C 28.6875 13.699219 28.6875 13.328125 28.460938 13.101562 C 28.230469 12.875 27.863281 12.875 27.632812 13.101562 L 24.917969 15.820312 C 25.203125 16.082031 25.480469 16.359375 25.742188 16.644531 "/>
<path style=" stroke:none;fill-rule:nonzero;fill:rgb(92.549133%,60.389709%,13.729858%);fill-opacity:1;" d="M 23.308594 10.246094 C 23.429688 9.945312 23.285156 9.605469 22.984375 9.484375 C 22.6875 9.363281 22.34375 9.511719 22.226562 9.808594 L 20.792969 13.375 C 21.160156 13.503906 21.523438 13.648438 21.875 13.8125 L 23.308594 10.246094 "/>
<path style=" stroke:none;fill-rule:nonzero;fill:rgb(92.549133%,60.389709%,13.729858%);fill-opacity:1;" d="M 2 19.335938 L 5.566406 20.769531 C 5.695312 20.398438 5.839844 20.039062 6.003906 19.6875 L 2.433594 18.253906 C 2.136719 18.132812 1.796875 18.277344 1.675781 18.578125 C 1.554688 18.875 1.699219 19.214844 2 19.335938 "/>
<path style=" stroke:none;fill-rule:nonzero;fill:rgb(92.549133%,60.389709%,13.729858%);fill-opacity:1;" d="M 5.648438 28.839844 L 2.117188 30.347656 C 1.820312 30.476562 1.679688 30.820312 1.808594 31.117188 C 1.902344 31.335938 2.117188 31.46875 2.34375 31.46875 C 2.421875 31.46875 2.5 31.453125 2.574219 31.421875 L 6.109375 29.914062 C 5.9375 29.566406 5.785156 29.207031 5.648438 28.839844 "/>
<path style=" stroke:none;fill-rule:nonzero;fill:rgb(92.549133%,60.389709%,13.729858%);fill-opacity:1;" d="M 5.703125 32.863281 L 7.265625 31.820312 C 7.035156 31.507812 6.816406 31.183594 6.617188 30.847656 L 5.054688 31.894531 C 4.785156 32.074219 4.714844 32.4375 4.894531 32.703125 C 5.003906 32.875 5.191406 32.964844 5.378906 32.964844 C 5.492188 32.964844 5.601562 32.933594 5.703125 32.863281 "/>
<path style=" stroke:none;fill-rule:nonzero;fill:rgb(92.549133%,60.389709%,13.729858%);fill-opacity:1;" d="M 13.613281 38.144531 C 13.550781 38.460938 13.757812 38.765625 14.074219 38.828125 C 14.109375 38.835938 14.148438 38.839844 14.1875 38.839844 C 14.460938 38.839844 14.703125 38.648438 14.757812 38.371094 L 15.125 36.523438 C 14.734375 36.46875 14.355469 36.390625 13.980469 36.300781 L 13.613281 38.144531 "/>
<g clip-path="url(#clip3)" clip-rule="nonzero">
<path style=" stroke:none;fill-rule:nonzero;fill:rgb(92.549133%,60.389709%,13.729858%);fill-opacity:1;" d="M 4.90625 24.6875 C 4.90625 24.488281 4.914062 24.296875 4.921875 24.101562 L 1.078125 24.101562 C 0.753906 24.101562 0.492188 24.363281 0.492188 24.6875 C 0.492188 25.007812 0.753906 25.269531 1.078125 25.269531 L 4.921875 25.269531 C 4.914062 25.078125 4.90625 24.882812 4.90625 24.6875 "/>
</g>
<path style=" stroke:none;fill-rule:nonzero;fill:rgb(92.549133%,60.389709%,13.729858%);fill-opacity:1;" d="M 10.445312 39.128906 C 10.324219 39.425781 10.46875 39.765625 10.769531 39.886719 C 10.839844 39.914062 10.914062 39.929688 10.984375 39.929688 C 11.214844 39.929688 11.4375 39.789062 11.527344 39.5625 L 12.960938 35.996094 C 12.589844 35.867188 12.230469 35.722656 11.878906 35.558594 L 10.445312 39.128906 "/>
<path style=" stroke:none;fill-rule:nonzero;fill:rgb(92.549133%,60.389709%,13.729858%);fill-opacity:1;" d="M 8.011719 32.726562 L 5.292969 35.445312 C 5.0625 35.671875 5.0625 36.042969 5.292969 36.269531 C 5.40625 36.382812 5.554688 36.441406 5.707031 36.441406 C 5.855469 36.441406 6.003906 36.382812 6.117188 36.269531 L 8.835938 33.550781 C 8.546875 33.289062 8.273438 33.015625 8.011719 32.726562 "/>
<path style=" stroke:none;fill-rule:nonzero;fill:rgb(92.549133%,60.389709%,13.729858%);fill-opacity:1;" d="M 9.859375 34.378906 L 8.832031 35.957031 C 8.65625 36.226562 8.730469 36.585938 9 36.765625 C 9.097656 36.828125 9.210938 36.859375 9.320312 36.859375 C 9.507812 36.859375 9.699219 36.765625 9.808594 36.59375 L 10.835938 35.015625 C 10.5 34.820312 10.175781 34.605469 9.859375 34.378906 "/>
<path style=" stroke:none;fill-rule:nonzero;fill:rgb(92.549133%,60.389709%,13.729858%);fill-opacity:1;" d="M 28.925781 22.207031 C 29.351562 22.257812 29.757812 22.355469 30.144531 22.488281 L 30.535156 22.40625 C 30.851562 22.339844 31.050781 22.03125 30.984375 21.714844 C 30.917969 21.398438 30.609375 21.195312 30.292969 21.261719 L 28.457031 21.648438 C 28.5 21.824219 28.542969 22 28.578125 22.179688 C 28.695312 22.183594 28.8125 22.195312 28.925781 22.207031 "/>
</g>
</svg>
